<?xml version="1.0" encoding="utf-8"?>
<!-- Generator: Adobe Illustrator 26.1.0, SVG Export Plug-In . SVG Version: 6.00 Build 0)  -->
<svg id="floor-1-1-first" version="1.1" xmlns="http://www.w3.org/2000/svg" xmlns:xlink="http://www.w3.org/1999/xlink" x="0px" y="0px" width="800px"
	 height="600px" viewBox="0 0 800 600" enable-background="new 0 0 800 600" xml:space="preserve">
<g id="背景">
	<polyline id="base" fill="#DCDDDD" points="70,55 730,55 730,545 70,545 	"/>
</g>
<g id="男性用トイレ">
	<polyline fill="#54C3F1" stroke="#283331" stroke-miterlimit="10" points="455.66,181.18 474.02,181.18 474.02,91.39 455.66,91.39 
		455.66,181.18 	"/>
	<polyline fill="#54C3F1" stroke="#283331" stroke-miterlimit="10" points="448,464.85 448,488.32 463.31,488.32 463.31,464.85 
		448,464.85 	"/>
</g>
<g id="女性用トイレ">
	<polyline fill="#F19899" stroke="#283331" stroke-miterlimit="10" points="438,196.74 455.66,196.74 455.66,91.39 438,91.39 
		438,196.74 	"/>
	<rect x="463.31" y="464.85" fill="#F19899" stroke="#283331" stroke-miterlimit="10" width="13.78" height="23.47"/>
</g>
<g id="使用不可能教室等">
	<rect x="310.65" y="217.41" fill="#929292" stroke="#283331" stroke-miterlimit="10" width="82.31" height="56.12"/>
	<rect x="374.32" y="120.21" fill="#929292" stroke="#283331" stroke-miterlimit="10" width="63.67" height="76.53"/>
	<polyline fill="#929292" stroke="#283331" stroke-miterlimit="10" points="575.55,447.51 630.97,447.51 630.97,426.49 
		575.55,426.49 575.55,447.51 	"/>
	<polyline fill="#929292" stroke="#283331" stroke-miterlimit="10" points="630.97,447.51 685.76,447.51 685.76,426.49 
		630.97,426.49 630.97,447.51 	"/>
	<polyline fill="#929292" stroke="#283331" stroke-miterlimit="10" points="585.18,260.77 685.76,260.77 685.76,231.05 
		598.51,231.05 585.18,244.38 585.18,260.77 	"/>
	<path fill="#929292" stroke="#283331" stroke-miterlimit="10" d="M448,447.51"/>
	<polyline fill="#929292" stroke="#283331" stroke-miterlimit="10" points="278.82,447.51 470.2,447.51 470.2,374.96 278.82,374.96 
		278.82,447.51 	"/>
	<polyline fill="#929292" stroke="#283331" stroke-miterlimit="10" points="470.2,447.51 549.05,447.51 549.05,389.25 470.2,389.25 
		470.2,447.51 	"/>
	<polyline fill="#929292" stroke="#283331" stroke-miterlimit="10" points="278.82,465.88 278.82,488.32 333.21,488.32 
		333.21,465.88 278.82,465.88 	"/>
	<polyline fill="#929292" stroke="#283331" stroke-miterlimit="10" points="183.31,374.96 84.54,374.96 84.54,507.06 183.31,507.06 
		183.31,374.96 	"/>
	<polyline fill="#929292" stroke="#283331" stroke-miterlimit="10" points="477.08,464.85 685.76,464.85 685.76,488.32 
		477.08,488.32 477.08,464.85 	"/>
</g>
<g id="廊下">
	<polygon fill="#B5B5B6" stroke="#283331" stroke-miterlimit="10" points="455.66,196.74 455.66,181.18 634.74,181.18 
		634.74,165.37 618.19,165.37 618.19,91.39 700.55,91.39 700.55,175.06 684.23,175.06 684.23,181.18 651.81,217.41 651.81,231.05 
		598.51,231.05 585.18,244.38 585.18,260.77 575.55,260.77 575.55,447.51 685.76,447.51 685.76,464.85 448,464.85 448,488.32 
		333.21,488.32 333.21,465.88 278.82,465.88 278.82,447.51 549.05,447.51 549.05,254.14 563.82,231.05 563.82,206.12 555.05,197.35 
			"/>
	<polygon fill="#B5B5B6" stroke="#283331" stroke-miterlimit="10" points="124.87,217.41 124.87,199.25 183.31,199.25 
		183.31,181.18 310.65,181.18 310.65,196.74 555.05,197.35 559.26,201.56 543.92,217.41 310.65,217.41 310.65,231.05 183.31,231.05 
		183.31,217.41 	"/>
	<polygon fill="#C9CACA" stroke="#283331" stroke-miterlimit="10" points="183.31,231.05 183.31,468.95 278.82,468.95 
		278.82,441.29 215.15,441.29 215.15,231.05 	"/>
	<g id="矢印_00000169542504343888597490000000042269257374675616_">
		<path fill="#040000" d="M676.65,205.86l-0.44-5.53l-1.91,2.24l-11.19-9.55l-1.27,1.49l11.19,9.55l-1.91,2.24L676.65,205.86z"/>
		<path fill="#040000" d="M661.15,192.63l0.44,5.53l1.91-2.24l11.19,9.55l1.27-1.49l-11.19-9.55l1.91-2.24L661.15,192.63z"/>
	</g>
	<g id="矢印_00000003821104977233825240000001787392157971959717_">
		<path fill="#040000" d="M482.31,206.93l4-3.84l-2.94-0.06l0.29-14.71l-1.96-0.04l-0.29,14.71l-2.94-0.06L482.31,206.93z"/>
		<path fill="#040000" d="M482.71,186.55l-4,3.84l2.94,0.06l-0.29,14.71l1.96,0.04l0.29-14.71l2.94,0.06L482.71,186.55z"/>
	</g>
	<g id="矢印_00000085246789194735152540000007862755206723945377_">
		<path fill="#040000" d="M553.04,219.58l3.84,4l0.06-2.94l14.71,0.29l0.04-1.96l-14.71-0.29l0.06-2.94L553.04,219.58z"/>
		<path fill="#040000" d="M573.41,219.98l-3.84-4l-0.06,2.94l-14.71-0.29l-0.04,1.96l14.71,0.29l-0.06,2.94L573.41,219.98z"/>
	</g>
	<g id="矢印_00000181789996608356279280000010889631825997111172_">
		<path fill="#040000" d="M268.63,456.49l3.84,4l0.06-2.94l14.71,0.29l0.04-1.96l-14.71-0.29l0.06-2.94L268.63,456.49z"/>
		<path fill="#040000" d="M289.01,456.89l-3.84-4l-0.06,2.94l-14.71-0.29l-0.04,1.96l14.71,0.29l-0.06,2.94L289.01,456.89z"/>
	</g>
	<g id="矢印_00000119079641627955094320000003202814435308966813_">
		<path fill="#040000" d="M342.69,478.14l-4,3.84l2.94,0.06l-0.29,14.71l1.96,0.04l0.29-14.71l2.94,0.06L342.69,478.14z"/>
		<path fill="#040000" d="M342.29,498.51l4-3.84l-2.94-0.06l0.29-14.71l-1.96-0.04l-0.29,14.71l-2.94-0.06L342.29,498.51z"/>
	</g>
	<g id="矢印_00000062182171746062386190000016845712016554656410_">
		<path fill="#040000" d="M432.39,477.27l-4,3.84l2.94,0.06l-0.29,14.71l1.96,0.04l0.29-14.71l2.94,0.06L432.39,477.27z"/>
		<path fill="#040000" d="M431.98,497.65l4-3.84l-2.94-0.06l0.29-14.71l-1.96-0.04l-0.29,14.71l-2.94-0.06L431.98,497.65z"/>
	</g>
	<g id="矢印_00000078762721828969584610000007785985403252933004_">
		<path fill="#040000" d="M676.65,456.36l3.84,4l0.06-2.94l14.71,0.29l0.04-1.96l-14.71-0.29l0.06-2.94L676.65,456.36z"/>
		<path fill="#040000" d="M697.03,456.77l-3.84-4l-0.06,2.94l-14.71-0.29l-0.04,1.96l14.71,0.29l-0.06,2.94L697.03,456.77z"/>
	</g>
</g>
<g id="トイレマーク">
	<g>
		<path fill="#FFFFFF" d="M469.29,472.17c1.77,0,3.21-1.44,3.21-3.21c0-1.77-1.44-3.21-3.21-3.21c-1.77,0-3.21,1.44-3.21,3.21
			S467.51,472.17,469.29,472.17z"/>
		<path fill="#FFFFFF" d="M457.33,472.17c1.77,0,3.21-1.44,3.21-3.21c0-1.77-1.44-3.21-3.21-3.21c-1.77,0-3.21,1.44-3.21,3.21
			C454.12,470.73,455.56,472.17,457.33,472.17z"/>
		<path fill="#FFFFFF" d="M474.16,484.62l-4.4-10.36c-0.08-0.19-0.26-0.31-0.47-0.31c-0.2,0-0.39,0.12-0.47,0.31l-4.4,10.36
			c-0.27,0.62-0.2,1.34,0.17,1.91c0.37,0.57,1.01,0.91,1.69,0.91h3.01h3.01c0.68,0,1.31-0.34,1.69-0.91
			C474.36,485.96,474.42,485.25,474.16,484.62z"/>
		<path fill="#FFFFFF" d="M460.34,473.95h-3.01h-3.01c-0.68,0-1.31,0.34-1.69,0.91c-0.37,0.57-0.44,1.28-0.17,1.91l4.4,10.36
			c0.08,0.19,0.26,0.31,0.47,0.31c0.2,0,0.39-0.12,0.47-0.31l4.4-10.36c0.27-0.62,0.2-1.34-0.17-1.91
			C461.65,474.29,461.02,473.95,460.34,473.95z"/>
	</g>
	<g>
		<path fill="#FFFFFF" d="M465.07,133.87c1.77,0,3.21-1.44,3.21-3.21s-1.44-3.21-3.21-3.21c-1.77,0-3.21,1.44-3.21,3.21
			S463.3,133.87,465.07,133.87z"/>
		<path fill="#FFFFFF" d="M468.08,135.65h-3.01h-3.01c-0.68,0-1.31,0.34-1.69,0.91c-0.37,0.57-0.44,1.28-0.17,1.91l4.4,10.36
			c0.08,0.19,0.26,0.31,0.47,0.31c0.2,0,0.39-0.12,0.47-0.31l4.4-10.36c0.27-0.62,0.2-1.34-0.17-1.91
			C469.4,135.99,468.76,135.65,468.08,135.65z"/>
	</g>
	<g>
		<path fill="#FFFFFF" d="M446.83,133.87c1.77,0,3.21-1.44,3.21-3.21s-1.44-3.21-3.21-3.21c-1.77,0-3.21,1.44-3.21,3.21
			S445.05,133.87,446.83,133.87z"/>
		<path fill="#FFFFFF" d="M451.7,146.32l-4.4-10.36c-0.08-0.19-0.26-0.31-0.47-0.31c-0.2,0-0.39,0.12-0.47,0.31l-4.4,10.36
			c-0.27,0.62-0.2,1.34,0.17,1.91c0.37,0.57,1.01,0.91,1.69,0.91h3.01h3.01c0.68,0,1.31-0.34,1.69-0.91
			C451.9,147.66,451.96,146.95,451.7,146.32z"/>
	</g>
</g>
<g id="階段">
	<g>
		<polygon fill="#5C5A5A" points="618.19,109.82 631.45,104.61 631.45,91.66 618.19,91.66 		"/>
		<polyline fill="none" stroke="#283331" stroke-miterlimit="10" points="631.45,122.76 631.45,91.66 618.19,91.66 618.19,123.2 		
			"/>
		
			<line fill="none" stroke="#283331" stroke-width="0.25" stroke-miterlimit="10" x1="618.19" y1="109.82" x2="631.45" y2="109.82"/>
		
			<line fill="none" stroke="#283331" stroke-width="0.25" stroke-miterlimit="10" x1="618.19" y1="112.19" x2="631.45" y2="112.19"/>
		
			<line fill="none" stroke="#283331" stroke-width="0.25" stroke-miterlimit="10" x1="618.19" y1="114.56" x2="631.45" y2="114.56"/>
		
			<line fill="none" stroke="#283331" stroke-width="0.25" stroke-miterlimit="10" x1="618.19" y1="116.93" x2="631.45" y2="116.93"/>
		
			<line fill="none" stroke="#283331" stroke-width="0.25" stroke-miterlimit="10" x1="618.19" y1="119.31" x2="631.45" y2="119.31"/>
		
			<line fill="none" stroke="#283331" stroke-width="0.25" stroke-miterlimit="10" x1="618.19" y1="121.68" x2="631.45" y2="121.68"/>
	</g>
	<g>
		<polygon fill="#5C5A5A" points="202.26,487.11 215.53,481.91 215.53,468.95 202.26,468.95 		"/>
		<polyline fill="none" stroke="#283331" stroke-miterlimit="10" points="215.53,500.06 215.53,468.95 202.26,468.95 202.26,500.5 
					"/>
		
			<line fill="none" stroke="#283331" stroke-width="0.25" stroke-miterlimit="10" x1="202.26" y1="487.11" x2="215.53" y2="487.11"/>
		
			<line fill="none" stroke="#283331" stroke-width="0.25" stroke-miterlimit="10" x1="202.26" y1="489.49" x2="215.53" y2="489.49"/>
		
			<line fill="none" stroke="#283331" stroke-width="0.25" stroke-miterlimit="10" x1="202.26" y1="491.86" x2="215.53" y2="491.86"/>
		
			<line fill="none" stroke="#283331" stroke-width="0.25" stroke-miterlimit="10" x1="202.26" y1="494.23" x2="215.53" y2="494.23"/>
		
			<line fill="none" stroke="#283331" stroke-width="0.25" stroke-miterlimit="10" x1="202.26" y1="496.61" x2="215.53" y2="496.61"/>
		
			<line fill="none" stroke="#283331" stroke-width="0.25" stroke-miterlimit="10" x1="202.26" y1="498.98" x2="215.53" y2="498.98"/>
	</g>
	<g>
		<polygon fill="#5C5A5A" points="228.68,208.37 233.88,221.64 246.84,221.64 246.84,208.37 		"/>
		<polyline fill="none" stroke="#283331" stroke-miterlimit="10" points="215.73,221.64 246.84,221.64 246.84,208.37 215.29,208.37 
					"/>
		
			<line fill="none" stroke="#283331" stroke-width="0.25" stroke-miterlimit="10" x1="228.68" y1="208.37" x2="228.68" y2="221.64"/>
		
			<line fill="none" stroke="#283331" stroke-width="0.25" stroke-miterlimit="10" x1="226.31" y1="208.37" x2="226.31" y2="221.64"/>
		
			<line fill="none" stroke="#283331" stroke-width="0.25" stroke-miterlimit="10" x1="223.93" y1="208.37" x2="223.93" y2="221.64"/>
		
			<line fill="none" stroke="#283331" stroke-width="0.25" stroke-miterlimit="10" x1="221.56" y1="208.37" x2="221.56" y2="221.64"/>
		
			<line fill="none" stroke="#283331" stroke-width="0.25" stroke-miterlimit="10" x1="219.19" y1="208.37" x2="219.19" y2="221.64"/>
		
			<line fill="none" stroke="#283331" stroke-width="0.25" stroke-miterlimit="10" x1="216.81" y1="208.37" x2="216.81" y2="221.64"/>
	</g>
	<g>
		<polygon fill="#5C5A5A" points="713.82,462.47 700.55,467.67 700.55,480.63 713.82,480.63 		"/>
		<polyline fill="none" stroke="#283331" stroke-miterlimit="10" points="700.55,449.52 700.55,480.63 713.82,480.63 713.82,449.08 
					"/>
		
			<line fill="none" stroke="#283331" stroke-width="0.25" stroke-miterlimit="10" x1="713.82" y1="462.47" x2="700.55" y2="462.47"/>
		<line fill="none" stroke="#283331" stroke-width="0.25" stroke-miterlimit="10" x1="713.82" y1="460.1" x2="700.55" y2="460.1"/>
		
			<line fill="none" stroke="#283331" stroke-width="0.25" stroke-miterlimit="10" x1="713.82" y1="457.72" x2="700.55" y2="457.72"/>
		
			<line fill="none" stroke="#283331" stroke-width="0.25" stroke-miterlimit="10" x1="713.82" y1="455.35" x2="700.55" y2="455.35"/>
		
			<line fill="none" stroke="#283331" stroke-width="0.25" stroke-miterlimit="10" x1="713.82" y1="452.98" x2="700.55" y2="452.98"/>
		<line fill="none" stroke="#283331" stroke-width="0.25" stroke-miterlimit="10" x1="713.82" y1="450.6" x2="700.55" y2="450.6"/>
	</g>
	<g>
		<polygon fill="#5C5A5A" points="402.8,478.43 395.86,475.63 390.75,480.77 395.64,485.63 		"/>
		<polyline fill="none" stroke="#283331" stroke-miterlimit="10" points="403.02,468.43 390.75,480.77 395.64,485.63 408.08,473.12 
					"/>
		<line fill="none" stroke="#283331" stroke-width="0.25" stroke-miterlimit="10" x1="402.8" y1="478.43" x2="397.92" y2="473.57"/>
		
			<line fill="none" stroke="#283331" stroke-width="0.25" stroke-miterlimit="10" x1="403.74" y1="477.49" x2="398.85" y2="472.63"/>
		
			<line fill="none" stroke="#283331" stroke-width="0.25" stroke-miterlimit="10" x1="404.68" y1="476.55" x2="399.79" y2="471.68"/>
		<line fill="none" stroke="#283331" stroke-width="0.25" stroke-miterlimit="10" x1="405.61" y1="475.6" x2="400.72" y2="470.74"/>
		<line fill="none" stroke="#283331" stroke-width="0.25" stroke-miterlimit="10" x1="406.55" y1="474.66" x2="401.66" y2="469.8"/>
		
			<line fill="none" stroke="#283331" stroke-width="0.25" stroke-miterlimit="10" x1="407.48" y1="473.72" x2="402.59" y2="468.86"/>
	</g>
	<g>
		<polygon fill="#5C5A5A" points="549.05,371.09 535.79,376.29 535.79,389.25 549.05,389.25 		"/>
		<polyline fill="none" stroke="#283331" stroke-miterlimit="10" points="535.79,358.14 535.79,389.25 549.05,389.25 549.05,357.7 
					"/>
		
			<line fill="none" stroke="#283331" stroke-width="0.25" stroke-miterlimit="10" x1="549.05" y1="371.09" x2="535.79" y2="371.09"/>
		
			<line fill="none" stroke="#283331" stroke-width="0.25" stroke-miterlimit="10" x1="549.05" y1="368.71" x2="535.79" y2="368.71"/>
		
			<line fill="none" stroke="#283331" stroke-width="0.25" stroke-miterlimit="10" x1="549.05" y1="366.34" x2="535.79" y2="366.34"/>
		
			<line fill="none" stroke="#283331" stroke-width="0.25" stroke-miterlimit="10" x1="549.05" y1="363.97" x2="535.79" y2="363.97"/>
		
			<line fill="none" stroke="#283331" stroke-width="0.25" stroke-miterlimit="10" x1="549.05" y1="361.59" x2="535.79" y2="361.59"/>
		
			<line fill="none" stroke="#283331" stroke-width="0.25" stroke-miterlimit="10" x1="549.05" y1="359.22" x2="535.79" y2="359.22"/>
	</g>
</g>
<g id="MLOC-available">
	<rect id="room109f" x="246.98" y="231.05" fill="#AADDF7" stroke="#283331" stroke-miterlimit="10" width="63.67" height="68.45"/>
	<rect id="room110f" x="474.02" y="91.39" fill="#AADDF7" stroke="#283331" stroke-miterlimit="10" width="144.16" height="89.8"/>
	<rect id="room102f" x="124.87" y="120.21" fill="#AEDEF8" stroke="#283331" stroke-miterlimit="10" width="58.44" height="79.04"/>
	<rect id="room101f" x="124.87" y="217.41" fill="#AEDEF8" stroke="#283331" stroke-miterlimit="10" width="58.44" height="82.1"/>
	<rect id="room103f" x="183.31" y="104.65" fill="#DC9E68" stroke="#283331" stroke-miterlimit="10" width="63.67" height="76.53"/>
	<rect id="room104f" x="246.98" y="104.65" fill="#AADDF7" stroke="#283331" stroke-miterlimit="10" width="63.67" height="76.53"/>
	<rect id="room105f" x="310.65" y="120.21" fill="#AADDF7" stroke="#283331" stroke-miterlimit="10" width="63.67" height="76.53"/>
	<polyline id="room120f" fill="#AEDEF8" stroke="#283331" stroke-miterlimit="10" points="575.55,260.77 685.76,260.77 
		685.76,426.49 575.55,426.49 575.55,260.77 	"/>
</g>
<g id="MNOINT-words">
	<text transform="matrix(1 0 0 1 477.0849 104.6508)" font-family="'HiraginoSans-W5-83pv-RKSJ-H'" font-size="12px">110</text>
	<text transform="matrix(1 0 0 1 298.9153 418.3764)" font-family="'HiraginoSans-W5-83pv-RKSJ-H'" font-size="15px">学生サポートセンター</text>
	
		<text id="EV_00000046303086527069684240000000968166283002436253_" transform="matrix(1 0 0 1 618.2048 178.4406)" font-family="'HiraginoSans-W5-83pv-RKSJ-H'" font-size="12px">EV</text>
	<text transform="matrix(1 0 0 1 577.5312 273.5283)" font-family="'HiraginoSans-W5-83pv-RKSJ-H'" font-size="12px">120</text>
	<text transform="matrix(1 0 0 1 108.1075 447.5083)"><tspan x="0" y="0" font-family="'HiraginoSans-W5-83pv-RKSJ-H'" font-size="20px">A</tspan><tspan x="15.68" y="0" font-family="'HiraginoSans-W5-83pv-RKSJ-H'" font-size="20px" letter-spacing="5">V</tspan><tspan x="35.82" y="0" font-family="'HiraginoSans-W5-83pv-RKSJ-H'" font-size="20px">棟</tspan></text>
	<text transform="matrix(1 0 0 1 310.654 131.8597)" font-family="'HiraginoSans-W5-83pv-RKSJ-H'" font-size="12px">105</text>
	<text transform="matrix(1 0 0 1 246.983 116.4297)" font-family="'HiraginoSans-W5-83pv-RKSJ-H'" font-size="12px">104</text>
	<text transform="matrix(1 0 0 1 246.9827 242.3528)" font-family="'HiraginoSans-W5-83pv-RKSJ-H'" font-size="12px">109</text>
	<text transform="matrix(1 0 0 1 124.867 228.9111)" font-family="'HiraginoSans-W5-83pv-RKSJ-H'" font-size="12px">101</text>
	<text transform="matrix(1 0 0 1 124.8668 132.0037)" font-family="'HiraginoSans-W5-83pv-RKSJ-H'" font-size="12px">102</text>
	<text transform="matrix(1 0 0 1 183.3118 116.5734)" font-family="'HiraginoSans-W5-83pv-RKSJ-H'" font-size="12px">103</text>
	<text transform="matrix(1 0 0 1 312.0337 228.9106)" font-family="'HiraginoSans-W5-83pv-RKSJ-H'" font-size="12px">107</text>
	<text transform="matrix(1 0 0 1 374.5078 131.8597)" font-family="'HiraginoSans-W5-83pv-RKSJ-H'" font-size="12px">106</text>
	<text transform="matrix(1 0 0 1 392.7073 313.7352)" font-family="'HiraginoSans-W5-83pv-RKSJ-H'" font-size="20px">中庭</text>
	<text transform="matrix(1 0 0 1 132.9276 261.7734)" font-family="'HiraginoSans-W5-83pv-RKSJ-H'" font-size="10px">das Lied</text>
	<text transform="matrix(1 0 0 1 129.3378 164.1922)" font-family="'HiraginoSans-W5-83pv-RKSJ-H'" font-size="10px">デモルーム</text>
	<text transform="matrix(1 0 0 1 185.2916 142.9161)"><tspan x="0" y="0" font-family="'HiraginoSans-W5-83pv-RKSJ-H'" font-size="10px">サークル紹介</tspan><tspan x="20" y="17.5" font-family="'HiraginoSans-W5-83pv-RKSJ-H'" font-size="10px">本部</tspan></text>
	<text transform="matrix(1 0 0 1 253.4318 151.6163)" font-family="'HiraginoSans-W5-83pv-RKSJ-H'" font-size="10px">デモルーム</text>
	<text transform="matrix(1 0 0 1 317.3186 164.1922)" font-family="'HiraginoSans-W5-83pv-RKSJ-H'" font-size="10px">デモルーム</text>
	<text transform="matrix(1 0 0 1 253.8505 271.5282)" font-family="'HiraginoSans-W5-83pv-RKSJ-H'" font-size="10px">デモルーム</text>
	<text transform="matrix(1 0 0 1 511.1046 134.4761)"><tspan x="0" y="0" font-family="'HiraginoSans-W5-83pv-RKSJ-H'" font-size="10px">児童文化研究会</tspan><tspan x="-15" y="17.5" font-family="'HiraginoSans-W5-83pv-RKSJ-H'" font-size="10px">生協学生委員会つむぎ</tspan></text>
	<text transform="matrix(1 0 0 1 605.6561 326.2262)"><tspan x="0" y="0" font-family="'HiraginoSans-W5-83pv-RKSJ-H'" font-size="10px">学術探検会</tspan><tspan x="10" y="17.5" font-family="'HiraginoSans-W5-83pv-RKSJ-H'" font-size="10px">弓道部</tspan><tspan x="9.91" y="35" font-family="'HiraginoSans-W5-83pv-RKSJ-H'" font-size="10px">CORE</tspan><tspan x="-30" y="52.5" font-family="'HiraginoSans-W5-83pv-RKSJ-H'" font-size="10px">女子バスケットボール部</tspan></text>
</g>
</svg>
