<?xml version="1.0" encoding="utf-8"?>
<!-- Generator: Adobe Illustrator 26.1.0, SVG Export Plug-In . SVG Version: 6.00 Build 0)  -->
<svg version="1.1" xmlns="http://www.w3.org/2000/svg" xmlns:xlink="http://www.w3.org/1999/xlink" x="0px" y="0px" width="800px"
	 height="600px" viewBox="0 0 800 600" enable-background="new 0 0 800 600" xml:space="preserve">
<g id="背景">
	<polyline id="base" fill="#DCDDDD" points="70,55 730,55 730,545 70,545 	"/>
</g>
<g id="廊下">
	<g id="階段_00000041291255900824618570000013429189157844668068_">
		<polyline fill="none" stroke="#283331" stroke-miterlimit="10" points="411.79,503.33 403.43,478.54 413.86,475.02 422.1,499.47 
					"/>
		
			<line fill="none" stroke="#283331" stroke-width="0.25" stroke-miterlimit="10" x1="408.24" y1="492.81" x2="418.67" y2="489.29"/>
		<line fill="none" stroke="#283331" stroke-width="0.25" stroke-miterlimit="10" x1="408.87" y1="494.68" x2="419.3" y2="491.16"/>
		<line fill="none" stroke="#283331" stroke-width="0.25" stroke-miterlimit="10" x1="409.5" y1="496.54" x2="419.93" y2="493.02"/>
		<line fill="none" stroke="#283331" stroke-width="0.25" stroke-miterlimit="10" x1="410.13" y1="498.4" x2="420.55" y2="494.89"/>
		
			<line fill="none" stroke="#283331" stroke-width="0.25" stroke-miterlimit="10" x1="410.76" y1="500.27" x2="421.18" y2="496.75"/>
		
			<line fill="none" stroke="#283331" stroke-width="0.25" stroke-miterlimit="10" x1="421.81" y1="498.62" x2="411.39" y2="502.13"/>
		
			<line fill="none" stroke="#283331" stroke-width="0.25" stroke-miterlimit="10" x1="407.61" y1="490.93" x2="418.04" y2="487.42"/>
		
			<line fill="none" stroke="#283331" stroke-width="0.25" stroke-miterlimit="10" x1="407.03" y1="489.21" x2="417.45" y2="485.69"/>
		
			<line fill="none" stroke="#283331" stroke-width="0.25" stroke-miterlimit="10" x1="406.43" y1="487.43" x2="416.85" y2="483.91"/>
		
			<line fill="none" stroke="#283331" stroke-width="0.25" stroke-miterlimit="10" x1="405.84" y1="485.67" x2="416.26" y2="482.16"/>
		
			<line fill="none" stroke="#283331" stroke-width="0.25" stroke-miterlimit="10" x1="405.23" y1="483.87" x2="415.65" y2="480.36"/>
		<line fill="none" stroke="#283331" stroke-width="0.25" stroke-miterlimit="10" x1="404.58" y1="481.93" x2="415" y2="478.42"/>
		<line fill="none" stroke="#283331" stroke-width="0.25" stroke-miterlimit="10" x1="403.98" y1="480.16" x2="414.4" y2="476.64"/>
	</g>
	<polyline fill="#B5B5B6" stroke="#283331" stroke-miterlimit="10" points="458.08,198.35 458.08,182.8 620.65,182.8 636.15,182.8 
		636.15,167.3 620.65,167.3 620.65,93 713.03,93 713.03,466.82 654.29,466.82 654.29,506.11 462.19,506.11 462.19,478.42 
		394.98,478.42 394.98,506.11 307.33,506.11 307.33,450.5 394.98,450.5 394.98,467.79 462.38,467.79 462.38,450.54 691.09,450.54 
		691.09,192.22 577.14,192.22 577.14,198.35 458.08,198.35 	"/>
	<polyline fill="#B5B5B6" stroke="#283331" stroke-miterlimit="10" points="127.29,219.02 127.29,200.86 185.74,200.86 
		185.74,182.8 313.08,182.8 313.08,198.35 577.14,198.35 577.14,450.5 307.33,450.5 307.33,480.61 185.74,480.61 185.74,219.02 
		127.29,219.02 	"/>
	<polyline fill="#DCDDDD" stroke="#283331" stroke-miterlimit="10" points="560.04,384.56 560.04,219.02 427.63,219.02 
		313.08,219.02 313.08,232.67 249.41,232.67 219.09,232.67 219.09,427.9 307.33,427.9 307.33,384.56 546.51,384.56 	"/>
	<g id="矢印_00000134937419308838802610000009769381300552030892_">
		<path fill="#040000" d="M494.79,207.43l4-3.84l-2.94-0.06l0.29-14.71l-1.96-0.04l-0.29,14.71l-2.94-0.06L494.79,207.43z"/>
		<path fill="#040000" d="M495.2,187.05l-4,3.84l2.94,0.06l-0.29,14.71l1.96,0.04l0.29-14.71l2.94,0.06L495.2,187.05z"/>
	</g>
	<g id="矢印_00000111891373794203537560000014162577175614279867_">
		<path fill="#040000" d="M384.8,460.69l4-3.84l-2.94-0.06l0.29-14.71l-1.96-0.04l-0.29,14.71l-2.94-0.06L384.8,460.69z"/>
		<path fill="#040000" d="M385.2,440.31l-4,3.84l2.94,0.06l-0.29,14.71l1.96,0.04l0.29-14.71l2.94,0.06L385.2,440.31z"/>
	</g>
	<g id="矢印_00000086681061681913868580000000592518892064945824_">
		<path fill="#040000" d="M297.18,469.79l3.84,4l0.06-2.94l14.71,0.29l0.04-1.96l-14.71-0.29l0.06-2.94L297.18,469.79z"/>
		<path fill="#040000" d="M317.56,470.19l-3.84-4l-0.06,2.94l-14.71-0.29l-0.04,1.96l14.71,0.29l-0.06,2.94L317.56,470.19z"/>
	</g>
	<polyline fill="#DCDDDD" stroke="#283331" stroke-miterlimit="10" points="655.6,93 655.6,182.8 713.03,182.8 713.03,93 655.6,93 	
		"/>
	<line fill="none" stroke="#283331" stroke-width="0.25" stroke-miterlimit="10" x1="713.03" y1="93" x2="655.6" y2="182.8"/>
	<line fill="none" stroke="#283331" stroke-width="0.25" stroke-miterlimit="10" x1="655.6" y1="93.49" x2="713.03" y2="182.8"/>
</g>
<g id="男性用トイレ">
	<polyline fill="#54C3F1" stroke="#283331" stroke-miterlimit="10" points="458.08,182.8 476.45,182.8 476.45,93 458.08,93 
		458.08,182.8 	"/>
</g>
<g id="女性用トイレ">
	<polyline fill="#F19899" stroke="#283331" stroke-miterlimit="10" points="440.42,198.35 458.08,198.35 458.08,93 440.42,93 
		440.42,198.35 	"/>
	<polygon fill="#F19899" stroke="#283331" stroke-miterlimit="10" points="691.09,466.9 654.29,466.82 654.29,506.11 691.09,506.11 
			"/>
</g>
<g id="使用不可能教室等">
	<rect x="313.08" y="121.82" fill="#929292" stroke="#283331" stroke-miterlimit="10" width="63.67" height="76.53"/>
	<rect x="249.41" y="106.27" fill="#929292" stroke="#283331" stroke-miterlimit="10" width="63.67" height="76.53"/>
	<rect x="185.74" y="106.27" fill="#929292" stroke="#283331" stroke-miterlimit="10" width="63.67" height="76.53"/>
	<rect x="127.29" y="219.02" fill="#929292" stroke="#283331" stroke-miterlimit="10" width="58.44" height="82.1"/>
	<rect x="127.29" y="121.82" fill="#929292" stroke="#283331" stroke-miterlimit="10" width="58.44" height="79.04"/>
	<rect x="249.41" y="232.67" fill="#929292" stroke="#283331" stroke-miterlimit="10" width="63.67" height="68.45"/>
	<rect x="376.75" y="121.82" fill="#929292" stroke="#283331" stroke-miterlimit="10" width="63.67" height="76.53"/>
	<rect x="313.08" y="219.02" fill="#929292" stroke="#283331" stroke-miterlimit="10" width="81.9" height="74.19"/>
	<rect x="394.98" y="219.02" fill="#929292" stroke="#283331" stroke-miterlimit="10" width="32.65" height="74.19"/>
	<polyline fill="#929292" stroke="#283331" stroke-miterlimit="10" points="185.74,348.77 86.97,348.77 86.97,507 185.74,507 
		185.74,348.77 	"/>
	<rect x="577.14" y="192.22" fill="#929292" stroke="#283331" stroke-miterlimit="10" width="113.95" height="10.11"/>
</g>
<g id="階段">
	<g>
		<polygon fill="#5C5A5A" points="230.96,210.17 236.16,223.43 249.12,223.43 249.12,210.17 		"/>
		<polyline fill="none" stroke="#283331" stroke-miterlimit="10" points="218.01,223.43 249.12,223.43 249.12,210.17 217.57,210.17 
					"/>
		
			<line fill="none" stroke="#283331" stroke-width="0.25" stroke-miterlimit="10" x1="230.96" y1="210.17" x2="230.96" y2="223.43"/>
		
			<line fill="none" stroke="#283331" stroke-width="0.25" stroke-miterlimit="10" x1="228.58" y1="210.17" x2="228.58" y2="223.43"/>
		
			<line fill="none" stroke="#283331" stroke-width="0.25" stroke-miterlimit="10" x1="226.21" y1="210.17" x2="226.21" y2="223.43"/>
		
			<line fill="none" stroke="#283331" stroke-width="0.25" stroke-miterlimit="10" x1="223.84" y1="210.17" x2="223.84" y2="223.43"/>
		
			<line fill="none" stroke="#283331" stroke-width="0.25" stroke-miterlimit="10" x1="221.47" y1="210.17" x2="221.47" y2="223.43"/>
		
			<line fill="none" stroke="#283331" stroke-width="0.25" stroke-miterlimit="10" x1="219.09" y1="210.17" x2="219.09" y2="223.43"/>
	</g>
	<g>
		<polygon fill="#5C5A5A" points="713.03,478 702.03,482.32 702.03,493.07 713.03,493.07 		"/>
		<polyline fill="none" stroke="#283331" stroke-miterlimit="10" points="702.03,467.27 702.03,493.07 713.03,493.07 713.03,466.9 
					"/>
		<line fill="none" stroke="#283331" stroke-width="0.25" stroke-miterlimit="10" x1="713.03" y1="478" x2="702.03" y2="478"/>
		
			<line fill="none" stroke="#283331" stroke-width="0.25" stroke-miterlimit="10" x1="713.03" y1="476.04" x2="702.03" y2="476.04"/>
		
			<line fill="none" stroke="#283331" stroke-width="0.25" stroke-miterlimit="10" x1="713.03" y1="474.07" x2="702.03" y2="474.07"/>
		<line fill="none" stroke="#283331" stroke-width="0.25" stroke-miterlimit="10" x1="713.03" y1="472.1" x2="702.03" y2="472.1"/>
		
			<line fill="none" stroke="#283331" stroke-width="0.25" stroke-miterlimit="10" x1="713.03" y1="470.13" x2="702.03" y2="470.13"/>
		
			<line fill="none" stroke="#283331" stroke-width="0.25" stroke-miterlimit="10" x1="702.03" y1="468.17" x2="713.03" y2="468.17"/>
	</g>
	<g>
		<polyline fill="none" stroke="#283331" stroke-miterlimit="10" points="702.1,466.9 702.1,493.07 691.09,493.07 691.09,467.27 		
			"/>
		<line fill="none" stroke="#283331" stroke-width="0.25" stroke-miterlimit="10" x1="702.1" y1="478" x2="691.09" y2="478"/>
		<line fill="none" stroke="#283331" stroke-width="0.25" stroke-miterlimit="10" x1="702.1" y1="476.04" x2="691.09" y2="476.04"/>
		<line fill="none" stroke="#283331" stroke-width="0.25" stroke-miterlimit="10" x1="702.1" y1="474.07" x2="691.09" y2="474.07"/>
		<line fill="none" stroke="#283331" stroke-width="0.25" stroke-miterlimit="10" x1="702.1" y1="472.1" x2="691.09" y2="472.1"/>
		<line fill="none" stroke="#283331" stroke-width="0.25" stroke-miterlimit="10" x1="702.1" y1="470.13" x2="691.09" y2="470.13"/>
		<line fill="none" stroke="#283331" stroke-width="0.25" stroke-miterlimit="10" x1="691.09" y1="468.17" x2="702.1" y2="468.17"/>
		<line fill="none" stroke="#283331" stroke-width="0.25" stroke-miterlimit="10" x1="702.1" y1="479.98" x2="691.09" y2="479.98"/>
		<line fill="none" stroke="#283331" stroke-width="0.25" stroke-miterlimit="10" x1="702.1" y1="481.81" x2="691.09" y2="481.81"/>
		<line fill="none" stroke="#283331" stroke-width="0.25" stroke-miterlimit="10" x1="702.1" y1="483.68" x2="691.09" y2="483.68"/>
		<line fill="none" stroke="#283331" stroke-width="0.25" stroke-miterlimit="10" x1="702.1" y1="485.54" x2="691.09" y2="485.54"/>
		<line fill="none" stroke="#283331" stroke-width="0.25" stroke-miterlimit="10" x1="702.1" y1="487.44" x2="691.09" y2="487.44"/>
		<line fill="none" stroke="#283331" stroke-width="0.25" stroke-miterlimit="10" x1="702.1" y1="489.48" x2="691.09" y2="489.48"/>
		<line fill="none" stroke="#283331" stroke-width="0.25" stroke-miterlimit="10" x1="702.1" y1="491.36" x2="691.09" y2="491.36"/>
	</g>
	<g>
		<polyline fill="none" stroke="#283331" stroke-miterlimit="10" points="206.57,507 206.57,480.84 217.57,480.84 217.57,506.63 		
			"/>
		<line fill="none" stroke="#283331" stroke-width="0.25" stroke-miterlimit="10" x1="206.57" y1="495.9" x2="217.57" y2="495.9"/>
		
			<line fill="none" stroke="#283331" stroke-width="0.25" stroke-miterlimit="10" x1="206.57" y1="497.87" x2="217.57" y2="497.87"/>
		
			<line fill="none" stroke="#283331" stroke-width="0.25" stroke-miterlimit="10" x1="206.57" y1="499.83" x2="217.57" y2="499.83"/>
		<line fill="none" stroke="#283331" stroke-width="0.25" stroke-miterlimit="10" x1="206.57" y1="501.8" x2="217.57" y2="501.8"/>
		
			<line fill="none" stroke="#283331" stroke-width="0.25" stroke-miterlimit="10" x1="206.57" y1="503.77" x2="217.57" y2="503.77"/>
		
			<line fill="none" stroke="#283331" stroke-width="0.25" stroke-miterlimit="10" x1="217.57" y1="505.74" x2="206.57" y2="505.74"/>
		
			<line fill="none" stroke="#283331" stroke-width="0.25" stroke-miterlimit="10" x1="206.57" y1="493.92" x2="217.57" y2="493.92"/>
		<line fill="none" stroke="#283331" stroke-width="0.25" stroke-miterlimit="10" x1="206.57" y1="492.1" x2="217.57" y2="492.1"/>
		
			<line fill="none" stroke="#283331" stroke-width="0.25" stroke-miterlimit="10" x1="206.57" y1="490.22" x2="217.57" y2="490.22"/>
		
			<line fill="none" stroke="#283331" stroke-width="0.25" stroke-miterlimit="10" x1="206.57" y1="488.37" x2="217.57" y2="488.37"/>
		
			<line fill="none" stroke="#283331" stroke-width="0.25" stroke-miterlimit="10" x1="206.57" y1="486.47" x2="217.57" y2="486.47"/>
		
			<line fill="none" stroke="#283331" stroke-width="0.25" stroke-miterlimit="10" x1="206.57" y1="484.42" x2="217.57" y2="484.42"/>
		
			<line fill="none" stroke="#283331" stroke-width="0.25" stroke-miterlimit="10" x1="206.57" y1="482.54" x2="217.57" y2="482.54"/>
	</g>
	<g>
		<polyline fill="none" stroke="#283331" stroke-miterlimit="10" points="217.68,196.7 249.01,196.7 249.01,209.88 218.12,209.88 		
			"/>
		<line fill="none" stroke="#283331" stroke-width="0.25" stroke-miterlimit="10" x1="230.97" y1="196.7" x2="230.97" y2="209.88"/>
		<line fill="none" stroke="#283331" stroke-width="0.25" stroke-miterlimit="10" x1="228.62" y1="196.7" x2="228.62" y2="209.88"/>
		<line fill="none" stroke="#283331" stroke-width="0.25" stroke-miterlimit="10" x1="226.26" y1="196.7" x2="226.26" y2="209.88"/>
		<line fill="none" stroke="#283331" stroke-width="0.25" stroke-miterlimit="10" x1="223.9" y1="196.7" x2="223.9" y2="209.88"/>
		<line fill="none" stroke="#283331" stroke-width="0.25" stroke-miterlimit="10" x1="221.55" y1="196.7" x2="221.55" y2="209.88"/>
		<line fill="none" stroke="#283331" stroke-width="0.25" stroke-miterlimit="10" x1="219.19" y1="209.88" x2="219.19" y2="196.7"/>
		<line fill="none" stroke="#283331" stroke-width="0.25" stroke-miterlimit="10" x1="233.34" y1="196.7" x2="233.34" y2="209.88"/>
		<line fill="none" stroke="#283331" stroke-width="0.25" stroke-miterlimit="10" x1="235.53" y1="196.7" x2="235.53" y2="209.88"/>
		<line fill="none" stroke="#283331" stroke-width="0.25" stroke-miterlimit="10" x1="237.77" y1="196.7" x2="237.77" y2="209.88"/>
		<line fill="none" stroke="#283331" stroke-width="0.25" stroke-miterlimit="10" x1="239.99" y1="196.7" x2="239.99" y2="209.88"/>
		<line fill="none" stroke="#283331" stroke-width="0.25" stroke-miterlimit="10" x1="242.27" y1="196.7" x2="242.27" y2="209.88"/>
		<line fill="none" stroke="#283331" stroke-width="0.25" stroke-miterlimit="10" x1="244.72" y1="196.7" x2="244.72" y2="209.88"/>
		<line fill="none" stroke="#283331" stroke-width="0.25" stroke-miterlimit="10" x1="246.97" y1="196.7" x2="246.97" y2="209.88"/>
	</g>
	<g>
		<polyline fill="none" stroke="#283331" stroke-miterlimit="10" points="546.87,385.2 546.87,353.87 560.04,353.87 560.04,384.76 
					"/>
		<line fill="none" stroke="#283331" stroke-width="0.25" stroke-miterlimit="10" x1="546.87" y1="371.9" x2="560.04" y2="371.9"/>
		
			<line fill="none" stroke="#283331" stroke-width="0.25" stroke-miterlimit="10" x1="546.87" y1="374.26" x2="560.04" y2="374.26"/>
		
			<line fill="none" stroke="#283331" stroke-width="0.25" stroke-miterlimit="10" x1="546.87" y1="376.62" x2="560.04" y2="376.62"/>
		
			<line fill="none" stroke="#283331" stroke-width="0.25" stroke-miterlimit="10" x1="546.87" y1="378.97" x2="560.04" y2="378.97"/>
		
			<line fill="none" stroke="#283331" stroke-width="0.25" stroke-miterlimit="10" x1="546.87" y1="381.33" x2="560.04" y2="381.33"/>
		
			<line fill="none" stroke="#283331" stroke-width="0.25" stroke-miterlimit="10" x1="560.04" y1="383.69" x2="546.87" y2="383.69"/>
		
			<line fill="none" stroke="#283331" stroke-width="0.25" stroke-miterlimit="10" x1="546.87" y1="369.53" x2="560.04" y2="369.53"/>
		
			<line fill="none" stroke="#283331" stroke-width="0.25" stroke-miterlimit="10" x1="546.87" y1="367.35" x2="560.04" y2="367.35"/>
		<line fill="none" stroke="#283331" stroke-width="0.25" stroke-miterlimit="10" x1="546.87" y1="365.1" x2="560.04" y2="365.1"/>
		
			<line fill="none" stroke="#283331" stroke-width="0.25" stroke-miterlimit="10" x1="546.87" y1="362.88" x2="560.04" y2="362.88"/>
		
			<line fill="none" stroke="#283331" stroke-width="0.25" stroke-miterlimit="10" x1="546.87" y1="360.61" x2="560.04" y2="360.61"/>
		
			<line fill="none" stroke="#283331" stroke-width="0.25" stroke-miterlimit="10" x1="546.87" y1="358.16" x2="560.04" y2="358.16"/>
		
			<line fill="none" stroke="#283331" stroke-width="0.25" stroke-miterlimit="10" x1="546.87" y1="355.91" x2="560.04" y2="355.91"/>
	</g>
	<g>
		<polygon fill="#5C5A5A" points="620.65,116.94 638.12,110.09 638.12,93.02 620.65,93.02 		"/>
		<polyline fill="none" stroke="#283331" stroke-miterlimit="10" points="638.12,133.99 638.12,93.02 620.65,93.02 620.65,134.57 		
			"/>
		
			<line fill="none" stroke="#283331" stroke-width="0.25" stroke-miterlimit="10" x1="620.65" y1="116.94" x2="638.12" y2="116.94"/>
		
			<line fill="none" stroke="#283331" stroke-width="0.25" stroke-miterlimit="10" x1="620.65" y1="120.06" x2="638.12" y2="120.06"/>
		
			<line fill="none" stroke="#283331" stroke-width="0.25" stroke-miterlimit="10" x1="620.65" y1="123.19" x2="638.12" y2="123.19"/>
		
			<line fill="none" stroke="#283331" stroke-width="0.25" stroke-miterlimit="10" x1="620.65" y1="126.31" x2="638.12" y2="126.31"/>
		
			<line fill="none" stroke="#283331" stroke-width="0.25" stroke-miterlimit="10" x1="620.65" y1="129.44" x2="638.12" y2="129.44"/>
		
			<line fill="none" stroke="#283331" stroke-width="0.25" stroke-miterlimit="10" x1="620.65" y1="132.56" x2="638.12" y2="132.56"/>
	</g>
	<g>
		<polyline fill="none" stroke="#283331" stroke-miterlimit="10" points="638.12,134.55 638.12,93 655.6,93 655.6,133.97 		"/>
		<line fill="none" stroke="#283331" stroke-width="0.25" stroke-miterlimit="10" x1="638.12" y1="116.92" x2="655.6" y2="116.92"/>
		<line fill="none" stroke="#283331" stroke-width="0.25" stroke-miterlimit="10" x1="638.12" y1="120.04" x2="655.6" y2="120.04"/>
		<line fill="none" stroke="#283331" stroke-width="0.25" stroke-miterlimit="10" x1="638.12" y1="123.17" x2="655.6" y2="123.17"/>
		<line fill="none" stroke="#283331" stroke-width="0.25" stroke-miterlimit="10" x1="638.12" y1="126.29" x2="655.6" y2="126.29"/>
		<line fill="none" stroke="#283331" stroke-width="0.25" stroke-miterlimit="10" x1="638.12" y1="129.42" x2="655.6" y2="129.42"/>
		<line fill="none" stroke="#283331" stroke-width="0.25" stroke-miterlimit="10" x1="655.6" y1="132.54" x2="638.12" y2="132.54"/>
		<line fill="none" stroke="#283331" stroke-width="0.25" stroke-miterlimit="10" x1="638.12" y1="113.77" x2="655.6" y2="113.77"/>
		<line fill="none" stroke="#283331" stroke-width="0.25" stroke-miterlimit="10" x1="638.12" y1="110.88" x2="655.6" y2="110.88"/>
		<line fill="none" stroke="#283331" stroke-width="0.25" stroke-miterlimit="10" x1="638.12" y1="107.9" x2="655.6" y2="107.9"/>
		<line fill="none" stroke="#283331" stroke-width="0.25" stroke-miterlimit="10" x1="638.12" y1="104.96" x2="655.6" y2="104.96"/>
		<line fill="none" stroke="#283331" stroke-width="0.25" stroke-miterlimit="10" x1="638.12" y1="101.94" x2="655.6" y2="101.94"/>
		<line fill="none" stroke="#283331" stroke-width="0.25" stroke-miterlimit="10" x1="638.12" y1="98.69" x2="655.6" y2="98.69"/>
		<line fill="none" stroke="#283331" stroke-width="0.25" stroke-miterlimit="10" x1="638.12" y1="95.71" x2="655.6" y2="95.71"/>
	</g>
</g>
<g id="トイレマーク">
	<g id="男女_00000163055238113385682580000003052031051972624515_">
		<path fill="#FFFFFF" d="M467.46,133.47c1.77,0,3.21-1.44,3.21-3.21s-1.44-3.21-3.21-3.21c-1.77,0-3.21,1.44-3.21,3.21
			S465.68,133.47,467.46,133.47z"/>
		<path fill="#FFFFFF" d="M470.46,135.26h-3.01h-3.01c-0.68,0-1.31,0.34-1.69,0.91c-0.37,0.57-0.44,1.28-0.17,1.91l4.4,10.36
			c0.08,0.19,0.26,0.31,0.47,0.31c0.2,0,0.39-0.12,0.47-0.31l4.4-10.36c0.27-0.62,0.2-1.34-0.17-1.91
			C471.78,135.6,471.14,135.26,470.46,135.26z"/>
	</g>
	<g id="男女_00000013890565084325593260000004896884406664912516_">
		<path fill="#FFFFFF" d="M672.69,481.11c1.77,0,3.21-1.44,3.21-3.21s-1.44-3.21-3.21-3.21s-3.21,1.44-3.21,3.21
			S670.92,481.11,672.69,481.11z"/>
		<path fill="#FFFFFF" d="M677.56,493.57l-4.4-10.36c-0.08-0.19-0.26-0.31-0.47-0.31s-0.39,0.12-0.47,0.31l-4.4,10.36
			c-0.27,0.62-0.2,1.34,0.17,1.91c0.37,0.57,1.01,0.91,1.69,0.91h3.01h3.01c0.68,0,1.31-0.34,1.69-0.91
			C677.76,494.91,677.83,494.19,677.56,493.57z"/>
	</g>
	<g id="男女_00000003790590595788226670000002672413336646232469_">
		<path fill="#FFFFFF" d="M448.76,133.58c1.77,0,3.21-1.44,3.21-3.21c0-1.77-1.44-3.21-3.21-3.21c-1.77,0-3.21,1.44-3.21,3.21
			C445.55,132.14,446.98,133.58,448.76,133.58z"/>
		<path fill="#FFFFFF" d="M453.63,146.03l-4.4-10.36c-0.08-0.19-0.26-0.31-0.47-0.31c-0.2,0-0.39,0.12-0.47,0.31l-4.4,10.36
			c-0.27,0.62-0.2,1.34,0.17,1.91c0.37,0.57,1.01,0.91,1.69,0.91h3.01h3.01c0.68,0,1.31-0.34,1.69-0.91
			C453.83,147.38,453.89,146.66,453.63,146.03z"/>
	</g>
</g>
<g id="MLOC-available">
	<rect id="room210f" x="476.49" y="93" fill="#AADDF7" stroke="#283331" stroke-miterlimit="10" width="144.16" height="89.8"/>
	
		<rect id="room220f" x="577.14" y="202.33" fill="#AADDF7" stroke="#283331" stroke-miterlimit="10" width="113.95" height="74.79"/>
	<rect id="room230f" x="577.14" y="276.63" fill="#AADDF7" stroke="#283331" stroke-miterlimit="10" width="113.95" height="99.6"/>
	
		<rect id="room240f" x="577.14" y="375.75" fill="#AADDF7" stroke="#283331" stroke-miterlimit="10" width="113.95" height="74.79"/>
</g>
<g id="MNOINT-word">
	<text transform="matrix(1 0 0 1 621.0821 179.7962)" font-family="'KozGoPr6N-Regular-83pv-RKSJ-H'" font-size="12px">EV</text>
	<text transform="matrix(1 0 0 1 127.2901 133.4745)" font-family="'KozGoPr6N-Regular-83pv-RKSJ-H'" font-size="12px">202</text>
	<text transform="matrix(1 0 0 1 111.4537 433.8229)"><tspan x="0" y="0" font-family="'KozGoPr6N-Regular-83pv-RKSJ-H'" font-size="20px">A</tspan><tspan x="13.12" y="0" font-family="'KozGoPr6N-Regular-83pv-RKSJ-H'" font-size="20px" letter-spacing="5">V</tspan><tspan x="30" y="0" font-family="'KozGoPr6N-Regular-83pv-RKSJ-H'" font-size="20px">棟</tspan></text>
	<text transform="matrix(1 0 0 1 488.9888 485.387)" font-family="'KozGoPr6N-Regular-83pv-RKSJ-H'" font-size="20px">ロッカールーム</text>
	<text transform="matrix(1 0 0 1 188.2451 117.2827)" font-family="'KozGoPr6N-Regular-83pv-RKSJ-H'" font-size="12px">203</text>
	<text transform="matrix(1 0 0 1 251.6008 117.4269)" font-family="'KozGoPr6N-Regular-83pv-RKSJ-H'" font-size="12px">204</text>
	<text transform="matrix(1 0 0 1 315.8328 133.4743)" font-family="'KozGoPr6N-Regular-83pv-RKSJ-H'" font-size="12px">205</text>
	<text transform="matrix(1 0 0 1 377.748 133.6182)" font-family="'KozGoPr6N-Regular-83pv-RKSJ-H'" font-size="12px">206</text>
	<text transform="matrix(1 0 0 1 397.1285 230.1384)" font-family="'KozGoPr6N-Regular-83pv-RKSJ-H'" font-size="12px">207</text>
	<text transform="matrix(1 0 0 1 314.0769 230.2823)" font-family="'KozGoPr6N-Regular-83pv-RKSJ-H'" font-size="12px">208</text>
	<text transform="matrix(1 0 0 1 251.1883 243.7452)" font-family="'KozGoPr6N-Regular-83pv-RKSJ-H'" font-size="12px">209</text>
	<text transform="matrix(1 0 0 1 130.0147 230.1384)" font-family="'KozGoPr6N-Regular-83pv-RKSJ-H'" font-size="12px">201</text>
	<text transform="matrix(1 0 0 1 477.4712 104.0706)" font-family="'KozGoPr6N-Regular-83pv-RKSJ-H'" font-size="12px">210</text>
	<text transform="matrix(1 0 0 1 578.1445 213.721)" font-family="'KozGoPr6N-Regular-83pv-RKSJ-H'" font-size="12px">220</text>
	<text transform="matrix(1 0 0 1 578.6812 288.0369)" font-family="'KozGoPr6N-Regular-83pv-RKSJ-H'" font-size="12px">230</text>
	<text transform="matrix(1 0 0 1 579.2693 387.7096)" font-family="'KozGoPr6N-Regular-83pv-RKSJ-H'" font-size="12px">240</text>
	<text transform="matrix(1 0 0 1 521.8681 133.7622)"><tspan x="0" y="0" font-family="'HiraginoSans-W5-83pv-RKSJ-H'" font-size="10px">硬式庭球部</tspan><tspan x="-10" y="17.5" font-family="'HiraginoSans-W5-83pv-RKSJ-H'" font-size="10px">バドミントン部</tspan></text>
	<text transform="matrix(1 0 0 1 614.1188 234.6008)"><tspan x="0" y="0" font-family="'HiraginoSans-W5-83pv-RKSJ-H'" font-size="10px">劇団時計</tspan><tspan x="5.42" y="17.5" font-family="'HiraginoSans-W5-83pv-RKSJ-H'" font-size="10px">Dolce</tspan></text>
	<text transform="matrix(1 0 0 1 612.2041 306.4685)"><tspan x="0" y="0" font-family="'HiraginoSans-W5-83pv-RKSJ-H'" font-size="10px">skyhand</tspan><tspan x="6.92" y="17.5" font-family="'HiraginoSans-W5-83pv-RKSJ-H'" font-size="10px">星泳会</tspan><tspan x="-13.02" y="35" font-family="'HiraginoSans-W5-83pv-RKSJ-H'" font-size="10px" letter-spacing="2">B</tspan><tspan x="-3.15" y="35" font-family="'HiraginoSans-W5-83pv-RKSJ-H'" font-size="10px">類サッカー部</tspan><tspan x="-33.02" y="52.5" font-family="'HiraginoSans-W5-83pv-RKSJ-H'" font-size="10px" letter-spacing="2">B</tspan><tspan x="-23.15" y="52.5" font-family="'HiraginoSans-W5-83pv-RKSJ-H'" font-size="10px">類バスケットボール部</tspan></text>
	<text transform="matrix(1 0 0 1 623.8193 409.4238)"><tspan x="0" y="0" font-family="'HiraginoSans-W5-83pv-RKSJ-H'" font-size="10px">ESS</tspan><tspan x="-4.37" y="17.5" font-family="'HiraginoSans-W5-83pv-RKSJ-H'" font-size="10px">J-Boy</tspan></text>
</g>
</svg>
