<?xml version="1.0" encoding="utf-8"?>
<svg version="1.1" id="booking-example" xmlns="http://www.w3.org/2000/svg" xmlns:xlink="http://www.w3.org/1999/xlink" x="0px" y="0px"
	 width="600px" height="500px" viewBox="0 0 600 500" enable-background="new 0 0 600 500" xml:space="preserve">
<g id="landmarks-seats">
	<g id="a1">
		<path fill="#AAAAAA" d="M116,80h-16c-1.1,0-2-0.9-2-2V62c0-1.1,0.9-2,2-2h16c1.1,0,2,0.9,2,2v16C118,79.1,117.1,80,116,80z"/>
	</g>
	<g id="a2">
		<path fill="#AAAAAA" d="M146,80h-16c-1.1,0-2-0.9-2-2V62c0-1.1,0.9-2,2-2h16c1.1,0,2,0.9,2,2v16C148,79.1,147.1,80,146,80z"/>
	</g>
	<g id="a3">
		<path fill="#AAAAAA" d="M176,80h-16c-1.1,0-2-0.9-2-2V62c0-1.1,0.9-2,2-2h16c1.1,0,2,0.9,2,2v16C178,79.1,177.1,80,176,80z"/>
	</g>
	<g id="a4">
		<path fill="#AAAAAA" d="M206,80h-16c-1.1,0-2-0.9-2-2V62c0-1.1,0.9-2,2-2h16c1.1,0,2,0.9,2,2v16C208,79.1,207.1,80,206,80z"/>
	</g>
	<g id="a5">
		<path fill="#AAAAAA" d="M236,80h-16c-1.1,0-2-0.9-2-2V62c0-1.1,0.9-2,2-2h16c1.1,0,2,0.9,2,2v16C238,79.1,237.1,80,236,80z"/>
	</g>
	<g id="a6">
		<path fill="#AAAAAA" d="M266,80h-16c-1.1,0-2-0.9-2-2V62c0-1.1,0.9-2,2-2h16c1.1,0,2,0.9,2,2v16C268,79.1,267.1,80,266,80z"/>
	</g>
	<g id="a7">
		<path fill="#AAAAAA" d="M356,80h-16c-1.1,0-2-0.9-2-2V62c0-1.1,0.9-2,2-2h16c1.1,0,2,0.9,2,2v16C358,79.1,357.1,80,356,80z"/>
	</g>
	<g id="a8">
		<path fill="#AAAAAA" d="M386,80h-16c-1.1,0-2-0.9-2-2V62c0-1.1,0.9-2,2-2h16c1.1,0,2,0.9,2,2v16C388,79.1,387.1,80,386,80z"/>
	</g>
	<g id="a9">
		<path fill="#AAAAAA" d="M416,80h-16c-1.1,0-2-0.9-2-2V62c0-1.1,0.9-2,2-2h16c1.1,0,2,0.9,2,2v16C418,79.1,417.1,80,416,80z"/>
	</g>
	<g id="a10">
		<path fill="#AAAAAA" d="M446,80h-16c-1.1,0-2-0.9-2-2V62c0-1.1,0.9-2,2-2h16c1.1,0,2,0.9,2,2v16C448,79.1,447.1,80,446,80z"/>
	</g>
	<g id="a11">
		<path fill="#AAAAAA" d="M476,80h-16c-1.1,0-2-0.9-2-2V62c0-1.1,0.9-2,2-2h16c1.1,0,2,0.9,2,2v16C478,79.1,477.1,80,476,80z"/>
	</g>
	<g id="a12">
		<path fill="#AAAAAA" d="M506,80h-16c-1.1,0-2-0.9-2-2V62c0-1.1,0.9-2,2-2h16c1.1,0,2,0.9,2,2v16C508,79.1,507.1,80,506,80z"/>
	</g>
	<g id="b1">
		<path fill="#AAAAAA" d="M116,110h-16c-1.1,0-2-0.9-2-2V92c0-1.1,0.9-2,2-2h16c1.1,0,2,0.9,2,2v16C118,109.1,117.1,110,116,110z"/>
	</g>
	<g id="b2">
		<path fill="#AAAAAA" d="M146,110h-16c-1.1,0-2-0.9-2-2V92c0-1.1,0.9-2,2-2h16c1.1,0,2,0.9,2,2v16C148,109.1,147.1,110,146,110z"/>
	</g>
	<g id="b3">
		<path fill="#AAAAAA" d="M176,110h-16c-1.1,0-2-0.9-2-2V92c0-1.1,0.9-2,2-2h16c1.1,0,2,0.9,2,2v16C178,109.1,177.1,110,176,110z"/>
	</g>
	<g id="b4">
		<path fill="#AAAAAA" d="M206,110h-16c-1.1,0-2-0.9-2-2V92c0-1.1,0.9-2,2-2h16c1.1,0,2,0.9,2,2v16C208,109.1,207.1,110,206,110z"/>
	</g>
	<g id="b5">
		<path fill="#AAAAAA" d="M236,110h-16c-1.1,0-2-0.9-2-2V92c0-1.1,0.9-2,2-2h16c1.1,0,2,0.9,2,2v16C238,109.1,237.1,110,236,110z"/>
	</g>
	<g id="b6">
		<path fill="#AAAAAA" d="M266,110h-16c-1.1,0-2-0.9-2-2V92c0-1.1,0.9-2,2-2h16c1.1,0,2,0.9,2,2v16C268,109.1,267.1,110,266,110z"/>
	</g>
	<g id="b7">
		<path fill="#AAAAAA" d="M356,110h-16c-1.1,0-2-0.9-2-2V92c0-1.1,0.9-2,2-2h16c1.1,0,2,0.9,2,2v16C358,109.1,357.1,110,356,110z"/>
	</g>
	<g id="b8">
		<path fill="#AAAAAA" d="M386,110h-16c-1.1,0-2-0.9-2-2V92c0-1.1,0.9-2,2-2h16c1.1,0,2,0.9,2,2v16C388,109.1,387.1,110,386,110z"/>
	</g>
	<g id="b9">
		<path fill="#AAAAAA" d="M416,110h-16c-1.1,0-2-0.9-2-2V92c0-1.1,0.9-2,2-2h16c1.1,0,2,0.9,2,2v16C418,109.1,417.1,110,416,110z"/>
	</g>
	<g id="b10">
		<path fill="#AAAAAA" d="M446,110h-16c-1.1,0-2-0.9-2-2V92c0-1.1,0.9-2,2-2h16c1.1,0,2,0.9,2,2v16C448,109.1,447.1,110,446,110z"/>
	</g>
	<g id="b11">
		<path fill="#AAAAAA" d="M476,110h-16c-1.1,0-2-0.9-2-2V92c0-1.1,0.9-2,2-2h16c1.1,0,2,0.9,2,2v16C478,109.1,477.1,110,476,110z"/>
	</g>
	<g id="b12">
		<path fill="#AAAAAA" d="M506,110h-16c-1.1,0-2-0.9-2-2V92c0-1.1,0.9-2,2-2h16c1.1,0,2,0.9,2,2v16C508,109.1,507.1,110,506,110z"/>
	</g>
	<g id="c1">
		<path fill="#AAAAAA" d="M116,140h-16c-1.1,0-2-0.9-2-2v-16c0-1.1,0.9-2,2-2h16c1.1,0,2,0.9,2,2v16C118,139.1,117.1,140,116,140z"
			/>
	</g>
	<g id="c2">
		<path fill="#AAAAAA" d="M146,140h-16c-1.1,0-2-0.9-2-2v-16c0-1.1,0.9-2,2-2h16c1.1,0,2,0.9,2,2v16C148,139.1,147.1,140,146,140z"
			/>
	</g>
	<g id="c3">
		<path fill="#AAAAAA" d="M176,140h-16c-1.1,0-2-0.9-2-2v-16c0-1.1,0.9-2,2-2h16c1.1,0,2,0.9,2,2v16C178,139.1,177.1,140,176,140z"
			/>
	</g>
	<g id="c4">
		<path fill="#AAAAAA" d="M206,140h-16c-1.1,0-2-0.9-2-2v-16c0-1.1,0.9-2,2-2h16c1.1,0,2,0.9,2,2v16C208,139.1,207.1,140,206,140z"
			/>
	</g>
	<g id="c5">
		<path fill="#AAAAAA" d="M236,140h-16c-1.1,0-2-0.9-2-2v-16c0-1.1,0.9-2,2-2h16c1.1,0,2,0.9,2,2v16C238,139.1,237.1,140,236,140z"
			/>
	</g>
	<g id="c6">
		<path fill="#AAAAAA" d="M266,140h-16c-1.1,0-2-0.9-2-2v-16c0-1.1,0.9-2,2-2h16c1.1,0,2,0.9,2,2v16C268,139.1,267.1,140,266,140z"
			/>
	</g>
	<g id="c7">
		<path fill="#AAAAAA" d="M356,140h-16c-1.1,0-2-0.9-2-2v-16c0-1.1,0.9-2,2-2h16c1.1,0,2,0.9,2,2v16C358,139.1,357.1,140,356,140z"
			/>
	</g>
	<g id="c8">
		<path fill="#AAAAAA" d="M386,140h-16c-1.1,0-2-0.9-2-2v-16c0-1.1,0.9-2,2-2h16c1.1,0,2,0.9,2,2v16C388,139.1,387.1,140,386,140z"
			/>
	</g>
	<g id="c9">
		<path fill="#AAAAAA" d="M416,140h-16c-1.1,0-2-0.9-2-2v-16c0-1.1,0.9-2,2-2h16c1.1,0,2,0.9,2,2v16C418,139.1,417.1,140,416,140z"
			/>
	</g>
	<g id="c10">
		<path fill="#AAAAAA" d="M446,140h-16c-1.1,0-2-0.9-2-2v-16c0-1.1,0.9-2,2-2h16c1.1,0,2,0.9,2,2v16C448,139.1,447.1,140,446,140z"
			/>
	</g>
	<g id="c11">
		<path fill="#AAAAAA" d="M476,140h-16c-1.1,0-2-0.9-2-2v-16c0-1.1,0.9-2,2-2h16c1.1,0,2,0.9,2,2v16C478,139.1,477.1,140,476,140z"
			/>
	</g>
	<g id="c12">
		<path fill="#AAAAAA" d="M506,140h-16c-1.1,0-2-0.9-2-2v-16c0-1.1,0.9-2,2-2h16c1.1,0,2,0.9,2,2v16C508,139.1,507.1,140,506,140z"
			/>
	</g>
	<g id="d1">
		<path fill="#AAAAAA" d="M116,170h-16c-1.1,0-2-0.9-2-2v-16c0-1.1,0.9-2,2-2h16c1.1,0,2,0.9,2,2v16C118,169.1,117.1,170,116,170z"
			/>
	</g>
	<g id="d2">
		<path fill="#AAAAAA" d="M146,170h-16c-1.1,0-2-0.9-2-2v-16c0-1.1,0.9-2,2-2h16c1.1,0,2,0.9,2,2v16C148,169.1,147.1,170,146,170z"
			/>
	</g>
	<g id="d3">
		<path fill="#AAAAAA" d="M176,170h-16c-1.1,0-2-0.9-2-2v-16c0-1.1,0.9-2,2-2h16c1.1,0,2,0.9,2,2v16C178,169.1,177.1,170,176,170z"
			/>
	</g>
	<g id="d4">
		<path fill="#AAAAAA" d="M206,170h-16c-1.1,0-2-0.9-2-2v-16c0-1.1,0.9-2,2-2h16c1.1,0,2,0.9,2,2v16C208,169.1,207.1,170,206,170z"
			/>
	</g>
	<g id="d5">
		<path fill="#AAAAAA" d="M236,170h-16c-1.1,0-2-0.9-2-2v-16c0-1.1,0.9-2,2-2h16c1.1,0,2,0.9,2,2v16C238,169.1,237.1,170,236,170z"
			/>
	</g>
	<g id="d6">
		<path fill="#AAAAAA" d="M266,170h-16c-1.1,0-2-0.9-2-2v-16c0-1.1,0.9-2,2-2h16c1.1,0,2,0.9,2,2v16C268,169.1,267.1,170,266,170z"
			/>
	</g>
	<g id="d7">
		<path fill="#AAAAAA" d="M356,170h-16c-1.1,0-2-0.9-2-2v-16c0-1.1,0.9-2,2-2h16c1.1,0,2,0.9,2,2v16C358,169.1,357.1,170,356,170z"
			/>
	</g>
	<g id="d8">
		<path fill="#AAAAAA" d="M386,170h-16c-1.1,0-2-0.9-2-2v-16c0-1.1,0.9-2,2-2h16c1.1,0,2,0.9,2,2v16C388,169.1,387.1,170,386,170z"
			/>
	</g>
	<g id="d9">
		<path fill="#AAAAAA" d="M416,170h-16c-1.1,0-2-0.9-2-2v-16c0-1.1,0.9-2,2-2h16c1.1,0,2,0.9,2,2v16C418,169.1,417.1,170,416,170z"
			/>
	</g>
	<g id="d10">
		<path fill="#AAAAAA" d="M446,170h-16c-1.1,0-2-0.9-2-2v-16c0-1.1,0.9-2,2-2h16c1.1,0,2,0.9,2,2v16C448,169.1,447.1,170,446,170z"
			/>
	</g>
	<g id="d11">
		<path fill="#AAAAAA" d="M476,170h-16c-1.1,0-2-0.9-2-2v-16c0-1.1,0.9-2,2-2h16c1.1,0,2,0.9,2,2v16C478,169.1,477.1,170,476,170z"
			/>
	</g>
	<g id="d12">
		<path fill="#AAAAAA" d="M506,170h-16c-1.1,0-2-0.9-2-2v-16c0-1.1,0.9-2,2-2h16c1.1,0,2,0.9,2,2v16C508,169.1,507.1,170,506,170z"
			/>
	</g>
	<g id="e1">
		<path fill="#AAAAAA" d="M116,200h-16c-1.1,0-2-0.9-2-2v-16c0-1.1,0.9-2,2-2h16c1.1,0,2,0.9,2,2v16C118,199.1,117.1,200,116,200z"
			/>
	</g>
	<g id="e2">
		<path fill="#AAAAAA" d="M146,200h-16c-1.1,0-2-0.9-2-2v-16c0-1.1,0.9-2,2-2h16c1.1,0,2,0.9,2,2v16C148,199.1,147.1,200,146,200z"
			/>
	</g>
	<g id="e3">
		<path fill="#AAAAAA" d="M176,200h-16c-1.1,0-2-0.9-2-2v-16c0-1.1,0.9-2,2-2h16c1.1,0,2,0.9,2,2v16C178,199.1,177.1,200,176,200z"
			/>
	</g>
	<g id="e4">
		<path fill="#AAAAAA" d="M206,200h-16c-1.1,0-2-0.9-2-2v-16c0-1.1,0.9-2,2-2h16c1.1,0,2,0.9,2,2v16C208,199.1,207.1,200,206,200z"
			/>
	</g>
	<g id="e5">
		<path fill="#AAAAAA" d="M236,200h-16c-1.1,0-2-0.9-2-2v-16c0-1.1,0.9-2,2-2h16c1.1,0,2,0.9,2,2v16C238,199.1,237.1,200,236,200z"
			/>
	</g>
	<g id="e6">
		<path fill="#AAAAAA" d="M266,200h-16c-1.1,0-2-0.9-2-2v-16c0-1.1,0.9-2,2-2h16c1.1,0,2,0.9,2,2v16C268,199.1,267.1,200,266,200z"
			/>
	</g>
	<g id="e7">
		<path fill="#AAAAAA" d="M356,200h-16c-1.1,0-2-0.9-2-2v-16c0-1.1,0.9-2,2-2h16c1.1,0,2,0.9,2,2v16C358,199.1,357.1,200,356,200z"
			/>
	</g>
	<g id="e8">
		<path fill="#AAAAAA" d="M386,200h-16c-1.1,0-2-0.9-2-2v-16c0-1.1,0.9-2,2-2h16c1.1,0,2,0.9,2,2v16C388,199.1,387.1,200,386,200z"
			/>
	</g>
	<g id="e9">
		<path fill="#AAAAAA" d="M416,200h-16c-1.1,0-2-0.9-2-2v-16c0-1.1,0.9-2,2-2h16c1.1,0,2,0.9,2,2v16C418,199.1,417.1,200,416,200z"
			/>
	</g>
	<g id="e10">
		<path fill="#AAAAAA" d="M446,200h-16c-1.1,0-2-0.9-2-2v-16c0-1.1,0.9-2,2-2h16c1.1,0,2,0.9,2,2v16C448,199.1,447.1,200,446,200z"
			/>
	</g>
	<g id="e11">
		<path fill="#AAAAAA" d="M476,200h-16c-1.1,0-2-0.9-2-2v-16c0-1.1,0.9-2,2-2h16c1.1,0,2,0.9,2,2v16C478,199.1,477.1,200,476,200z"
			/>
	</g>
	<g id="e12">
		<path fill="#AAAAAA" d="M506,200h-16c-1.1,0-2-0.9-2-2v-16c0-1.1,0.9-2,2-2h16c1.1,0,2,0.9,2,2v16C508,199.1,507.1,200,506,200z"
			/>
	</g>
	<g id="f1">
		<path fill="#AAAAAA" d="M116,230h-16c-1.1,0-2-0.9-2-2v-16c0-1.1,0.9-2,2-2h16c1.1,0,2,0.9,2,2v16C118,229.1,117.1,230,116,230z"
			/>
	</g>
	<g id="f2">
		<path fill="#AAAAAA" d="M146,230h-16c-1.1,0-2-0.9-2-2v-16c0-1.1,0.9-2,2-2h16c1.1,0,2,0.9,2,2v16C148,229.1,147.1,230,146,230z"
			/>
	</g>
	<g id="f3">
		<path fill="#AAAAAA" d="M176,230h-16c-1.1,0-2-0.9-2-2v-16c0-1.1,0.9-2,2-2h16c1.1,0,2,0.9,2,2v16C178,229.1,177.1,230,176,230z"
			/>
	</g>
	<g id="f4">
		<path fill="#AAAAAA" d="M206,230h-16c-1.1,0-2-0.9-2-2v-16c0-1.1,0.9-2,2-2h16c1.1,0,2,0.9,2,2v16C208,229.1,207.1,230,206,230z"
			/>
	</g>
	<g id="f5">
		<path fill="#AAAAAA" d="M236,230h-16c-1.1,0-2-0.9-2-2v-16c0-1.1,0.9-2,2-2h16c1.1,0,2,0.9,2,2v16C238,229.1,237.1,230,236,230z"
			/>
	</g>
	<g id="f6">
		<path fill="#AAAAAA" d="M266,230h-16c-1.1,0-2-0.9-2-2v-16c0-1.1,0.9-2,2-2h16c1.1,0,2,0.9,2,2v16C268,229.1,267.1,230,266,230z"
			/>
	</g>
	<g id="f7">
		<path fill="#AAAAAA" d="M356,230h-16c-1.1,0-2-0.9-2-2v-16c0-1.1,0.9-2,2-2h16c1.1,0,2,0.9,2,2v16C358,229.1,357.1,230,356,230z"
			/>
	</g>
	<g id="f8">
		<path fill="#AAAAAA" d="M386,230h-16c-1.1,0-2-0.9-2-2v-16c0-1.1,0.9-2,2-2h16c1.1,0,2,0.9,2,2v16C388,229.1,387.1,230,386,230z"
			/>
	</g>
	<g id="f9">
		<path fill="#AAAAAA" d="M416,230h-16c-1.1,0-2-0.9-2-2v-16c0-1.1,0.9-2,2-2h16c1.1,0,2,0.9,2,2v16C418,229.1,417.1,230,416,230z"
			/>
	</g>
	<g id="f10">
		<path fill="#AAAAAA" d="M446,230h-16c-1.1,0-2-0.9-2-2v-16c0-1.1,0.9-2,2-2h16c1.1,0,2,0.9,2,2v16C448,229.1,447.1,230,446,230z"
			/>
	</g>
	<g id="f11">
		<path fill="#AAAAAA" d="M476,230h-16c-1.1,0-2-0.9-2-2v-16c0-1.1,0.9-2,2-2h16c1.1,0,2,0.9,2,2v16C478,229.1,477.1,230,476,230z"
			/>
	</g>
	<g id="f12">
		<path fill="#AAAAAA" d="M506,230h-16c-1.1,0-2-0.9-2-2v-16c0-1.1,0.9-2,2-2h16c1.1,0,2,0.9,2,2v16C508,229.1,507.1,230,506,230z"
			/>
	</g>
	<g id="g1">
		<path fill="#AAAAAA" d="M86,290H70c-1.1,0-2-0.9-2-2v-16c0-1.1,0.9-2,2-2h16c1.1,0,2,0.9,2,2v16C88,289.1,87.1,290,86,290z"/>
	</g>
	<g id="g2">
		<path fill="#AAAAAA" d="M116,290h-16c-1.1,0-2-0.9-2-2v-16c0-1.1,0.9-2,2-2h16c1.1,0,2,0.9,2,2v16C118,289.1,117.1,290,116,290z"
			/>
	</g>
	<g id="g3">
		<path fill="#AAAAAA" d="M146,290h-16c-1.1,0-2-0.9-2-2v-16c0-1.1,0.9-2,2-2h16c1.1,0,2,0.9,2,2v16C148,289.1,147.1,290,146,290z"
			/>
	</g>
	<g id="g4">
		<path fill="#AAAAAA" d="M206,290h-16c-1.1,0-2-0.9-2-2v-16c0-1.1,0.9-2,2-2h16c1.1,0,2,0.9,2,2v16C208,289.1,207.1,290,206,290z"
			/>
	</g>
	<g id="g5">
		<path fill="#AAAAAA" d="M236,290h-16c-1.1,0-2-0.9-2-2v-16c0-1.1,0.9-2,2-2h16c1.1,0,2,0.9,2,2v16C238,289.1,237.1,290,236,290z"
			/>
	</g>
	<g id="g6">
		<path fill="#AAAAAA" d="M266,290h-16c-1.1,0-2-0.9-2-2v-16c0-1.1,0.9-2,2-2h16c1.1,0,2,0.9,2,2v16C268,289.1,267.1,290,266,290z"
			/>
	</g>
	<g id="g7">
		<path fill="#AAAAAA" d="M296,290h-16c-1.1,0-2-0.9-2-2v-16c0-1.1,0.9-2,2-2h16c1.1,0,2,0.9,2,2v16C298,289.1,297.1,290,296,290z"
			/>
	</g>
	<g id="g8">
		<path fill="#AAAAAA" d="M326,290h-16c-1.1,0-2-0.9-2-2v-16c0-1.1,0.9-2,2-2h16c1.1,0,2,0.9,2,2v16C328,289.1,327.1,290,326,290z"
			/>
	</g>
	<g id="g9">
		<path fill="#AAAAAA" d="M356,290h-16c-1.1,0-2-0.9-2-2v-16c0-1.1,0.9-2,2-2h16c1.1,0,2,0.9,2,2v16C358,289.1,357.1,290,356,290z"
			/>
	</g>
	<g id="g10">
		<path fill="#AAAAAA" d="M386,290h-16c-1.1,0-2-0.9-2-2v-16c0-1.1,0.9-2,2-2h16c1.1,0,2,0.9,2,2v16C388,289.1,387.1,290,386,290z"
			/>
	</g>
	<g id="g11">
		<path fill="#AAAAAA" d="M416,290h-16c-1.1,0-2-0.9-2-2v-16c0-1.1,0.9-2,2-2h16c1.1,0,2,0.9,2,2v16C418,289.1,417.1,290,416,290z"
			/>
	</g>
	<g id="g12">
		<path fill="#AAAAAA" d="M476,290h-16c-1.1,0-2-0.9-2-2v-16c0-1.1,0.9-2,2-2h16c1.1,0,2,0.9,2,2v16C478,289.1,477.1,290,476,290z"
			/>
	</g>
	<g id="g13">
		<path fill="#AAAAAA" d="M506,290h-16c-1.1,0-2-0.9-2-2v-16c0-1.1,0.9-2,2-2h16c1.1,0,2,0.9,2,2v16C508,289.1,507.1,290,506,290z"
			/>
	</g>
	<g id="g14">
		<path fill="#AAAAAA" d="M536,290h-16c-1.1,0-2-0.9-2-2v-16c0-1.1,0.9-2,2-2h16c1.1,0,2,0.9,2,2v16C538,289.1,537.1,290,536,290z"
			/>
	</g>
	<g id="h1">
		<path fill="#AAAAAA" d="M86,320H70c-1.1,0-2-0.9-2-2v-16c0-1.1,0.9-2,2-2h16c1.1,0,2,0.9,2,2v16C88,319.1,87.1,320,86,320z"/>
	</g>
	<g id="h2">
		<path fill="#AAAAAA" d="M116,320h-16c-1.1,0-2-0.9-2-2v-16c0-1.1,0.9-2,2-2h16c1.1,0,2,0.9,2,2v16C118,319.1,117.1,320,116,320z"
			/>
	</g>
	<g id="h3">
		<path fill="#AAAAAA" d="M146,320h-16c-1.1,0-2-0.9-2-2v-16c0-1.1,0.9-2,2-2h16c1.1,0,2,0.9,2,2v16C148,319.1,147.1,320,146,320z"
			/>
	</g>
	<g id="h4">
		<path fill="#AAAAAA" d="M206,320h-16c-1.1,0-2-0.9-2-2v-16c0-1.1,0.9-2,2-2h16c1.1,0,2,0.9,2,2v16C208,319.1,207.1,320,206,320z"
			/>
	</g>
	<g id="h5">
		<path fill="#AAAAAA" d="M236,320h-16c-1.1,0-2-0.9-2-2v-16c0-1.1,0.9-2,2-2h16c1.1,0,2,0.9,2,2v16C238,319.1,237.1,320,236,320z"
			/>
	</g>
	<g id="h6">
		<path fill="#AAAAAA" d="M266,320h-16c-1.1,0-2-0.9-2-2v-16c0-1.1,0.9-2,2-2h16c1.1,0,2,0.9,2,2v16C268,319.1,267.1,320,266,320z"
			/>
	</g>
	<g id="h7">
		<path fill="#AAAAAA" d="M296,320h-16c-1.1,0-2-0.9-2-2v-16c0-1.1,0.9-2,2-2h16c1.1,0,2,0.9,2,2v16C298,319.1,297.1,320,296,320z"
			/>
	</g>
	<g id="h8">
		<path fill="#AAAAAA" d="M326,320h-16c-1.1,0-2-0.9-2-2v-16c0-1.1,0.9-2,2-2h16c1.1,0,2,0.9,2,2v16C328,319.1,327.1,320,326,320z"
			/>
	</g>
	<g id="h9">
		<path fill="#AAAAAA" d="M356,320h-16c-1.1,0-2-0.9-2-2v-16c0-1.1,0.9-2,2-2h16c1.1,0,2,0.9,2,2v16C358,319.1,357.1,320,356,320z"
			/>
	</g>
	<g id="h10">
		<path fill="#AAAAAA" d="M386,320h-16c-1.1,0-2-0.9-2-2v-16c0-1.1,0.9-2,2-2h16c1.1,0,2,0.9,2,2v16C388,319.1,387.1,320,386,320z"
			/>
	</g>
	<g id="h11">
		<path fill="#AAAAAA" d="M416,320h-16c-1.1,0-2-0.9-2-2v-16c0-1.1,0.9-2,2-2h16c1.1,0,2,0.9,2,2v16C418,319.1,417.1,320,416,320z"
			/>
	</g>
	<g id="h12">
		<path fill="#AAAAAA" d="M476,320h-16c-1.1,0-2-0.9-2-2v-16c0-1.1,0.9-2,2-2h16c1.1,0,2,0.9,2,2v16C478,319.1,477.1,320,476,320z"
			/>
	</g>
	<g id="h13">
		<path fill="#AAAAAA" d="M506,320h-16c-1.1,0-2-0.9-2-2v-16c0-1.1,0.9-2,2-2h16c1.1,0,2,0.9,2,2v16C508,319.1,507.1,320,506,320z"
			/>
	</g>
	<g id="h14">
		<path fill="#AAAAAA" d="M536,320h-16c-1.1,0-2-0.9-2-2v-16c0-1.1,0.9-2,2-2h16c1.1,0,2,0.9,2,2v16C538,319.1,537.1,320,536,320z"
			/>
	</g>
	<g id="i1">
		<path fill="#AAAAAA" d="M86,350H70c-1.1,0-2-0.9-2-2v-16c0-1.1,0.9-2,2-2h16c1.1,0,2,0.9,2,2v16C88,349.1,87.1,350,86,350z"/>
	</g>
	<g id="i2">
		<path fill="#AAAAAA" d="M116,350h-16c-1.1,0-2-0.9-2-2v-16c0-1.1,0.9-2,2-2h16c1.1,0,2,0.9,2,2v16C118,349.1,117.1,350,116,350z"
			/>
	</g>
	<g id="i3">
		<path fill="#AAAAAA" d="M146,350h-16c-1.1,0-2-0.9-2-2v-16c0-1.1,0.9-2,2-2h16c1.1,0,2,0.9,2,2v16C148,349.1,147.1,350,146,350z"
			/>
	</g>
	<g id="i4">
		<path fill="#AAAAAA" d="M206,350h-16c-1.1,0-2-0.9-2-2v-16c0-1.1,0.9-2,2-2h16c1.1,0,2,0.9,2,2v16C208,349.1,207.1,350,206,350z"
			/>
	</g>
	<g id="i5">
		<path fill="#AAAAAA" d="M236,350h-16c-1.1,0-2-0.9-2-2v-16c0-1.1,0.9-2,2-2h16c1.1,0,2,0.9,2,2v16C238,349.1,237.1,350,236,350z"
			/>
	</g>
	<g id="i6">
		<path fill="#AAAAAA" d="M266,350h-16c-1.1,0-2-0.9-2-2v-16c0-1.1,0.9-2,2-2h16c1.1,0,2,0.9,2,2v16C268,349.1,267.1,350,266,350z"
			/>
	</g>
	<g id="i7">
		<path fill="#AAAAAA" d="M296,350h-16c-1.1,0-2-0.9-2-2v-16c0-1.1,0.9-2,2-2h16c1.1,0,2,0.9,2,2v16C298,349.1,297.1,350,296,350z"
			/>
	</g>
	<g id="i8">
		<path fill="#AAAAAA" d="M326,350h-16c-1.1,0-2-0.9-2-2v-16c0-1.1,0.9-2,2-2h16c1.1,0,2,0.9,2,2v16C328,349.1,327.1,350,326,350z"
			/>
	</g>
	<g id="i9">
		<path fill="#AAAAAA" d="M356,350h-16c-1.1,0-2-0.9-2-2v-16c0-1.1,0.9-2,2-2h16c1.1,0,2,0.9,2,2v16C358,349.1,357.1,350,356,350z"
			/>
	</g>
	<g id="i10">
		<path fill="#AAAAAA" d="M386,350h-16c-1.1,0-2-0.9-2-2v-16c0-1.1,0.9-2,2-2h16c1.1,0,2,0.9,2,2v16C388,349.1,387.1,350,386,350z"
			/>
	</g>
	<g id="i11">
		<path fill="#AAAAAA" d="M416,350h-16c-1.1,0-2-0.9-2-2v-16c0-1.1,0.9-2,2-2h16c1.1,0,2,0.9,2,2v16C418,349.1,417.1,350,416,350z"
			/>
	</g>
	<g id="i12">
		<path fill="#AAAAAA" d="M476,350h-16c-1.1,0-2-0.9-2-2v-16c0-1.1,0.9-2,2-2h16c1.1,0,2,0.9,2,2v16C478,349.1,477.1,350,476,350z"
			/>
	</g>
	<g id="i13">
		<path fill="#AAAAAA" d="M506,350h-16c-1.1,0-2-0.9-2-2v-16c0-1.1,0.9-2,2-2h16c1.1,0,2,0.9,2,2v16C508,349.1,507.1,350,506,350z"
			/>
	</g>
	<g id="i14">
		<path fill="#AAAAAA" d="M536,350h-16c-1.1,0-2-0.9-2-2v-16c0-1.1,0.9-2,2-2h16c1.1,0,2,0.9,2,2v16C538,349.1,537.1,350,536,350z"
			/>
	</g>
	<g id="j1">
		<path fill="#AAAAAA" d="M86,380H70c-1.1,0-2-0.9-2-2v-16c0-1.1,0.9-2,2-2h16c1.1,0,2,0.9,2,2v16C88,379.1,87.1,380,86,380z"/>
	</g>
	<g id="j2">
		<path fill="#AAAAAA" d="M116,380h-16c-1.1,0-2-0.9-2-2v-16c0-1.1,0.9-2,2-2h16c1.1,0,2,0.9,2,2v16C118,379.1,117.1,380,116,380z"
			/>
	</g>
	<g id="j3">
		<path fill="#AAAAAA" d="M146,380h-16c-1.1,0-2-0.9-2-2v-16c0-1.1,0.9-2,2-2h16c1.1,0,2,0.9,2,2v16C148,379.1,147.1,380,146,380z"
			/>
	</g>
	<g id="j4">
		<path fill="#AAAAAA" d="M206,380h-16c-1.1,0-2-0.9-2-2v-16c0-1.1,0.9-2,2-2h16c1.1,0,2,0.9,2,2v16C208,379.1,207.1,380,206,380z"
			/>
	</g>
	<g id="j5">
		<path fill="#AAAAAA" d="M236,380h-16c-1.1,0-2-0.9-2-2v-16c0-1.1,0.9-2,2-2h16c1.1,0,2,0.9,2,2v16C238,379.1,237.1,380,236,380z"
			/>
	</g>
	<g id="j6">
		<path fill="#AAAAAA" d="M266,380h-16c-1.1,0-2-0.9-2-2v-16c0-1.1,0.9-2,2-2h16c1.1,0,2,0.9,2,2v16C268,379.1,267.1,380,266,380z"
			/>
	</g>
	<g id="j7">
		<path fill="#AAAAAA" d="M296,380h-16c-1.1,0-2-0.9-2-2v-16c0-1.1,0.9-2,2-2h16c1.1,0,2,0.9,2,2v16C298,379.1,297.1,380,296,380z"
			/>
	</g>
	<g id="j8">
		<path fill="#AAAAAA" d="M326,380h-16c-1.1,0-2-0.9-2-2v-16c0-1.1,0.9-2,2-2h16c1.1,0,2,0.9,2,2v16C328,379.1,327.1,380,326,380z"
			/>
	</g>
	<g id="j9">
		<path fill="#AAAAAA" d="M356,380h-16c-1.1,0-2-0.9-2-2v-16c0-1.1,0.9-2,2-2h16c1.1,0,2,0.9,2,2v16C358,379.1,357.1,380,356,380z"
			/>
	</g>
	<g id="j10">
		<path fill="#AAAAAA" d="M386,380h-16c-1.1,0-2-0.9-2-2v-16c0-1.1,0.9-2,2-2h16c1.1,0,2,0.9,2,2v16C388,379.1,387.1,380,386,380z"
			/>
	</g>
	<g id="j11">
		<path fill="#AAAAAA" d="M416,380h-16c-1.1,0-2-0.9-2-2v-16c0-1.1,0.9-2,2-2h16c1.1,0,2,0.9,2,2v16C418,379.1,417.1,380,416,380z"
			/>
	</g>
	<g id="j12">
		<path fill="#AAAAAA" d="M476,380h-16c-1.1,0-2-0.9-2-2v-16c0-1.1,0.9-2,2-2h16c1.1,0,2,0.9,2,2v16C478,379.1,477.1,380,476,380z"
			/>
	</g>
	<g id="j13">
		<path fill="#AAAAAA" d="M506,380h-16c-1.1,0-2-0.9-2-2v-16c0-1.1,0.9-2,2-2h16c1.1,0,2,0.9,2,2v16C508,379.1,507.1,380,506,380z"
			/>
	</g>
	<g id="j14">
		<path fill="#AAAAAA" d="M536,380h-16c-1.1,0-2-0.9-2-2v-16c0-1.1,0.9-2,2-2h16c1.1,0,2,0.9,2,2v16C538,379.1,537.1,380,536,380z"
			/>
	</g>
	<g id="k1">
		<path fill="#AAAAAA" d="M86,410H70c-1.1,0-2-0.9-2-2v-16c0-1.1,0.9-2,2-2h16c1.1,0,2,0.9,2,2v16C88,409.1,87.1,410,86,410z"/>
	</g>
	<g id="k2">
		<path fill="#AAAAAA" d="M116,410h-16c-1.1,0-2-0.9-2-2v-16c0-1.1,0.9-2,2-2h16c1.1,0,2,0.9,2,2v16C118,409.1,117.1,410,116,410z"
			/>
	</g>
	<g id="k3">
		<path fill="#AAAAAA" d="M146,410h-16c-1.1,0-2-0.9-2-2v-16c0-1.1,0.9-2,2-2h16c1.1,0,2,0.9,2,2v16C148,409.1,147.1,410,146,410z"
			/>
	</g>
	<g id="k4">
		<path fill="#AAAAAA" d="M206,410h-16c-1.1,0-2-0.9-2-2v-16c0-1.1,0.9-2,2-2h16c1.1,0,2,0.9,2,2v16C208,409.1,207.1,410,206,410z"
			/>
	</g>
	<g id="k5">
		<path fill="#AAAAAA" d="M236,410h-16c-1.1,0-2-0.9-2-2v-16c0-1.1,0.9-2,2-2h16c1.1,0,2,0.9,2,2v16C238,409.1,237.1,410,236,410z"
			/>
	</g>
	<g id="k6">
		<path fill="#AAAAAA" d="M266,410h-16c-1.1,0-2-0.9-2-2v-16c0-1.1,0.9-2,2-2h16c1.1,0,2,0.9,2,2v16C268,409.1,267.1,410,266,410z"
			/>
	</g>
	<g id="k7">
		<path fill="#AAAAAA" d="M296,410h-16c-1.1,0-2-0.9-2-2v-16c0-1.1,0.9-2,2-2h16c1.1,0,2,0.9,2,2v16C298,409.1,297.1,410,296,410z"
			/>
	</g>
	<g id="k8">
		<path fill="#AAAAAA" d="M326,410h-16c-1.1,0-2-0.9-2-2v-16c0-1.1,0.9-2,2-2h16c1.1,0,2,0.9,2,2v16C328,409.1,327.1,410,326,410z"
			/>
	</g>
	<g id="k9">
		<path fill="#AAAAAA" d="M356,410h-16c-1.1,0-2-0.9-2-2v-16c0-1.1,0.9-2,2-2h16c1.1,0,2,0.9,2,2v16C358,409.1,357.1,410,356,410z"
			/>
	</g>
	<g id="k10">
		<path fill="#AAAAAA" d="M386,410h-16c-1.1,0-2-0.9-2-2v-16c0-1.1,0.9-2,2-2h16c1.1,0,2,0.9,2,2v16C388,409.1,387.1,410,386,410z"
			/>
	</g>
	<g id="k11">
		<path fill="#AAAAAA" d="M416,410h-16c-1.1,0-2-0.9-2-2v-16c0-1.1,0.9-2,2-2h16c1.1,0,2,0.9,2,2v16C418,409.1,417.1,410,416,410z"
			/>
	</g>
	<g id="k12">
		<path fill="#AAAAAA" d="M476,410h-16c-1.1,0-2-0.9-2-2v-16c0-1.1,0.9-2,2-2h16c1.1,0,2,0.9,2,2v16C478,409.1,477.1,410,476,410z"
			/>
	</g>
	<g id="k13">
		<path fill="#AAAAAA" d="M506,410h-16c-1.1,0-2-0.9-2-2v-16c0-1.1,0.9-2,2-2h16c1.1,0,2,0.9,2,2v16C508,409.1,507.1,410,506,410z"
			/>
	</g>
	<g id="k14">
		<path fill="#AAAAAA" d="M536,410h-16c-1.1,0-2-0.9-2-2v-16c0-1.1,0.9-2,2-2h16c1.1,0,2,0.9,2,2v16C538,409.1,537.1,410,536,410z"
			/>
	</g>
	<g id="l1">
		<path fill="#AAAAAA" d="M86,440H70c-1.1,0-2-0.9-2-2v-16c0-1.1,0.9-2,2-2h16c1.1,0,2,0.9,2,2v16C88,439.1,87.1,440,86,440z"/>
	</g>
	<g id="l2">
		<path fill="#AAAAAA" d="M116,440h-16c-1.1,0-2-0.9-2-2v-16c0-1.1,0.9-2,2-2h16c1.1,0,2,0.9,2,2v16C118,439.1,117.1,440,116,440z"
			/>
	</g>
	<g id="l3">
		<path fill="#AAAAAA" d="M146,440h-16c-1.1,0-2-0.9-2-2v-16c0-1.1,0.9-2,2-2h16c1.1,0,2,0.9,2,2v16C148,439.1,147.1,440,146,440z"
			/>
	</g>
	<g id="l4">
		<path fill="#AAAAAA" d="M206,440h-16c-1.1,0-2-0.9-2-2v-16c0-1.1,0.9-2,2-2h16c1.1,0,2,0.9,2,2v16C208,439.1,207.1,440,206,440z"
			/>
	</g>
	<g id="l5">
		<path fill="#AAAAAA" d="M236,440h-16c-1.1,0-2-0.9-2-2v-16c0-1.1,0.9-2,2-2h16c1.1,0,2,0.9,2,2v16C238,439.1,237.1,440,236,440z"
			/>
	</g>
	<g id="l6">
		<path fill="#AAAAAA" d="M266,440h-16c-1.1,0-2-0.9-2-2v-16c0-1.1,0.9-2,2-2h16c1.1,0,2,0.9,2,2v16C268,439.1,267.1,440,266,440z"
			/>
	</g>
	<g id="l7">
		<path fill="#AAAAAA" d="M296,440h-16c-1.1,0-2-0.9-2-2v-16c0-1.1,0.9-2,2-2h16c1.1,0,2,0.9,2,2v16C298,439.1,297.1,440,296,440z"
			/>
	</g>
	<g id="l8">
		<path fill="#AAAAAA" d="M326,440h-16c-1.1,0-2-0.9-2-2v-16c0-1.1,0.9-2,2-2h16c1.1,0,2,0.9,2,2v16C328,439.1,327.1,440,326,440z"
			/>
	</g>
	<g id="l9">
		<path fill="#AAAAAA" d="M356,440h-16c-1.1,0-2-0.9-2-2v-16c0-1.1,0.9-2,2-2h16c1.1,0,2,0.9,2,2v16C358,439.1,357.1,440,356,440z"
			/>
	</g>
	<g id="l10">
		<path fill="#AAAAAA" d="M386,440h-16c-1.1,0-2-0.9-2-2v-16c0-1.1,0.9-2,2-2h16c1.1,0,2,0.9,2,2v16C388,439.1,387.1,440,386,440z"
			/>
	</g>
	<g id="l11">
		<path fill="#AAAAAA" d="M416,440h-16c-1.1,0-2-0.9-2-2v-16c0-1.1,0.9-2,2-2h16c1.1,0,2,0.9,2,2v16C418,439.1,417.1,440,416,440z"
			/>
	</g>
	<g id="l12">
		<path fill="#AAAAAA" d="M476,440h-16c-1.1,0-2-0.9-2-2v-16c0-1.1,0.9-2,2-2h16c1.1,0,2,0.9,2,2v16C478,439.1,477.1,440,476,440z"
			/>
	</g>
	<g id="l13">
		<path fill="#AAAAAA" d="M506,440h-16c-1.1,0-2-0.9-2-2v-16c0-1.1,0.9-2,2-2h16c1.1,0,2,0.9,2,2v16C508,439.1,507.1,440,506,440z"
			/>
	</g>
	<g id="l14">
		<path fill="#AAAAAA" d="M536,440h-16c-1.1,0-2-0.9-2-2v-16c0-1.1,0.9-2,2-2h16c1.1,0,2,0.9,2,2v16C538,439.1,537.1,440,536,440z"
			/>
	</g>
</g>
<g id="numbers">
	<g>
		<path fill="#DDDDDD" d="M305.52,74l-0.62-2.04h-3.12L301.15,74h-1.96l3.02-8.6h2.22l3.04,8.6H305.52z M304.46,70.44
			c-0.57-1.85-0.9-2.89-0.97-3.13s-0.13-0.43-0.16-0.57c-0.13,0.5-0.5,1.74-1.11,3.71H304.46z"/>
	</g>
	<g>
		<path fill="#DDDDDD" d="M300.38,95.43h2.67c1.21,0,2.1,0.17,2.64,0.52s0.82,0.9,0.82,1.65c0,0.51-0.12,0.93-0.36,1.26
			s-0.56,0.53-0.96,0.59v0.06c0.54,0.12,0.93,0.35,1.17,0.68s0.36,0.77,0.36,1.32c0,0.78-0.28,1.39-0.85,1.83s-1.33,0.66-2.3,0.66
			h-3.21V95.43z M302.2,98.83h1.05c0.49,0,0.85-0.08,1.07-0.23s0.33-0.4,0.33-0.76c0-0.33-0.12-0.56-0.36-0.71s-0.62-0.21-1.14-0.21
			h-0.96V98.83z M302.2,100.27v2.23h1.18c0.5,0,0.87-0.1,1.11-0.29s0.36-0.48,0.36-0.88c0-0.71-0.51-1.07-1.52-1.07H302.2z"/>
	</g>
	<g>
		<path fill="#DDDDDD" d="M304.23,126.82c-0.68,0-1.21,0.26-1.59,0.77s-0.56,1.23-0.56,2.15c0,1.91,0.72,2.87,2.15,2.87
			c0.6,0,1.33-0.15,2.19-0.45v1.52c-0.7,0.29-1.49,0.44-2.36,0.44c-1.25,0-2.2-0.38-2.86-1.13s-0.99-1.84-0.99-3.25
			c0-0.89,0.16-1.67,0.49-2.34c0.32-0.67,0.79-1.18,1.4-1.54s1.32-0.54,2.13-0.54c0.83,0,1.67,0.2,2.51,0.6l-0.59,1.48
			c-0.32-0.15-0.64-0.29-0.97-0.4S304.54,126.82,304.23,126.82z"/>
	</g>
	<g>
		<path fill="#DDDDDD" d="M307.08,159.63c0,1.41-0.4,2.49-1.21,3.24s-1.96,1.13-3.48,1.13h-2.43v-8.57h2.69
			c1.4,0,2.48,0.37,3.26,1.11S307.08,158.31,307.08,159.63z M305.19,159.68c0-1.84-0.81-2.76-2.44-2.76h-0.97v5.58h0.78
			C304.32,162.5,305.19,161.56,305.19,159.68z"/>
	</g>
	<g>
		<path fill="#DDDDDD" d="M305.98,194h-4.93v-8.57h4.93v1.49h-3.12v1.88h2.9v1.49h-2.9v2.21h3.12V194z"/>
	</g>
	<g>
		<path fill="#DDDDDD" d="M302.91,224h-1.79v-8.57h4.91v1.49h-3.12v2.21h2.91v1.48h-2.91V224z"/>
	</g>
	<g>
		<path fill="#DDDDDD" d="M168.32,279.19h3.4v4.44c-0.55,0.18-1.07,0.31-1.56,0.38s-0.98,0.11-1.49,0.11
			c-1.29,0-2.28-0.38-2.96-1.14s-1.02-1.85-1.02-3.27c0-1.38,0.4-2.46,1.19-3.23s1.89-1.16,3.29-1.16c0.88,0,1.73,0.18,2.54,0.53
			l-0.6,1.45c-0.63-0.31-1.28-0.47-1.95-0.47c-0.79,0-1.41,0.26-1.89,0.79s-0.71,1.24-0.71,2.13c0,0.93,0.19,1.64,0.57,2.13
			s0.93,0.74,1.66,0.74c0.38,0,0.76-0.04,1.15-0.12v-1.79h-1.62V279.19z"/>
	</g>
	<g>
		<path fill="#DDDDDD" d="M171.84,314h-1.81v-3.7h-3.39v3.7h-1.82v-8.57h1.82v3.36h3.39v-3.36h1.81V314z"/>
	</g>
	<g>
		<path fill="#DDDDDD" d="M167.43,344v-8.57h1.82V344H167.43z"/>
	</g>
	<g>
		<path fill="#DDDDDD" d="M166.53,376.52c-0.41,0-0.77-0.04-1.07-0.13v-1.51c0.31,0.08,0.6,0.12,0.86,0.12
			c0.4,0,0.68-0.12,0.86-0.37s0.26-0.64,0.26-1.16v-8.03h1.82v8.02c0,1-0.23,1.76-0.69,2.29S167.42,376.52,166.53,376.52z"/>
	</g>
	<g>
		<path fill="#DDDDDD" d="M172.32,404h-2.06l-2.24-3.61l-0.77,0.55V404h-1.82v-8.57h1.82v3.92l0.71-1.01l2.32-2.91h2.02l-2.99,3.79
			L172.32,404z"/>
	</g>
	<g>
		<path fill="#DDDDDD" d="M166.02,434v-8.57h1.82v7.07h3.47v1.5H166.02z"/>
	</g>
	<g>
		<path fill="#DDDDDD" d="M438.32,279.19h3.4v4.44c-0.55,0.18-1.07,0.31-1.56,0.38s-0.98,0.11-1.49,0.11
			c-1.29,0-2.28-0.38-2.96-1.14s-1.02-1.85-1.02-3.27c0-1.38,0.4-2.46,1.19-3.23s1.89-1.16,3.29-1.16c0.88,0,1.73,0.18,2.54,0.53
			l-0.6,1.45c-0.63-0.31-1.28-0.47-1.95-0.47c-0.79,0-1.41,0.26-1.89,0.79s-0.71,1.24-0.71,2.13c0,0.93,0.19,1.64,0.57,2.13
			s0.93,0.74,1.66,0.74c0.38,0,0.76-0.04,1.15-0.12v-1.79h-1.62V279.19z"/>
	</g>
	<g>
		<path fill="#DDDDDD" d="M441.84,314h-1.81v-3.7h-3.39v3.7h-1.82v-8.57h1.82v3.36h3.39v-3.36h1.81V314z"/>
	</g>
	<g>
		<path fill="#DDDDDD" d="M437.43,344v-8.57h1.82V344H437.43z"/>
	</g>
	<g>
		<path fill="#DDDDDD" d="M436.53,376.52c-0.41,0-0.77-0.04-1.07-0.13v-1.51c0.31,0.08,0.6,0.12,0.86,0.12
			c0.4,0,0.68-0.12,0.86-0.37s0.26-0.64,0.26-1.16v-8.03h1.82v8.02c0,1-0.23,1.76-0.69,2.29S437.42,376.52,436.53,376.52z"/>
	</g>
	<g>
		<path fill="#DDDDDD" d="M442.32,404h-2.06l-2.24-3.61l-0.77,0.55V404h-1.82v-8.57h1.82v3.92l0.71-1.01l2.32-2.91h2.02l-2.99,3.79
			L442.32,404z"/>
	</g>
	<g>
		<path fill="#DDDDDD" d="M436.02,434v-8.57h1.82v7.07h3.47v1.5H436.02z"/>
	</g>
	<polygon fill="none" stroke="#DDDDDD" stroke-miterlimit="10" points="168,456 165,461 167,461 167,465 169,465 169,461 171,461 	
		"/>
	<polygon fill="none" stroke="#DDDDDD" stroke-miterlimit="10" points="439,456 436,461 438,461 438,465 440,465 440,461 442,461 	
		"/>
</g>
</svg>
