<?xml version="1.0" encoding="utf-8"?>
<svg version="1.1" id="landmarks-continents" xmlns="http://www.w3.org/2000/svg" xmlns:xlink="http://www.w3.org/1999/xlink"
	 x="0px" y="0px" width="400px" height="220px" viewBox="0 0 400 220" enable-background="new 0 0 400 220" xml:space="preserve">
<g id="africa" transform="translate(0,239) scale(0.016963,-0.016963)">
	<path fill="#DDDDDD" d="M11330.843,9689.892l-109.037-4.98l-18.998-5.008l-35.004,1.008h-32.93l-21.07-12.004l-28.957-12.004
		h-32.01l-190.01-6.994l-179.994-63.012l-14.996-5.094l-20.006-2.994l-20.984-10.018l-40.012-24.984l-36.988-26.021l-70.006,10.016
		h-64.91l-109.01,41.998l-38.975,10.996l-35.002-62.004l-118.912-136.988l-120.004-106.994l-21.992-47.006l-23-94.012
		l-12.002-76.107l-13.012-23.893l-35.98-39.982l-56.016-48.012l-102.994-47.008l-62.002-71.99l-31.002-47.984l-82.01-123.027
		l-65.975-101.986l-45.02-79.994l-39.982-72.02l-24.123-50l-11.975-62.09l7.975-18.998l36.01-20.006l14.018-51.984l-6.016-73
		l-5.094-177l-20.006-77l-66.984-113.01l-13.01-9.988l14.996-10.018l25.994-27.086l20.006-45.02l-1.008-23l-9.988-52.994
		l29.994-75.963l13.988-39.033l-8.98-17.961l39.982-22.051l8.002,19.979l-4,33.045l20.006-29.994l20.004-29.994l10.996-15.025
		l14.998-15.027l14.996-8.059l50-61.025l51.008-80.021l20.006-70.926l5.008-19l2.994-11.053l5.986-11.975l37.018-30.973
		l196.977-153.021l242.025-74.035l331,8.98l44.99,6.045l181,75.014l28.008,13.99l181.002,37.996l92.975-16.982l60.018-109.039
		l23-35.98l56.965-15.025l75.072,10.016l71.963,8.004l36.959-18.998l26.021-28.959l20.035-19.055l13.99-24.986l-15.027-162.98
		l-7.023-40.012l3.051-24.121l-12.031-64.02l-35.002-54l5.986-51.871l32.01-69.084l54-75.014l160.045-237.995l10.018-27.115
		l5.066-15.026l18.998-61.83l42.891-106.044l-0.98-67.012l13.99-96.891l31.031-127.979l-35.004-99.942l-72.02-130.972
		l-41.969-148.991l6.967-216.982l19.977-33.045l95.912-194.875l43.119-85.031l27.979-114.968l12.033-120.033l27.057-139.09
		l85.031-191.882l59.988-110.017l70.984-155.094l15.025-51.87l-9.037-47.035l-19.979-12.09l27.117-58.952l3.914-32.009
		l21.992-37.018l10.018,2.994l12.953-13.012l32.008-19.977l67.012-2.993l59.988,16.004l65.111,13.933l155.9,10.938l51.986,2.016
		l37.018,8.117l21.07,7.829l40.99,16.005l210.938,136.096l59.066,60.046l105.93,150.892l80.021,81.116l54.002,114.853l5.986,120.091
		l13.012,40.069l91.996,54.001l92.977,60.967l13.01,42.89l0.98,36.039l-1.959,124.984l-10.016,19.861l10.016-3.972l9.902,8.117
		l-12.031,19.977l-13.012,32.01l-13.875,37.996l-11.109,25.906l113.988,126.137l16.004,7.829l18.02,32.009l129.072,101.036
		l62.867,28.957l21.07,16.005l107.08,145.998l1.959,80.022l-9.961,172.94l-22.971,171.962l-40.068,79.966l2.994,106.044
		l20.033,16.926l-14.967,5.987l-18.135,43.063l-18.02,52.043l-29.016,48.877l42.947,120.955l64.018,147.034l25.965,32.931
		l103.107,110.073l259.986,281.979l213.932,234.023l35.002,63.039l35.004,71.963l72.998,156.016l7.023,13.988l24.986,59.988
		l24.984,85.031l19.977,39.953l10.018,24.986l-8.117,92.111l-58.951,17.041l-129.072-43.982l-38.975-7.023l-46.115-7.023
		l-48.877-14.969l-60.967-16.004l-64.018-13.012l-129.992,43.984l-42.027,33.045l-23.891,5.986l22.969,11.975l-13.932,98.014
		l-58.029,66.982l-24.986,21.1l-26.943,29.908l-35.002,37.018l-30.973,19.977l-26.021,7.023l-18.078,19.977l9.098,26.021
		l-1.037,14.998l-30.051-7.023l-21.014-2.994l-25.043,60.018l-90.846,181.979l-73,172.912l-15.082,84.109l-15.027,40.99
		l-6.045,24.986l-47.955,38.025l-44.041,111.973l-11.053,23.92l-54.922,82.01l-51.123,96.977l-20.955,50l-17.041,37.018
		l-19.861,43.004l-37.996,59.988l-35.004,63.012l-9.039,28.986l-16.982,75.014l-18.998,86.988l-189.117-18.998l-40.99-13.99
		l-64.883,14.998l-65.111,19.977l-127.92,24.008l-32.01,16.004l-37.996,20.984l-110.074,40.012l-24.986,20.004l-26.941,9.99
		l-155.094-35.982l-20.957-102.992l-59.988-81.002l-55.037,27.979l-144.961,52.016l-74.035,60.996l-32.93,40.988l-56.074,26.023
		l-81.979,13.988l-93.035,17.99l-54,63.99l-9.902,6.016l-16.982-9.988l-40.127,8.98l20.035,45.02l45.02,19.979l14.969,6.016
		l-10.018,4.98l-3.857,33.016l-15.141,51.008l-4.951,58.002l10.018,29.994l3.971,8.002l9.902,2.992l-31.893,5.01l-24.123,4
		l-54,32.902L11330.843,9689.892L11330.843,9689.892z M13238.948,6460.868l1.957-28.959l-3.973-21.012l-25.963-62.061l-7.945-10.939
		l-16.982-24.984v-28.096l-42.891-16.004l-56.994-0.921l-18.135,78.007l51.986,123.027l47.035,19.977L13238.948,6460.868
		L13238.948,6460.868z M12892.837,6076.875l11.053-32.988l5.066-21.991l5.066-35.981v-24.985l13.012-51.008l35.924-61.945
		l24.984-68.969v-48.014l-19.92,26.021l-10.016,35.003l-14.969,35.003l-30.109,48.877l-32.01,51.007l-3.971,47.035l-6.91,110.074
		l8.982,49.971L12892.837,6076.875L12892.837,6076.875z M13252.823,5618.904l13.988-64.882l13.934-56.994l2.072-63.098l8.98-152.906
		l11.168-13.011l-10.016-4.029l-10.018-3.973l-11.111-10.881l-3.857,19.861l-3.109,32.988l-22.912,121.934l-5.988,175.013
		l-13.01,32.931L13252.823,5618.904L13252.823,5618.904z"/>
	<path fill="#DDDDDD" d="M14362.833,5416.891l-17.041-56.995l-32.93-32.987l-19.92-2.015l13.012-20.035h-10.018l-24.064-37.996
		l-9.039-22.971l-9.959-24.985l-15.084-13.989l-14.967-8.98l-124.986-88.025l-48.877-21.013l-33.045-8.06l-22.971-26.943
		l-18.998-56.994v-169.026l-16.926-124.984l-37.074-62.982l-22.971-162.98l9.096-70.006l5.988-50.028l10.881-24.985l53.078-51.007
		l16.926-10.018l73.979,5.124l46.977,14.968l69.027,69.027l13.988,35.98l26.023,75.015l30.973,91.133l30.109,84.974l50.027,145.998
		l43.984,134.887l27.979,80.022l1.037,82.959l-7.025,45.02l20.035-24.063l19.861-24.986l16.984,31.952l6.045,51.007l-10.018,63.961
		l-10.881,78.064l-59.125,129.072L14362.833,5416.891L14362.833,5416.891z"/>
</g>
<g id="asia" transform="translate(0,239) scale(0.016963,-0.016963)">
	<path fill="#DDDDDD" d="M15327.823,13096.894l-49.971-28.008l-2.129-8.982l-11.975-47.006l51.984-11.082h5.988l16.004-13.01
		l14.969,13.01l9.039-2.014l24.984-8.09l59.125-7.916l254-35.002l33.967,27l-20.957,23l-102.014,36.01l-89.004,28.008
		l-52.043,24.986L15327.823,13096.894L15327.823,13096.894z"/>
	<path fill="#DDDDDD" d="M15976.755,12879.911l-22.912-57.023l-34.082-13.99l-48.936-9.01l-40.99-14.996l-30.973,5.008
		l-201.035-14.996l-81.059-18.998l-91.076-23l-48.934-10.018l-23.949-3.971l-14.969-10.018l-16.004-16.984l-5.988-5.008
		l-47.092-4.002v-22.998l11.053,5.986l28.037-2.992l40.99-12.004l21.129-9.01l-82.096-2.994l-22.912,10.018l-2.994-9.01l-108.002-23
		l-84.168-2.014l29.016-22.971l50.029-44.014l67.99-25.992l45.941-14.018l18.076-12.004l-16.004-5.988l-59.988,13.012
		l-188.025,42.977l-43.061-11.082l9.959-16.898l-24.986-14.018l-9.037-19.977l54-23.92l-13.932-6.996l-77.029,56.994l-57.916,59.01
		l-32.008,12.004l-30.973,1.008l20.955-22.021l42.947-4l2.994-5.096l4.029-17.012l-20.035-29.994l-29.936-19.977l-11.975-16.926
		l45.941-32.988l49.971-60.994l15.082-45.914l21.014-27.086l73-7.916l34.023-4.98l-21.014-63.01l16.984-36.01l-13.012-35.002
		l-30.051-28.988l-29.938-21.99l-32.01-9.01l-43.063,17.012l5.988,3.973l34.082,35.002l24.984,40.012l5.988,32.986l-42.832,51.008
		l-43.121,29.908l-22.049,46.084l-24.986,53.023l-57.973,52.992l-16.004,17.012l-2.994,69.977l-83.016,26.021l-32.873,9.988
		l16.004,16.006l-94.127,2.994l-9.037-25.994l-12.955-52.014l-29.879-54.895l-5.123-55.008l24.986-38.975l43.119-48.014
		l42.891-13.99l51.984-29.014l15.027-32.988l-78.008,24.092l-72.078-9.008l37.074-46.979l-212.088-150.027l-57.916-29.994
		l45.941-135.98l84.053-351.006l51.008-129.992l-39.033-128.008l-46.977-20.006l5.986-48.992l48.936-64.996l108.98-1.008l95.047,4
		l5.988-77l8.98-61.916l53.08-57.973l54.922-47.006l-19.92-72.021l-43.982-8.98l-48.992,0.979l-35.004,14.998l-18.998,11.109
		l-48.014,5.01l-107.021,16.004l-208.059,8.98l-60.91-10.996l-89.004-11.082l-31.088-51.898l61.025-120.006l30.973-72.998
		l25.1-56.016l26.887-32.988l70.004-20.006l44.963-18.998l15.025-110.994l-56.994,8.98l-61.889-20.984l-6.102-33.996l-24.986-9.01
		l-19.918-20.006l24.984-19.891l32.01-30.107l24.984-29.994l7.945-20.984l12.09-13.012l21.992-7.916l35.924-19.977l32.93-59.01
		l4.029-39.004l38.918-82.986l35.002-68.998l11.055-30.109l10.938-25.014l55.037-93.006l15.947-79.994l-61.889-32.986
		l-177.086,32.986l-59.986,30.023l-61.947,74.986l7.945,44.99l13.99,56.994l27.979,48.014l26.885,10.018l-32.871,6.994
		l-337.016,172.998l-65.113,56.994l-54-6.016l-99.885,23.029l-81,35.98l-67.934,25.992l-59.066,7.916l-25.906-10.016l22.912-23.893
		l79.102-51.008l74.898-63.988l-148.934-105.008l-94.99,6.016l-29.016,8.98l-35.924,10.018l-25.043,5.096l-29.879,14.996
		l-32.125,13.99l-36.959,13.01l-98.043,13.012l-168.969-66.004l-83.016-5.01l-78.986-27.086l-107.023-40.012l-92.975-11.111
		l-18.02-3.971l-13.99-6.018l14.969-10.996l15.084-25.014l37.074-25.992l8.061-16.006l3.914-27.979l8.061-30.109l-2.994-6.994
		l-29.016-10.018l36.039-33.994l21.014-12.982v-23.029l21.99-28.986l-10.016-17.99l31.029-14.018l2.994-4.002l-18.02-14.996
		l15.025-4.002l15.084-4.002l14.969-9.988l15.025,10.996l70.006-20.984l59.986-18.105l41.049,46.086l123.084-39.982l138.975,17.99
		l67.012,12.004l39.896,6.994l16.004-11.082l-6.908-26.914l0.863-32.01l-0.863-31.002l12.033-89.98l-61.025-185.002l-71.041-90.012
		l-55.959-5.008l-33.045-35.004l41.047-137.994l18.998-33.996l85.031-96.891l20.957,14.996l35.002,14.998l18.998-14.998
		l10.018-14.996l10.018-9.988l17.961-30.023l37.018-56.994l38.055-58.002l42.947-82.008l40.99-62.982l18.998-14.996l17.041-8.004
		l3.855-4l13.012-36.01l19.977-39.982l11.111-23l5.008-44.012l10.018-51.008l10.881-31.002l18.02-33.994l29.879-32.01l34.139-36.988
		l25.85-25.994l19.977-16.896l25.043-43.119l18.078-44.992l16.926-21.992l37.996-45.912l37.133-51.984l8.98-14.02l19.92-31.98
		l-9.039-13.01l-13.875,25.992l-11.168,3.109l-12.953,6.994l-13.875,17.012l-12.09-14.996h-9.039l-19.861,8.98l54.865-85.98
		l53.08-55.008l6.908-25.994l43.119-145.02l51.928-74.984l46.057,4.029l21.992,4.951l46.113,25.016l64.881,31l109.039,40.012
		l39.953,9.988l54.002,25.994l103.049,55.008l140.012,78.986l50.949,65.111l120.898,35.002l57.973,50l33.045,28.008l54.922,43.092
		l66.09,48.906l19.92,60.996l35.924,55.008l30.166,2.992l-2.992,35.004l14.967,42.889l55.959,108.002l-20.955,14.998l-26.021,20.006
		l-13.99,20.004l-8.98,10.996l-78.008,50l-134.023,169.891l-32.988,32.008l-152.906-155.008l-12.09-4.979l-35.002-5.01
		l-35.004,12.982l-9.9,9.01l-9.961-13.99l-39.031-12.002l-30.109,16.004l-3.857,23l-10.018,128.984l-48.014-31.979l-11.975-40.012
		l-18.998,27l-8.117,43.006l9.959-16.006l10.018-9.01l-10.018,41.998l-20.955,14.018l-2.994,18.998l-21.127,24.094l-19.863,28.008
		l-13.01,10.996l-12.09,5.986l-19.92,16.006l-20.033,21.012l-7.889,13.99l-46.113,116.004l-2.994,6.994l-22.969-3.107v10.018
		l31.951,17.99l62.176,29.994l33.967-4.002l39.953-26.971l22.049-44.014l9.096-14.996l37.018-52.016l64.02-59.988l63.959-39.002
		l44.904-26.887l2.994-9.01l22.107-14.996l31.031-16.896l3.855-9.01l11.111,9.988h20.035l30.973-4.98l45.883,10.996l57.109,35.002
		l42.891-3.021l18.02-52.994l143.982-79.994l140.99-21.012l130.051-4.002l39.953,3.023l40.068,5.094l35.924,1.986l100.979,2.016
		l93.033-22.021l18.998-19.977l26.021-27l52.965-63.01l43.121-29.994l121.012-54.002l13.875-9.988l-67.875-17.012l-18.135-9.988
		l157.107-149.021l104.029,93.006l8.982,47.006l2.072-25.014l6.908-24.986l5.986-10.018l9.098-41.996l10.016-66.006l3.916-69.977
		l56.994-214.016l50.086-129.994l54.922-108.002l33.045-93.982l49.971-110.045l86.987-202.992l79.91-122.971l73.055,48.014
		l79.043,35.98l16.008,6.967l-19,14.047l-5.125,48.014l33.047,26.943l17.961,29.016l2.996,143.004l2.07,178.006l25.906,125.992
		l30.168,19.027l19.977,24.986l63.844,51.898l9.156,28.008l148.012,150l70.004,65.082l60.969,41.998l19.859,82.008l12.148,31.002
		l37.996,18.998l28.039-2.992l97.984,4l54.977,9.988l67.875,52.994l2.133,22.02l13.875-16.004l15.023-14.998l22.051-45.02
		l66.953-111.973l32.988-48.014l17.961-6.996l39.035-35.002l5.063-28.986l-3.969-18.02v-12.004l19.918-0.979l51.008-48.014
		l15.082-120.982l-5.988-75.016l27.98-7.887l88.023,6.996l49.973,43.982l36.039,47.006l75.992-158l19.977-66.984l13.875-53.021
		l14.047-24.984l24.984-31.002l-4.027-43.035l-8.984-9.959l14.969-16.004l-2.992-31.031l-19-16.982l-8.98,2.994l35.004-31.951
		l16.004-46.057l-26.02,2.994l-14.969,2.014l16.98-21.012l10.02-135.982l15.887-115.889l47.152-11.109l9.957-7.889l9.902,0.979
		l30.109-51.006l14.969-48.014l-0.922-21.07l15.949,5.066l15.082-1.959l12.031-62.98l8.984-48.936l17.961-48.992l31.145-69.027
		l24.984-48.934l73-71.041l92.977-86.932l0.922-3.973l29.016-8.98l8.98-10.018l15.082-13.988l10.938-19.92l5.988,21.014l8.059,9.037
		h19.922l-32.875,30.973l-9.039,6.104l16.926,18.998l-7.023,10.881l-8.98,18.998l-29.016,60.045l-26.883,106.965l-11.113,102.016
		l-105.008,115.025l-25.906,30.973l-35.922,26.021l-71.043,74.955l-23.891,62.982l-16.004,75.072l-2.016,35.924l-7.023-14.969
		l-40.992-20.035l15.027,169.027l18.996,115.025l30.109,62.98l26.887-35.98l35.004-40.012l75.012-37.996l18.078-11.975l34.023-32.01
		l18.02-47.035l51.008-53.021l2.992,13.012l2.074,4.029l13.012-42.025l20.953,7.023l18.02,5.986l37.133-21.992l6.91-14.967
		l5.066-121.014l24.984,19.977l55.035,46l57.918,89.002l12.953,7.023l101.152,54.002l37.996,23.891l18.996,91.998l4.953,21.992
		l8.98,14.996l-8.98,25.014l-13.992,52.994l-21.012,77.979l-16.004,46.113l-29.879,44.014l-30.109,40.99l-19,18.998
		l-140.988,133.994l-34.023,45.998l-33.969,81.002l13.012,50l29.879,40.01l25.043,28.986l13.934,10.018l18.02,12.982l12.148,13.012
		l92.859,33.994l41.969-5.986l17.039-13.904l46.977-95.02l16.926,50.029l-0.918,15.975l10.938,13.012l13.012,21.992l21.988,4
		l22.973,2.994l5.988,14.018l3.973,4.002l17.039,2.994l30.973,1.008l40.012,5.986l3.973,9.01l10.016,5.008l10.938,3.973l24.066,46
		l7.023-1.986l47.898-18.998l41.105,30.107l33.965,10.881l4.031-9.988l10.938,9.988l8.059,9.01l64.941,29.994l30.973,35.004
		l40.988,36.01l32.012,29.908l27.055,51.984l2.016,5.988l27.117,26.021l14.969,5.988l21.992,16.004l-8.984,9.988l-11.051,48.906
		l2.992,18.02l5.066,6.994l11.977,18.998l10.016,25.992l10.016,30.109l26.023,54.98l14.969,13.01l-3.973,70.006l3.973,14.998
		l13.93,59.986l-6.906,61.918l-9.098-10.018l-2.992-18.998l-31.895-5.988l-40.125,11.111l16.98,35.896l19,32.986l-5.066,14.02
		l-23.949,13.988l-24.984,40.99l10.938-5.986l11.055-14.998l12.031,8.98l-85.031,76.021l-24.984,32.988l-129.996,137.91
		l-43.063,48.992l35.004,54l16.004,31.98l19.977,25.014l62.984,31.002l29.012,24.006l-62.117,39.984l-65.973,14.996l-67.934-7.887
		l-10.02-24.986l-38.973-8.002l-24.988,28.986l-57.973,51.008l-82.035,58.002l16.004,19.891l70.004,33.016l35.004,45.998
		l28.957,32.988l53.023,35.004l37.016-60.996l2.996-60.996l3.109-30.023l4.891-31l47.957,41.018l85.031,45.885l63.039-1.986
		l25.965-5.988l27.113-9.01l19.922-78.008l9.957-52.014l10.02,5.008l56.016-24.006l24.984-0.979l19-5.01l25.098-10.996
		l14.969-44.012l18.02-47.984l45.02-66.004l0.98-67.99l10.938-30.023l44.961-19.977l48.016,11.975l22.969,10.018l19,9.988l13.93,4
		l56.074,59.01l-107.078,189.002l-67.012,66.006l-58.895,44.99l-51.988,44.012l12.09,39.982l54,53.023l11.977,63.988l5.066,78.986
		l11.973,18.02l9.098,14.998l19,20.984l10.879,14.018l16.004,4.98l15.027,3.021l102.012-29.908l88.086,101.008l38.914,143.982
		l8.984,101.008l10.016,114.996l-15.027,79.994l-35.98,62.002l-3.914,14.02l-14.047,21.99l-48.934,132.01l104.086-85.004
		l38.918-55.008l54.977-81l50.953-71.992l41.047-60.996l19.977-36.01l18.996-33.016l42.027-62.982l30.973-29.016l-7.023,36.01
		l21.07,31.002l46.055-25.992l18.02-5.01l-48.012,59.01l-35.004,23l-50.027,38.975l-39.953,60.018l-21.992,60.994l84.973-8.002
		l49.973-16.982l-31.953,27l-73.918,58.98l-127.98,121.012l-102.016,106.994l-70.98,78.008l-34.027,27.98l-72.996,46.113
		l15.023-25.994l12.953-39.004l-2.992-32.008l47.035-73l-57.914,66.006l-62.121,40.988l-90.961,45.021l-108,9.988l-19-55.988
		l-10.016,19.977l-14.969,20.006l-15.141,20.006l-10.883,20.006l-5.984,13.902l-50.031,40.99l-30.105-5.986l-17.965-9.01
		l70.008-12.004l6.906-5.008l3.973-23.979l5.988-18.998l-5.008-22.021l-14.969,12.004l-71.043,40.99l-49.051,61.023l46.059,89.982
		l43.984,98.014l-1.961,24.986l4.953,31l15.082,30.109l21.07,32.01l183.996,3.08l26.02-11.082l14.969,8.002l75.992,4.98
		l75.016,18.02l11.109,14.996l96.027-17.012l33.969-4.002l11.973-20.006l32.012-24.984l97.984,10.996l28.035,4l56.996,5.01
		l-41.051,40.99l-31.949,71.012l11.109,58.98l41.969,37.018l60.047,3.08l47.957-2.102l26.883-13.873l51.008-50.029l29.016-16.982
		l20.035-9.01l6.965,6.994l16.867,26.021l39.035,35.982l17.039,22.02l-36.039,27l-5.066,33.996l44.965-12.004l62.117-79.016
		l-13.012-54.979l-17.961-44.012l-6.102-37.996l-5.066-43.006l-28.961-79.994l-15.023-10.018l-21.992-9.988l2.992-24.006
		l21.992-48.992l159.93-209.988l89.984-81.115l86.988-74.986l67.93-63.01l51.988-48.014l28.957-20.984l16.004,31.002
		l-11.051,101.006v51.986h37.996l-21.016,33.996l-35.98,61.916l42.027,14.998l30.973,12.002l-42.027,43.984l-30.973,78.008
		l32.012-5.01l-56.016,57.023l-70.988,63.99l-66.031,32.008l-67.992,71.992l-19.918,55.986l-2.992,27.002l28.898,10.016
		l14.047,1.008l8.98-16.004l21.07,23l43.984-4.002l40.07,4.002l168.969,5.986l53.023,1.008l13.93,40.99l29.938,48.014l35.004,33.994
		l29.016,20.006l13.988,10.996l26.887,16.004l132.121-2.014l26.887,14.018l-21.992,27.979l-37.996,18.998l-40.012,21.014
		l-149.969,86.988l18.996,29.016l-40.988,66.982l-33.047,21.014l62.98-18.998l127-28.008l120.094-25.992l72.078-27.002l81.98-18.998
		l71.961-2.014l5.125-0.98l43.98-8.002l-6.965,16.006l-16.926,14.996l-5.066,8.98l-29.934,18.998l5.984,23l31.031,17.012
		l-11.109,7.916l-10.941,5.988l-24.063,28.986l-289.922,68.02l-116.984,23.891l-650.082,163.01l-175.016,17.99l-264.938,21.992
		l7.945-20.984l37.074-25.992l46.98-22.021l38.051-22.998l-28.035-2.994l-40.992,6.994l-59.984,17.012l-51.008,13.904l14.969,3.08
		l20.031,6.016l-7.023,9.988l-43.063,1.008l-35,2.994l35,6.994l35.004,7.023l-32.008,2.994l-67.934-10.018l-44.961-13.99
		l-279.965,2.102l-120.035,28.008l-127,59.988l-223.891,9.988l-191.016,7.916l-83.016,21.1l-89.004,25.992l-213.012,28.008
		l-9.957-2.1l-197.984,37.996h-164.996l25.102-13.904l-37.133-1.008l-32.012-14.996l32.012-14.998l18.133-6.994l20.957-20.006
		l27.977-12.982l-29.879,5.988l-50.086,6.016l-83.016-2.014l-84.973-9.01l-67.875,1.006l-66.148,10.996l-16.004,10.018l-7.887,6.994
		l-5.988-17.012l-14.047-56.994l-166.953,83.016l-48.016,30.973l-13.988,13.012l-196.027,55.008l-16.98-1.008l-37.02,9.988
		l-70.004,14.02h-48.016l-12.953-5.01l-9.039-5.008l20.035-23l20.035-17.99l-180.137,4.002l-75.016,5.008l-5.984,9.988l2.992,14.998
		l-268.969,2.992l-83.016,48.906l-46.113,13.99l-51.008-18.998l-23.891-13.99l-35.004-0.893l-4.027-20.006l-26.828-24.984
		l-88.141-1.008l30.109,9.988l32.008,13.012l94.992,59.988l52.965,36.01l-64.883,58.002h-12.09l-5.008,18.998l-27.98,4
		l-27.113,6.996l-140.875,17.012l-145.999-8.002l-18.998,4.979l-28.037,49.021l-9.096-10.018l-59.01,5.096L15976.755,12879.911
		L15976.755,12879.911z M16752.801,12638.894l-16.926-9.988l-32.93,9.988H16752.801L16752.801,12638.894z M15178.833,12257.894
		l-16.006-8.98l-35.98,19.977l-18.02,8.002L15178.833,12257.894L15178.833,12257.894z M21417.828,12118.892l-8.984-4.002
		l-7.023,14.02L21417.828,12118.892L21417.828,12118.892z M21227.844,11948.915h-35l7.023,9.988L21227.844,11948.915
		L21227.844,11948.915z M17749.801,11221.892l33.047-129.994h-5.988l-4.031,17.012l-10.016-20.006l18.02-20.006l6.043-8.002
		l-18.078-27l-48.875-35.982l-38.977-42.025l-37.074-37.996l-63.039-0.979l5.988,10.996l66.148,43.004l20.953,28.986l15.027,35.004
		l6.965,20.984l21.016,176.02L17749.801,11221.892L17749.801,11221.892z M15826.843,10499.903l-8.982-14.996l-15.141-21.014
		l-15.025-14.998l-14.969-31l-15.082-19l-2.994,59.988l5.986,6.018l44.1,43.09L15826.843,10499.903L15826.843,10499.903z
		 M15885.794,10501.89h-24.986l12.033,5.008L15885.794,10501.89L15885.794,10501.89z M16022.812,10488.907l-14.969-4l-18.998,13.988
		L16022.812,10488.907L16022.812,10488.907z M16082.8,10489.915l-19.979-7.916l-19.861,9.01l19.861,8.002L16082.8,10489.915
		L16082.8,10489.915z M14879.813,10472.903l-18.998-1.008l5.986,6.016L14879.813,10472.903L14879.813,10472.903z
		 M14802.841,10428.89l-10.879-9.988l-4.031-9.988l26.021-5.008l24.986-18.998l19.92-37.018l-2.016-40.99l-29.879-24.006
		l-30.166,6.016l-13.934,54l-9.902,60.996l2.994,20.006L14802.841,10428.89L14802.841,10428.89z M14767.724,10378.892
		l-21.014-14.998v35.002L14767.724,10378.892L14767.724,10378.892z M14737.845,10300.911l-24.121,65.977l15.025-21.992
		L14737.845,10300.911L14737.845,10300.911z M14463.812,10076.907l42.947-51.008l18.076-21.992l-28.094-10.996l-19.92-6.016
		l-26.021,12.004l-47.955,62.002L14463.812,10076.907L14463.812,10076.907z M13222.944,8933.909l-10.018-14.998l-4.029,14.998
		l10.018,14.996L13222.944,8933.909L13222.944,8933.909z M17072.719,8178.905l-3.859-10.018l-11.168,10.018l4.031,9.988
		L17072.719,8178.905L17072.719,8178.905z M13826.739,7900.899l-8.98-9.01l-9.039,9.01l9.039,7.916L13826.739,7900.899
		L13826.739,7900.899z M18517.844,7419.872l-5.008-16.006l-10.02,9.039L18517.844,7419.872L18517.844,7419.872z M18727.801,7328.911
		l7.023-20.035l-21.988,20.035l-7.027,19.977L18727.801,7328.911L18727.801,7328.911z"/>
	<path fill="#DDDDDD" d="M18172.824,12659.907l48.016-27l26.02-9.01l-15.141-14.998l-12.953-10.996l28.961-5.008l105.008-5.01
		l79.965,11.025l-151.988,39.982l-51.984,14.998L18172.824,12659.907L18172.824,12659.907z"/>
	<path fill="#DDDDDD" d="M20392.848,10392.909l-10.02-9.01l-10.016-5.096l14.047-6.994l79.906-118.02l5.066-20.004l-18.078-14.998
		l-24.984-21.1l2.074-23.891l-15.086-37.996l3.973-20.006l56.996-42.891l41.969-9.01l20.035,14.998l-26.023,36.01l-40.07,25.992
		l27.059-2.994l31.031,1.986l75.129-9.988l67.875-14.996l5.125-4.002l3.914-12.004l5.988,24.008l37.996,55.986l66.09,37.996
		l-16.004,5.096l-13.012,40.012l16.004,40.012l13.012,5.008l-20.035,14.996l-25.965-34.023l-23.891-2.994l-24.984,4.002
		l-78.125,6.994l-126.996,63.012l-89.004,50L20392.848,10392.909L20392.848,10392.909z"/>
	<path fill="#DDDDDD" d="M20542.758,10053.907l-10.938-9.01l-5.066-18.998l-5.008-32.01l5.988-24.984l9.039-33.996l9.957-16.004
		l25.965-20.006l4.031-140.01l-13.992-44.992l-26.883-28.008l-35.004-21.992l-21.992,37.018l-28.094,13.99l-2.016-36.01
		l13.992-11.082l5.008,8.98l-26.887-58.002l1.957-41.998v-16.982l-24.063-2.016l-64.941,1.008l-72.996-9.988l-57.977-12.004
		l-72.02-81l-17.961-26.021l-12.09-31.002l-35.922-28.986l-23.031-20.006l26.945-29.994l37.074-24.008l3.914-4l21.07-48.992
		l26.945-54.002l22.969-17.99l21.992-15.025l22.969,13.012l20.035,90.01l-4.027,74.986l32.008-4.002l55.035-14.998l28.902,54.002
		l15.082-9.988l26.945,16.004l6.965,39.004l4.895,19.977l11.109-8.002l63.961-58.98l28.035,29.994l22.973,32.01l-5.066,34.973
		l-19.922,15.025l19.922,2.994l19.977-12.004l45.02-6.016l44.961,25.014l0.922,25.016l15.082-28.008l31.031,9.01l37.02,7.887h32.008
		l8.98,25.992l3.973,24.008l-8.98,36.01l-21.129,43.982l-3.914,36.012l-3.973,31l-21.012,39.004l-19.977,36.99l19.977,8.088
		l19.918,4.002l-10.016,10.996l-9.902,49.02l-65.055,116.982l-64.941,80.916l-13.988,13.01l-30.109,5.988L20542.758,10053.907
		L20542.758,10053.907z M20592.844,10024.892l-15.082-9.988l-15.027,4.002l15.027,9.988L20592.844,10024.892L20592.844,10024.892z
		 M20409.773,9463.899l-31.031-18.998l-15.027,20.006L20409.773,9463.899L20409.773,9463.899z M20336.773,9433.905l-38.918-6.016
		l36.961,20.006L20336.773,9433.905L20336.773,9433.905z M20249.844,9416.894l-5.988,6.016l4.949,12.982L20249.844,9416.894
		L20249.844,9416.894z M20278.859,9411.913l-48.016-53.021l-5.125,13.012l-29.879,14.996l-33.043,13.902l49.164,4.002l55.957,13.99
		L20278.859,9411.913L20278.859,9411.913z"/>
	<path fill="#DDDDDD" d="M13136.935,9553.911l-56.074-14.998l-37.996-10.018l-21.07-9.988l15.025-48.014l57.053,6.996l37.996,21.012
		l5.066,13.99l14.969,28.008l13.01,28.008L13136.935,9553.911L13136.935,9553.911z"/>
	<path fill="#DDDDDD" d="M19725.84,8076.89l1.957-191.881l-7.832-3.021l-10.016-73.979l62.98-89.004l10.02,16.984l7.023,10.018
		l-7.023-31.002l10.016-51.008l9.902-4l-35.922,4l-21.074,14.998l15.086-37.105l45.883-69.977l51.984-28.035l-16.004,86.01
		l4.953,29.016l34.082-10.018l0.918-24.986h25.965l21.992-2.014l18.02-9.99l-5.008,28.01l40.988-20.006l25.965-60.996l-5.988,8.002
		l-33.965,51.986l6.906-35.982l15.086-48.014l8.98-27l32.008-2.994l22.914,15.027l-5.988,37.996l13.992,32.988l-22.973,38.975
		l-13.93,29.016l14.965-10.018l29.016-0.979l2.016,29.994l-31.031,5.986h-30.051l-38.918,10.018l-15.082,10.996l-50.027,9.988
		l-48.879,9.01l40.992,17.99l11.973,5.01l-51.984,32.008l-19.863,51.986l21.992,28.008l13.875,116.982l-16.004,64.018
		l-32.875,32.988l-39.031,5.008L19725.84,8076.89L19725.84,8076.89z"/>
	<path fill="#DDDDDD" d="M20072.758,7547.907l29.016-40.012l24.063-35.98l-18.078,3.973l-19.918-30.973l20.957-35.924l14.047-28.959
		l27.977-40.068l29.016-23.949l7.023-33.045l-18.996-20.955l-25.102,7.943l-9.902,9.039l-3.109-32.01l-5.988-24.121l-18.02-12.953
		l-32.984,0.979l-43.984,10.018l-26.023-27l-24.984-15.027l-29.016-11.975l-12.895-43.004l-5.125-43.006l32.008,5.988l15.027,36.039
		l15.082-2.016l24.988-12.031l19.918,2.992l15.082,16.006l19,11.111l18.996-62.119l26.887-73.979l50.145-25.963l22.855-26.021
		l28.035-1.037l8.059,32.01l-4.949,45.02l3.855,48.014l16.984-15.025l15.027-37.018l15.023,18.02l10.02,43.004l9.957,27
		l-51.871,172.02l-2.129,31.951l-10.879,31.031l-21.992,13.012l-23.027,5.008l-16.008-15.025l-5.984,13.01l0.918,32.01
		l21.074,32.988l29.016-4.031l-19,31.031l-20.035,56.016l-58.949,54.979L20072.758,7547.907L20072.758,7547.907z"/>
	<path fill="#DDDDDD" d="M19892.848,7499.894l9.961-16.004l7.023-61.025l21.992-40.99h18.02l19-5.986l-6.047-39.953l-7.828-37.133
		l23.832-19.977l18.02-15.027l35.98,19.977l21.074,35.004l3.969-10.018l49.109-3.973l-8.98,54.002l-25.102,51.984l-19.918,37.996
		l-20.035-9.959l-19-10.018l-13.008,25.043l-19,24.986l-48.875,14.969L19892.848,7499.894L19892.848,7499.894z M20049.844,7406.86
		l-5.988,6.045l4.895,12.953L20049.844,7406.86L20049.844,7406.86z M20042.82,7333.862l-10.02,5.123l-9.957,25.043l9.957-5.066
		L20042.82,7333.862L20042.82,7333.862z M20059.859,7336.913l-6.102,5.986l5.066,13.012L20059.859,7336.913L20059.859,7336.913z
		 M20019.848,7316.937l-6.043,5.986l5.066,13.012L20019.848,7316.937L20019.848,7316.937z"/>
	<path fill="#DDDDDD" d="M19706.84,7428.909l-26.02-62.002l-13.012-37.996l-1.957-8.004l-98.102-101.035l3.973-33.967h11.113
		l49.969,61.025l50.027,60.967l63.961,62.002l6.047,32.01l-19.922,32.01l9.902,19.977l10.02,3.973l-19.922,8.117L19706.84,7428.909
		L19706.84,7428.909z"/>
	<path fill="#DDDDDD" d="M16716.762,7316.937l3.973-16.006l12.031-23.027l-15.023-13.012l-15.027-4.951l10.016-11.053l0.922-54.979
		l24.066-183.016l80.02-14.969l64.883,86.01l-65.977,157.973l-13.988,23.027l-67.012,65.977L16716.762,7316.937L16716.762,7316.937z
		"/>
	<path fill="#DDDDDD" d="M19555.719,7110.892l-23.891-43.982l-21.992-37.996l-18.078-29.016l-35.004-46l-12.895-30.973
		l-15.141-14.047l-41.969-14.967l-34.887-15.027l-19-21.012l-40.125-68.971l-85.031-53.885l-49.973-17.041l-16.004-3.973
		l-10.016-57.973l-8.98-28.037l-32.988-6.908l-40.012,9.039l-23.027,13.01l-55.957-35.002v-156.016l51.867-86.01l19.059-27.979
		l5.984-81.116l82.961-48.014l42.027-18.998l24.984-21.013l23.891,5.008l39.031,15.142l21.992,9.901l15.086-9.901l14.969-11.169
		l21.07-5.987l48.934-33.967l61.023-4.029l43.984,23.949l12.031-22.05l22.973,7.023l5.008,46.978l11.109,56.131l6.91,39.954
		l34.082,80.943l43.984,32.01l2.992,53.078l59.066,89.004l8.059,59.01l-36.039,57.973l-13.816,49.971l-9.152,56.074v36.959
		l42.027,43.984l11.109,30.109l-4.031,23.891l59.012,31.031l-21.992,18.998l-69.027,43.006l-19.977,4.949l-10.879,17.041
		l-23.031,43.006l-18.996,35.98L19555.719,7110.892L19555.719,7110.892z"/>
	<path fill="#DDDDDD" d="M17907.773,6958.907l127.922-186.01l57.051-77.029l44.961-44.961l42.949-38.977l50.086-127.92l108-192.111
		l76.914-113.011l27.059-35.981l89.004-95.048l121.012-76.972l45.941-3.972l2.992-40.99l-29.016-15.026l-16.004-16.982l35.98-15.026
		l62.121-38.975l35-13.933l57.918-16.004l59.066-13.011l127-17.962l213.93-34.082l15.086-5.987l12.895-7.023l44.098-9.902
		l47.898,5.987l15.082,13.933l19.922-26.943l15.082-2.072l14.969,8.06l38.055-16.982l57.973-15.026l70.004,5.066l35.004,13.932
		l-8.059,7.023l18.996-2.993l69.086,2.993l24.984,2.994l223.891-1.958l67.988,13.875l25.91,8.117l25.098,1.957l88.027,13.012
		l-102.016,13.011l-57.973,7.023l-28.039-17.041l-31.027-20.955l-130.973,17.962l-56.996-13.99l-9.957-2.015l-19,7.023
		l-26.023,5.009l5.066,9.96l4.031,11.168h-13.012l-56.992,1.958l-61.027-8.981l-18.996-10.018l-16.984-7.023l-21.012,5.987
		l-51.008-10.823l-21.992-22.049l-2.07,25.043l-45.941,30.973l-44.965,20.034l-70.004,17.962l-48.012,17.962l16.98,13.011
		l78.066,28.037l-73.922,8.117l-101.09,13.011l-35.926,8.981l-20.035,11.975l-30.051-7.888l-43.984-22.049l-67.012,3.914
		l-50.027,23.028l-32.871,24.985l-55.039,18.998l-35.004,5.987l-33.965-0.863l-40.125,2.994l-2.996,28.036l10.02,107.944
		l35.98,108.98l59.008,23.949l-9.039-2.016l-14.965-2.13l-2.074,20.034l-13.934,13.99l-34.078,60.046l-59.988,3.857l5.984-37.018
		l18.078-10.881l-21.992-5.125l-30.109,5.988l-7.887,11.168l-15.082,24.986l-15.027,45.02l-22.969,28.957l-41.914,13.875
		l-5.063,31.029l5.984,73.979l-9.039,28.037l-9.957,9.959l-16.926,8.117l-25.102,21.014l-24.984,20.033l-40.012,17.963
		l-15.027,21.014l-19.977,22.971l-31.031,13.01l-30.973,2.994l-28.094,15.025l-16.004,21.129l-8.98,10.822l-59.988,59.068
		l-48.012,36.959l-23.031,13.012l-8.98,15.082l-10.016,27.98l-29.879,36.039l-69.027,23.027l-72.078,18.998L17907.773,6958.907
		L17907.773,6958.907z M19632.805,5732.893l-14.969-3.972l-15.082,10.017l15.082,3.973L19632.805,5732.893L19632.805,5732.893z"/>
	<path fill="#DDDDDD" d="M16182.856,6809.858l9.902-35.867l3.971-18.998l5.125-21.014l10.881-17.961l-10.881,2.994l-5.125-2.994
		l6.045-37.996l40.07-3.109l-8.117,21.07l-16.006,15.027l-18.02,72.02l-5.986,24.984l-3.973,30.975L16182.856,6809.858
		L16182.856,6809.858z M16232.827,6678.886l-10.018-9.959l-10.018,9.959l10.018,10.018L16232.827,6678.886L16232.827,6678.886z"/>
	<path fill="#DDDDDD" d="M20392.848,6643.019l-15.086-65.111l-9.902-38.975l4.953-10.938l4.031-14.969l-5.988-26.021l12.895-2.072
		l8.059-10.018l-18.996-22.914l-24.984-32.008l64.938-11.975l11.055-2.131l7.945,31.031l21.988,60.104l15.086,22.912l-5.066,37.074
		l11.055,61.889l-30.055-16.004l-22.047,25.043L20392.848,6643.019L20392.848,6643.019z"/>
	<path fill="#DDDDDD" d="M20148.863,6589.019l-55.035-36.039l-93.035,12.033l-77.949,13.988l-47.094,10.939l-15.887-23.949
		l-17.043-11.975l-49.969-56.994l-8.117-18.135l-3.973-28.959l-12.035-53.021l-16.004-54l-40.988-94.013l-4.895-27.059l4.895-44.041
		l24.121-12.032l24.984-32.93l-8.98-86.931l41.91-61.024l35.926,42.025l26.02,207.886l19-37.996l16.926-56.994l21.07-46.113
		l23.949-44.905l29.016,19.919l27.98,20.035l-2.996-17.041l-7.023-78.986l39.035,0.979l14.965,35.981l2.074,21.992l7.945,44.041
		l-19,35.003l-38.918,48.877l-26.02,70.005l-19.977,65.111l24.984,13.875l35.98,31.088l45.02,23.949l22.914,14.969l-56.016,20.033
		l-59.988-13.932l-54.98-25.1l-48.934-0.922l-21.07,31.031l-15.027,51.984l146,44.906l200,13.01l25.043,43.121l18.996,50.027
		L20148.863,6589.019L20148.863,6589.019z"/>
	<path fill="#DDDDDD" d="M20457.844,6230.933l-37.02-15.026h-8.059l-19.918-3.972l-5.125-29.016l15.141-18.02l34.887-13.011
		l35.004,24.122l19.977,2.993l38.977-5.066l53.02-15.025l48.016,2.993L20457.844,6230.933L20457.844,6230.933z"/>
	<path fill="#DDDDDD" d="M20301.77,5754.885l-64.016-10.881l-75.016-24.985l-61.887-40.126l-54-42.891l-21.129-39.032l-2.996-22.971
		l123.027,54.001l79.102,51.007l112.953,70.006L20301.77,5754.885L20301.77,5754.885z"/>
</g>
<g id="australia" transform="translate(0,239) scale(0.016963,-0.016963)">
	<path fill="#DDDDDD" d="M20712.82,6428.858l-46.977-28.957l-18.078-0.979l-44.902,3.971l59.988-63.959l49.969-25.043l93.035-38.977
		l51.871-5.986l-29.879-6.045l-35.004-8.98l-30.109-10.018l-50.027-15.947l25.043-18.998l24.984-25.043l11.109-15.025l3.918-9.96
		l16.004-44.041l24.984-6.966l21.07-5.009l-3.973,13.932l-3.051,21.071l45.02-2.994l55.039-33.045l47.898-18.998l186.066-89.004
		l11.977-30.052l14.047-37.018l7.887-18.02l8.117-35.002l-17.043-35.003l-68.969-87.968l100.98,0.922l40.012,11.975l72.133-43.984
		l91.996-48.935l61.891-5.065l24.121,2.993l13.875-10.018l-10.02-29.879l3.051-10.017l21.992,51.007l9.961,18.998l10.016,16.005
		l8.984,9.96l9.094,18.076l95.914,67.934l44.039-16.983l47.094-32.873l16.867-22.106l8.117-18.998l14.969-30.973l8.98-21.071
		l10.016-8.98l21.992-24.064l52.047-37.018l76.91-11.111l51.93-13.932l108-3.973l-1.957,9.039h-23.027l-1.957,8.98l-28.094,21.992
		l-29.938,30.108l-16.98,21.992l-25.043,26.886l-25.965,18.076l-42.891,35.924l-51.008,78.123l-37.996,56.994l35.004,21.992
		l35,18.02l-56.07,57.973l-31.953,16.983l-43.121,21.071l-20.953,30.973l13.012,25.101l8.98,15.889l-15.086,4.03l-35,8.06
		l-19.922,32.009l-8.98,5.009l-24.121,9.96l-35.004,15.025l-31.949,15.026l-67.934,30.052l-97.121,39.032l-51.871,18.998
		l-13.012,5.009l-40.988,15.947l-109.039,43.177l-97.984,21.992l-35.004-31.088l-30.973-18.076l-26.02-7.83l-16.984-30.167
		l-32.871-40.99l-36.039-20.955l-33.969,47.898l-17.039,34.081l-23.027,21.014l11.168,6.965l3.855,5.01l-9.902,57.973
		l-30.109,53.021l-48.992,15.143L20712.82,6428.858L20712.82,6428.858z"/>
	<path fill="#DDDDDD" d="M21454.844,5536.866l-16.867-37.996l-28.152-57.973l-22.855-73.978l-14.047-53.022l-14.969-75.993
		l-66.031-215.024l-19-30.973l-56.074-43.12l-64.016,40.012l-57.859,40.068l-32.008,25.043l-26.023,24.985l-20.035,25.044
		l-23.832,9.959l-49.051,31.03l-48.879,47.093l19.863,20.955l29.016,43.984l20.035,17.04l4.949-20.034l46.117-18.998l-5.988,61.945
		l-21.129-7.944l-14.969,14.047l11.055,23.892l35.922,41.969l10.02,54.922l-10.02,23.028l-5.984,11.975l-10.883-8.981
		l-21.129-13.932l-14.969,8.98l-34.023-8.06l-41.969-9.902l-34.023,11.975l-35.98,13.011l-26.023,8.981l-11.973,15.025l-10.02,2.994
		l-21.012,2.993l-19.977,12.032l-8.98,13.99l-25.043,11.11l-25.102-2.993l-12.031-5.124l26.02-35.981l14.047-42.947l-65.168-9.96
		l-52.965-4.029l-11.977-8.981l-62.117-75.014l-15.023-24.985l-21.074-21.992l-21.988-35.002l-8.984-32.01l-35-24.985l-50.031-7.023
		l-7.887,5.009l-10.016,21.992l-16.004,18.998l-31.09,35.981l-43.98,5.987l-16.008-11.975l-69.023,5.008l10.016-9.959l9.961-21.992
		l-14.969-3.915l-15.086,1.958l-19.918-11.054l-20.035-21.07l-5.984-21.992l-59.988-70.005l-2.996-35.924l-37.074-0.922
		l-29.938-4.029l-3.973-16.005v-26.021l0.98-18.998l-13.988-16.868l-12.035,25.043l-13.93,41.854l-44.043-37.996l-37.016-72.999
		l-32.012-70.869l-50.949-62.118l-129.016-60.909l-66.09-18.135l-43.98-16.868l-38-15.083l-51.004-10.881l-45.02-5.124
		l-19.922-9.038l-47.09-28.958l-67.934-45.883l-49.973-44.042l-12.09-25.964l-5.988,29.879l-16.004,15.083l-35-91.997l-24.988-66.09
		l-7.023-129.015l-7.887-56.995l-18.02,39.033l-10.016-24.985l-9.961-25.101l-11.109,25.101l-5.988-18.999l21.07-72.998l19-82.153
		l10.016-80.886l5.988-59.988l-2.996-148.991l-15.082-123.085l-13.012-26.943l-51.008-65.976l-28.898-26.021l8.98-43.983
		l25.043-18.077l97.984-45.94l98.043,23.892l60.965,25.043l35.984,22.106l215.023,28.9l85.953-5.066l44.039,45.021l59.988,43.983
		l21.992,9.038l32.988,15.947l45.02,22.049l49.973,8.981l193.031,44.041l103.109,16.005l116.98-16.005l37.02-18.02l50.027-18.998
		l50.086-23.028v-11.975l1.957-48.014l13.012-104.028l16.004-38.976l35.004-5.987l89.004,89.004l59.988,44.962l51.926,39.032
		l-5.988-11.11l-13.008-22.971l-25.906-35.003l-40.129-50.892l-37.016-43.12l-36.961-26.886l9.902-11.11l43.063,6.966l37.996,35.003
		l29.938,35.002l-21.016-78.064l10.02-35.924l40.012-27.059l-5.988-67.933l-9.039-70.005l34.023-42.026l21.07-16.983l40.992-8.981
		l48.012-10.017l27.98-21.992l70.004,13.011l53.023,18.02l43.117-25.906l36.961-34.082l21.016,3.973l216.004,103.972l123.141,67.012
		l24.984,38.976l24.988,39.032l45.02,52.965l91.996,99.941l156.016,146.977l36.961,31.03l27.977,40.99l62.121,85.089l22.91,46.977
		l92.977,175.014l20.035,70.005l-5.125,24.985l-9.957-13.989l25.961,105.008l3.973,22.971l19,42.026l18.996,51.007l-5.984,3.915
		l-52.965-8.981l-9.098,18.999l-13.93,30.051l-21.074,29.937l-18.02,22.971l-16.004,18.998l-5.984,54.001l-13.992,51.986
		l-25.906,9.038l-21.992,2.015l-13.012,27.979l-14.047,67.012l-1.957,35.981l10.883,22.971l-15.949,18.998l-86.008,59.988
		l-19.918,10.938l-14.051,7.023l-8.98,5.987l-29.016,48.992l-3.973,31.031l-2.012,16.004l-11.055,117.961l-2.016,145.998
		l-19.977,29.016l-10.016,29.879l5.066,23.028l-27.059,11.054l3.973-9.097v-9.902l-26.887-0.979l-8.117-8.98l-16.004-10.018
		l-12.031,50.028l16.004,44.963l12.031,32.987v41.911l-0.98,40.126l-9.898-69.142l-7.027-26.827l-7.023,23.834l-6.965,28.094
		l6.965,47.035l-6.965,2.993l-32.008,37.018l-0.863,35.981L21454.844,5536.866L21454.844,5536.866z M19092.797,4193.87
		l-3.973-14.969l-9.961,14.969l3.973,15.025L19092.797,4193.87L19092.797,4193.87z M20992.844,3173.899l-17.043-10.881l19,25.907
		L20992.844,3173.899L20992.844,3173.899z"/>
	<path fill="#DDDDDD" d="M20848.801,2950.931l-30.051-79.908l-15.891-61.023l-8.117-59.988l31.031-45.021l97.063,35.924h13.012
		l39.953,18.077l27.176,43.983l18.996,16.005l26.828,23.028l30.168,57.915l-49.164,40.99l-111.977-5.009l-29.879,24.122
		l-7.023,16.868L20848.801,2950.931L20848.801,2950.931z"/>
	<path fill="#DDDDDD" d="M22099.113,2406.662c18.883-9.441,11.34,34.6-7.313,12.147c-13.355-16.063-24.238-30.628-45.367-38.054
		c6.68-4.606,29.824,3.799,37.594,5.814c5.645,1.611,16.063-0.23,19.977,5.411c6.332,9.154-5.699,12.608-12.09,8.924
		C22094.277,2402.862,22096.695,2404.819,22099.113,2406.662"/>
	<path fill="#DDDDDD" d="M22056.566,2482.252l11.918,4.317l11.227,5.93l-7.195-8.463l-8.754-7.484l11.055,4.722l11.227,3.972
		l-16.063-7.254l-11.281-12.896l21.758-4.548l20.898,2.36l17.215,2.936l0.633-16.695l11.113,2.188l10.992,0.921l4.031-9.269
		l-4.375-11.803l13.816,3.052l14.336-0.115l3.742-4.605l6.219-4.088l35.52,6.333l34.484,11.111l8.23,5.987l8.637,6.851l16.984,6.563
		l16.348,7.83l13.012,10.189l14.566,7.6l16.063,2.648l13.297,8.348l-7.484-2.764l-7.598-2.303l36.73,26.252l33.793,30.397
		l17.559,11.283l17.215,11.859l15.945,17.617l15.66,17.904l35.75,22.97l39.492,16.351l21.359,6.966l20.727,8.002l15.313,9.902
		l15.719-2.303l-7.484-2.994l-7.66-2.648l19.289-0.287l18.133-1.209l10.824,12.665l-17.156,9.557l13.125,12.953l10.48,16.178
		l27,15.429l28.496,13.011l21.531,15.025l19.863,17.041l18.652,11.571l19.746,9.614l12.551,8.176l10.016,10.65l16.754,12.435
		l18.594,10.018l10.133,18.94l8.691,19.574l20.844,10.766l18.707,13.413l-18.191-10.938l-19.285,0.115l20.438,5.469l11.227,15.429
		l-11.055-4.49l-8.863-6.045l-9.328-5.239l6.91-1.554l-11.227-2.648l-11.055-3.167l15.371,11.111l-1.727,8.463l9.039,3.742
		l7.484,6.333l-20.094-7.196l-19.457-8.693l-19.52-10.766l-20.895-3.569l14.277,19.977l8,21.704l-11.688-1.842l-6.332,6.678
		l14.105,14.22l19.805,1.899l-39.262-4.605l-36.328-21.358l-12.32-13.241l-11.055-14.508l-17.039-16.811l-19.055-14.68
		l-19.52-10.938l-21.301-6.735l-18.594-11.572l-15.082-16.407l-36.441-35.061l-41.281-29.303l-19.34-9.729l-20.383-7.254
		l-22.453-10.189l-21.758-11.917l-47.613-21.935l-48.301-20.438l-47.551-16.465l-46.461-18.769l-33.219-17.155l-19.344-26.137
		l-16.234,2.993l-18.535-12.263l-20.957-8.865l-11.285-13.587l-11.57-0.46l-10.363-5.527l-9.555-7.542l5.523-4.49l-9.383-7.427
		l-6.563-11.226l4.375,7.139l-7.945-1.324l-1.207,7.771l-4.605-1.208l-10.191-10.075l-13.527-8.175l11.684,0.633l11.516,3.052
		l-11.629-4.318l-11.57-4.26l7.598-1.209l7.543,1.209l-7.715-2.994l-8.059-2.072l0.055-6.16l-19.113-4.029l-15.254-5.009
		L22056.566,2482.252"/>
	<path fill="#DDDDDD" d="M22936.184,2887.258l-1.27-7.657l-1.555-7.483l9.73,2.993l9.73,2.821l-0.23-8.405l-4.953-6.908
		l27.176,1.496l25.504,14.854l35.809,23.373l34.023,26.022l16.293,13.126l18.305,9.671l12.723,8.866l10.996,11.342l16.004,9.557
		l15.488,10.822l16.926,17.387l17.27,17.099l1.27,19.113l21.758,18.825l36.73,13.011l19.461-17.041l17.902,23.719l19.113,23.489
		l10.996,4.375l10.996,4.146l14.797,11.687l11.801,14.738l18.711,24.64l20.957,21.935l5.238,9.269l-7.371,8.232l-20.09-0.863
		l-18.883-9.787l-36.672-21.301l-40.531-1.497l-26.77,13.472l-21.934,16.982l14.563,36.154l2.707,28.843l7.887,6.103l8.75,4.663
		l-8.402-0.863l-8.234-2.016l1.785,11.745l-3.168,11.283l-5.352-3.8l1.152-5.814l-3.34-10.132l-6.852-8.981l-7.141-20.725
		l-15.023-13.875l-3.629,8.232l3.109,11.917l-14.68,9.787l-20.324,1.094l5.93,4.778l7.891,7.945l5.641,10.65l6.219,10.305
		l9.211,7.254l3.453,9.384l-5.699,17.099l3.395,16.695l-5.93,1.669l-0.977,5.124l8.059,1.728l8.926-6.218l7.254,26.194l2.07,27
		l-7.195-1.209l-7.195-0.172l1.84-3.973l1.785-3.973l-3.914-0.69h-4.031l1.039,10.708l7.598,5.124l-10.824,10.766l-11.457-2.188
		l-10.535,11.803l0.348,6.217l-11.227-3.454l-8.867-9.384l3.34,22.107l-4.836,22.452l7.543,1.727l4.719,6.218l-16.004-1.899
		l-11.973-5.124l2.012-10.189l3.168-10.075l2.418-24.525l-14.219-15.141l2.531-14.681l1.094-14.737l13.531,9.384l10.996,11.341
		l-11.055-13.701l-12.438-14.393l4.148-33.448l1.266-34.14l10.477,7.369l-1.84,15.544l7.254-4.202l4.258-7.254l4.723,6.908
		l11.109,1.67l-7.254-4.663l7.254-4.606l-6.504-2.475l-6.621-2.016l-2.418-6.218l8.406,1.324l-6.449-11.226l-6.563-11.111
		l-3.742,7.081l-0.578,8.002l-9.383-21.358l-2.82-26.194l13.527,3.627l10.883-3.627l-6.734-9.729l-10.48,5.527l-8.633-13.184
		l5.008-11.342l-8.52-7.599l-4.32-10.881l-1.609-6.16l-1.555-6.218l-5.473-8.002l-6.563-6.679l-3.973-11.168l-4.66-10.363
		l-4.031-0.058l-3.973,0.058l-7.828-7.714l-7.313-8.232l-19.977-27.634l-23.086-24.468l-30.973-10.766l-31.836-10.42l-11.055-9.499
		l-5.469-13.241l6.734-11.111l12.32-6.966l10.363-12.32l13.586-9.096l12.32-11.802l-1.266-17.559l-22.914-32.067l-31.203-24.87
		l-12.031-11.514l-13.586-9.211l-15.66-7.082l-12.031-11.859l8.637-0.115L22936.184,2887.258"/>
</g>
<g id="europe" transform="translate(0,239) scale(0.016963,-0.016963)">
	<path fill="#DDDDDD" d="M13608.722,13129.909l-48.877-16.004l-138.111-59.01l-18.02-1.986l-11.053-3.021l13.01-11.975l35.004-4.002
		l43.982,18.998l14.969,9.988l16.004-17.99l32.01,4.002l9.096,4l8.98-17.012l77.951-4.002l63.961-2.992l21.012-9.01l48.014,14.018
		l24.986,14.998l51.006,20.984l-18.998,9.01l-22.912,9.988l-132.066,20.004l-6.045,14.998l-22.971,14.996L13608.722,13129.909
		L13608.722,13129.909z M13727.835,13078.903l-43.984-19l-26.021,1.008l24.984,7.975l10.018,10.018l10.018,9.988
		L13727.835,13078.903L13727.835,13078.903z M13472.798,13064.913l-9.959-11.025l-10.018,4.002l10.018,10.996L13472.798,13064.913
		L13472.798,13064.913z"/>
	<path fill="#DDDDDD" d="M13264.854,13084.89l-25.906-18.998l-4.029-6.994l-11.975,9.988h-145.02l32.01-12.982l27.115-9.01
		l-2.131-8.98h114.047l15.889,10.996l10.018-9.01l82.096-20.984l15.889,9.988l-44.904,4l-16.004,9.988l32.871,16.006l13.012,9.988
		l-25.965,10.018l-18.998,9.988L13264.854,13084.89L13264.854,13084.89z"/>
	<path fill="#DDDDDD" d="M11772.866,13040.905l-52.043-8.002l-44.904-10.018l7.945-24.984l2.992-9.01l-24.984,16.004l-36.039,11.111
		l-27.979,2.994l-61.947,4l-84.973-4l-21.07-17.012l32.008-41.998l25.965-23.979l-27.115,15.977l-32.93,6.994l37.074-30.08
		l37.996-5.008l78.066-47.006l40.01-27.98l56.996-20.006l89.98,9.988l19.92,29.994l59.066,50.029l9.039,11.082l85.031-21.992
		l5.066-28.008l32.93-10.996l38.975-9.01l69.949,10.018l28.035,8.98l12.033,10.018l-35.004,9.988l-34.023,15.891l-31.029,12.002
		l-24.986,3.023l-108.002,43.982l-5.066,6.018l75.072,4.979l205.986,14.02l21.992,9.988l13.01,28.008l-157.973,8.088l-11.111,2.016
		l-54-4.002l-15.025-4L11772.866,13040.905L11772.866,13040.905z M11860.835,12990.907l-13.934-10.018l-21.99,16.004l13.932,10.018
		L11860.835,12990.907L11860.835,12990.907z M11662.907,12923.896l-18.076-5.096l-18.998,13.99l18.998,5.008L11662.907,12923.896
		L11662.907,12923.896z M11592.903,12898.909l-9.961-10.018l-10.018,10.018l10.018,9.988L11592.903,12898.909L11592.903,12898.909z"
		/>
	<path fill="#DDDDDD" d="M14243.72,12841.886l-47.955-19.977l-148.992-24.006l-174.033-28.008l-102.994-41.998l-16.004-16.004
		l-43.984-74.986l-32.008-16.004l25.1-9.988l8.98-10.91l-45.02-25.992l-11.053-25.016l-7.945-30.107l-24.984-23.893l49.971-32.988
		l14.047-4l21.992-18.998l35.924,1.986l8.059-2.994l99.941-36.01l138.055,6.016l-11.975,8.088l-12.09,2.016l-34.025,20.984
		l-40.01,18.998l-27.98,23l-22.105,67.99l10.016,10.016l119.057,120.006l29.016,17.99l197.004,62.119l127,79.994L14243.72,12841.886
		L14243.72,12841.886z M13729.792,12622.89l-18.998-0.979l6.045,5.986L13729.792,12622.89L13729.792,12622.89z"/>
	<path fill="#DDDDDD" d="M12237.919,12437.917l-22.971-4.031l-40.012-16.982l-18.076-10.018l-26.021,12.004l-73-20.006
		l-73.92-20.984l-16.004-11.111h-5.988l-89.002-13.99l-37.076-18.998l-50.029-35.002l-5.008-27l-2.994,6.994l-19.977,6.016
		l-16.004,8.004l-53.021-5.01l-38.977-36.01l-5.123-8.98l-81.98-32.902l45.02,2.994l35.004,10.91l30.051,5.094l29.938-1.008
		l-15.027-9.01l-15.025-18.998l-50.086-55.008l-49.971-44.99l-20.035-13.904l-19.861-31l-67.012-66.006l-12.953-10.881l0.922-16.004
		l-51.928-43.982l-60.047-27.002l-31.951-3.021l-26.021-10.996l-8.002-10.996l-24.008-21.992l-29.016-16.004l-24.984-14.998
		l-24.986-16.004l-8.059-4l-38.975-14.02l-31.953-93.982l13.934-70.006l7.023-20.006l-0.979-65.975l8.98-20.006l40.012-45.02
		h151.006l76.971,46.027l43.121,37.996l5.986,0.979l18.998-23l13.99-35.002l19.92-51.986l20.033-33.016l35.004-44.992l24.984-39.982
		l-10.018-18.02l-7.023-13.01l-72.998-20.984l-67.012-17.012l6.045,24.121h10.996l10.016-12.004l4.951,14.998l5.125,14.996
		l-9.961,35.004l-10.938,35.002l-1.037,64.996l-8.059-9.988l-13.932-10.018l-25.965-14.996l-41.047-14.998l-50.951-148.012
		l2.016-36.988l-2.994-20.984l18.998-3.023l13.934-4.98l-11.055-16.004l0.979-15.025l-50.949-38.975l-61.023-8.117l-54.002-10.881
		l-98.014-60.018l-151.006-138.082l-58.002-52.014l-47.984-47.008l-52.016-29.879l-68.996-7.023l-41.998,21.014l-21.014-16.004
		l-21.992-73l-49.998,8.002l-112.982-13.988l-3.021-59.01l13.01-10.018l13.012-3.973l60.994-31l5.988-14.998l5.008,9.988
		l47.006-9.988l8.982-20.006l3.107-16.004l16.006-25.014l15.889-8.982l9.01-10.016l2.994-9.988l9.01-12.004l4-23l-22.02-152.992
		l-69.084-47.006l-277,18.998l-59.01,9.01l-68.996-13.012l-35.004-20.006l-31.002-52.992l12.004-93.006l-50-181l-8.98-12.982
		l-2.016-30.109l1.008-29.906l8.98-14.998l13.012-12.002l2.994-93.006l36.01-24.006l66.004,8.002l78.986-44.992l76.021-36.01
		l141.996,47.006l78.094,1.008l32.01,29.994l45.883,36.01l46.115,44.014l27.979,38.975l25.014,15.025l-2.014,27.979l-9.99,68.998
		l110.996,118.02l67.012,27l63.988,86.988l-9.988,32.01l167.012,27.979l91.998,14.998l61.945,36.01l39.031,25.014l24.064,23
		l105.93-49.021l13.012-35.002l-5.988-33.996l-5.986-20.006l18.998,6.016h24.064l16.004-27l19.918-13.988l19.979-8.004
		l123.027-87.016l48.992-27.002l41.969-27.979l16.004-16.004l29.936-26.914l45.021-56.994l4.951-47.986l-9.902-21.012
		l-164.076-36.99l-75.992-23.92l118.02-70.006l18.998-12.98l30.973-20.006l35.98,47.006v41.998l26.887,18.998l69.084,58.002
		l19.918,23.891l-4.951,63.01l-12.031,40.012l41.91,21.992l32.988-13.012l20.035-24.984l25.963,4.98l-104.086,102.014l-59.01,50.979
		l2.016,19.027l-50.029,2.992l-77.949,39.004l-35.004,54.002l-62.117,70.984l-37.996,77v20.004l22.971,43.006l48.934,4.002
		l-2.994-33.996l41.969-27l9.039-8.002l9.959-28.008l10.018,13.988l12.033,27l5.066-9.988l8.98-32.986l4.029-23.029l55.959-49.971
		l31.029-20.006l43.121-21.1l24.984-1.006l-24.984-8.004l6.908-9.01l37.996-10.994l24.064-9.988l67.932-36.99l51.93-38.025
		l-5.988-61.887l21.992-79.016l15.025-23.979l15.141-40.01l28.9-16.006l0.979-67.99l2.131-25.014l15.889-23l27.059-5.986
		l45.02-59.01l30.973-28.986l23.949-9.01l9.961-14.998l10.016,9.988l9.961,10.018l10.018-25.014l10.016-24.986l-7.023,94.992
		l-1.957,18.02l31.895-13.012l12.09,20.984l16.926,17.012l19.977,16.006l12.031,6.994l16.006-6.016l15.082-4.98l14.969-32.01
		l16.004-4l-5.066,37.996l-21.07,14.018l-40.99,40.99l-28.957,23l-31.031,29.994l-19.977,29.994l-37.018,72.02l35.004-16.004
		l37.996-16.006l10.938,2.994l10.018,13.012l5.066,6.994l9.902,10.91l-2.994,35.002l28.094-1.008l-4.029-4l-11.975-2.994
		l32.93,7.887l37.996,6.994l56.994-23.891l84.053,13.902l54.002,20.006l45.939,12.004l-22.912,28.986l-59.066,106.994l9.959,32.01
		l18.998,27.115l22.971,52.992l31.031,62.004l26.885,37.996l30.109,56.994l30.109,44.992l24.984,12.002l24.986-14.996
		l107.021-28.008l27.117-7.887l-15.084-9.01l-42.947-40.99l52.043-13.99l19.861-34.023l26.021-28.986l37.998,12.004l32.986,16.004
		l29.938,9.988l40.99,9.988l33.965,15.025l51.008-27l32.01-18.02l32.93-14.996l32.93-14.998l32.01-16.004l48.934-5.988l63.098-7.023
		l66.896-25.992l81-36.01l99.885-22.971l54.002,5.986l65.111-56.994l357.107-162.002l-20.035,12.004l-111.973,104l-94.992,136.988
		l-63.039,87.996l-1.957,13.01l19.92,36.99l83.016,58.002l11.975,10.016l89.982,73.979l59.988,32.01l-24.986,27l-27.115,59.01
		l-30.973,72.998l-61.023,120.006l31.088,51.898l89.002,11.082l60.91,10.996l208.115-8.98l107.023-16.004l48.014-5.01l18.998-11.082
		l34.945-15.025l48.992-0.979l43.984,8.98l19.918,72.02l-54.922,46.979l-51.928,58.031l-10.018,61.887l-5.986,77l-94.992-4
		l-109.037,1.006l-48.936,64.998l-5.986,48.992l47.035,20.006l38.975,128.006l-51.008,129.994l-84.053,351.006l-45.939,135.98
		l57.914,30.021l212.09,149.971l-42.027,52.016l-227.977,78.008l-169.027,35.98l-62.98,11.111l10.018-32.01l30.973-15.975
		l108-49.021l-11.975-24.986l-18.998-14.996l-10.016-9.01l-15.084,12.004l-31.895,54.979l-6.102-15.975l-27.98-12.004
		l-50.027-14.998l-57.973-6.994l-61.945-13.01l-37.076-7.889l-10.938,40.99l-21.992,5.988l-62.061-13.99l-54.002-17.012
		l-73.92-24.986l-59.988-22.998l-59.988-45.02l-14.967-27.002l-89.926,7.023l-27.115,14.998l32.01,33.994l37.996,10.996
		l-34.023,25.994l-107.082,31.002l-51.928-16.984l29.938-49.021l24.984-53.971l16.004-51.008l-28.898-2.016l-41.105,10.996
		l-20.955,16.006l-32.01-14.998l-48.014-31.002l-43.984-22.998l-29.014-23l22.969-21.992l-53.078-28.008l-78.008,25.994h-43.984
		l0.979-39.982l13.875-10.018l29.016-9.988l35.002-14.998l-103.051,5.988l-53.021,18.998l-18.02,13.01l-20.035,32.01l-8.98,36.988
		l-52.965,52.994l-31.088,18.998l76.973-4.002l327.977,1.008l10.018,75.992l-100.057,49.021l-35.924,10.996l-36.039,16.004
		l-79.965,28.986l-137.018,30.109l-92.861,23l-84.168,16.982l-55.957-1.986l-45.02,4.98l32.93,12.033l28.094,20.984l-136.096,36.988
		l-9.902,4l-34.082,11.025l-48.934-22.021l-16.982-8.002l-26.887,28.008L12237.919,12437.917L12237.919,12437.917z
		 M12282.823,12418.89l-10.881-9.988l-3.973,9.988l11.055,10.018L12282.823,12418.89L12282.823,12418.89z M12392.897,12424.905
		l-35.002-6.016l13.932,10.018L12392.897,12424.905L12392.897,12424.905z M11932.911,12328.907l-15.082-4.002l-14.969,9.988
		l14.969,4.002L11932.911,12328.907L11932.911,12328.907z M11832.854,12308.901l-16.926-10.018l-2.992,10.018H11832.854
		L11832.854,12308.901z M11726.927,12242.897l-4.031-9.01l-9.959,16.004L11726.927,12242.897L11726.927,12242.897z
		 M11805.913,12251.907h-24.986l11.975,5.008L11805.913,12251.907L11805.913,12251.907z M12251.851,12032.911l30.973-24.008
		l-20.955-13.01l-17.041-8.004l-78.008-78.986l-13.99-8.002l-72.998-36.01l-21.992-4.98l9.096-17.012l0.922-20.006l-5.008-33.994
		l18.02-36.988l5.986-69.027l13.99-49.971l15.025-10.018l31.951-17.99l37.018-17.012l77.029,9.01l87.967,14.996l21.992,5.01
		l76.107,16.004l94.99-14.02l-13.01-31.979l-27.059-16.006l-150.027,0.979l-132.01-59.988l-2.992-17.012l-15.025,20.006
		l-12.09,13.012l-39.955-18.02l-4.029-20.984l-8.98-27.088l21.992-25.014l24.063,12.004l19,8.98l45.939,10.018l21.992-9.01
		l-8.98-99.885l-42.947,33.996l-66.092,22.998l-56.994-136.988l-45.883-80.021l-16.982-14.998l-23.949-27.086l-51.008,12.004
		l-149.971-14.998l-72.02-25.014l-92.977,25.014l-124.006-18.998l-44.963-10.91l48.936,39.984l13.932,10.016l21.07,14.998
		l10.018,9.988l-18.076,2.994v9.01l5.986,21.1l5.066,6.994l13.012,18.02l7.943-8.117l51.008-24.986l48.934,20.006l73.922,44.99
		l37.133,17.992l9.959,2.014l13.01-10.016l31.031,89.002l-11.111-5.986l-17.961,9.988l13.932,87.996l23.949,14.018l26.885,8.98
		l28.094,10.018l21.992,23l15.025,27l1.957,35.002l-71.961,52.994l-29.016,66.004l7.023,43.006l27.979,44.99l29.016,28.986
		l90.961,45.02l47.092,35.982l22.914,43.004l8.98,39.004l32.008,25.994l8.119,5.008L12251.851,12032.911L12251.851,12032.911z
		 M11472.927,11936.911l-63.098-58.002l2.994,14.998l5.123,14.996l15.027,20.006L11472.927,11936.911L11472.927,11936.911z
		 M11289.853,11822.894l-18.998-0.979l5.988,5.988L11289.853,11822.894L11289.853,11822.894z M11502.862,11198.892l-16.004-13.99
		l-9.039,4.002l-3.973,9.988l-10.938,9.01l19.92,4L11502.862,11198.892L11502.862,11198.892z M12104.931,11196.905l-12.088-2.102
		l18.998,18.998L12104.931,11196.905L12104.931,11196.905z M11452.892,11179.894l13.932-2.994l-39.953-18.998l0.922,21.014
		L11452.892,11179.894L11452.892,11179.894z M11107.817,10999.899l-16.006-11.109l2.994,14.018L11107.817,10999.899
		L11107.817,10999.899z M13332.845,10519.909l-42.025-14.02l-7.887-9.988l23.027-21.012l5.988-16.006l-23.029-35.98l-65.975-21.014
		l-68.049-4.979l-30.051,16.896l-21.014,27.086l26.885,29.016l56.996,32.902l49.049,11.082l105.986,23.92L13332.845,10519.909
		L13332.845,10519.909z M12202.915,9785.89l3.916-11.975l-14.969-15.025l-16.004-1.986l-10.018,32.008l13.012,14.998
		L12202.915,9785.89L12202.915,9785.89z M12392.897,9808.89l-2.072-9.99l-22.914,9.99H12392.897L12392.897,9808.89z
		 M12329.915,9772.907l-18.998-1.008l5.988,5.988L12329.915,9772.907L12329.915,9772.907z M12349.835,9736.897l-5.986,5.986
		l5.064,13.012L12349.835,9736.897L12349.835,9736.897z"/>
	<path fill="#DDDDDD" d="M9508.835,12092.897l-36.012-16.982l-19.891-14.018l-8.088-12.982l-28.008-15.025l43.984-11.975
		l9.01-29.016l-51.9-24.008l16.004-9.988l5.01,7.887l75.992-12.002l-17.012-35.982l-24.986-13.902l47.986-11.111l79.014-12.004
		l167.99-5.986l145.998,48.014l129.014,83.879l-30.107,31.002l-23.893,21.014l-8.117,8.98l7.023,16.004l-17.012,10.018
		l-43.006,4.002l-44.99-5.01l-21.992-14.996h-85.002l-72.02-17.992l-15.891,0.979l-35.002-4l-14.998-16.004l-20.006-2.994
		l-18.105,9.01l-31.98,40.012L9508.835,12092.897L9508.835,12092.897z"/>
	<path fill="#DDDDDD" d="M10369.825,11781.905l2.014-28.01l16.984-5.986l-4.98-18.998l4.98-21.014l10.996,2.994l4,23l4.002,14.996
		l5.008,14.998l10.018,18.02l-9.01-2.016l-14.996-1.986L10369.825,11781.905L10369.825,11781.905z"/>
	<path fill="#DDDDDD" d="M10583.841,11535.907l-10.994-24.008l-75.016-21.012l-40.01-18.998l-65.977-57.975l-25.014-5.008
		l-1.986-28.008l10.996-18.998l-3.023-9.988l9.01,5.986l14.998,2.994l-28.986-21.992l-35.004-21.012l20.006,1.006l19.977-4
		l18.02-18.998l-10.016-14.998l-27.98-20.984l33.996-12.031l25.992-12.982l-9.988,4.002l-10.018-2.994l30.023-12.004l23.979-9.01
		l-14.998-16.004l2.102-20.984l17.99-13.012h75.016l13.988-31l-1.986-66.984l-48.014-2.014l-37.996-5.988l10.018-5.008
		l-12.004-25.016l-22.998-21.99l24.984,4l-9.988-45.912l8.98-51.986l40.012-23.891l-68.998-48.992l-35.002-26.021l-28.986-23.893
		l60.996,5.988l50.977,10.018l45.021,12.98l85.98,14.998l71.012,5.008l43.006,6.018l127,42.975l-14.998,11.025l-1.006,32.988
		l36.988,75.992l-88.975,18.998l-4.002,3.021v44.992l-12.004,39.004l-54.922,54.979l-27.086,38.025l-55.986,71.992l1.986,50
		l20.004,25.992l16.006,28.008l-56.016,36.01l-64.998,9.988l5.01,9.988l37.104,20.006l17.99,20.006l12.004,23l25.992,32.986
		L10583.841,11535.907L10583.841,11535.907z M10392.823,11398.89l-10.996-9.988l-4,9.988l11.111,10.018L10392.823,11398.89
		L10392.823,11398.89z"/>
	<path fill="#DDDDDD" d="M10255.923,11220.911l-52.994-61.916l5.008-9.988l-51.006-6.016l-54.002-13.99l2.994-23v-17.99
		l12.004-33.016l-14.998-59.988l-28.986-66.004l2.994-12.004l9.01-5.008l16.982-4.002l128.008,26.914l77,24.094l43.006,38.916
		l12.002,78.096l24.986,50.977l6.994,67.904L10255.923,11220.911L10255.923,11220.911z"/>
	<path fill="#DDDDDD" d="M11358.823,10186.894l-30.973-21.99l-26.943-24.094l28.037-86.902l-10.018-30.109l-35.004-5.986
		l-12.953-6.018l7.945-37.996l8.98-39.004l7.023-96.891l34.025,5.988l27.979,12.004l28.037,95.998l-15.027,82.008l-6.965,51.986
		L11358.823,10186.894L11358.823,10186.894z"/>
	<path fill="#DDDDDD" d="M12379.944,9561.884l-7.023-22.971l42.025-24.006l47.957-17.012l60.045-1.986l40.99,31l-6.045-9.01
		l-11.053,2.016l-68.971,17.99l-53.078,12.004l-13.932,2.994l-16.926,5.008L12379.944,9561.884L12379.944,9561.884z"/>
</g>
<g id="southamerica" transform="translate(0,239) scale(0.016963,-0.016963)">
	<path fill="#DDDDDD" d="M5180.825,7544.913l-27.979-27.979l-14.02-18.135l-39.004-19.861l-60.994-20.035l-41.998-14.969
		l-28.008-9.037l-86.988-127.979l-9.988-8.117l-39.004-37.018l-30.109-26.021l-23-35.004l-38.111,30.168l-129.993,77.949
		l-9.01-27.979l25.015-42.027l31.002-32.008l17.012-10.824l-1.008-9.039l14.996-79.965l25.994-37.996l6.994-215.023l1.008-26.021
		l-21.992-89.063l-9.01-13.01l-35.002-26.943l-35.003-35.98l-14.997-28.037l-9.988-28.959l-39.004-40.988l-45.999-56.016
		l-14.997-43.984l-14.997-30.109l-20.005-35.98l-14.997-21.014l1.986-89.004l21.099-29.016l32.01-40.011l9.988-11.054l10.017,11.975
		l5.096,6.103l-17.991-37.996l-50-42.026l-32.009-83.017l20.006-55.958l4.979-39.032l34.024-51.007l71.991-72.999l48.992-81.06
		l55.008-105.008l51.986-101.898l18.02-40.069l19.977-32.93l20.006-36.039l9.01-22.971l77-132.009l60.996-111.974l240.988-153.021
		l32.01-18.02l35.002-27.058l35.002-26.943l35.004-36.96l62.09-88.082l31-342.024l-8.002-25.043l8.002-24.985l12.004-443.981
		l6.994-51.985l8.002-80.022l14.998-97.984l20.006-67.012l10.018-18.998l9.988-41.969l1.008-62.981l-16.006-220.033l-5.008-73.921
		l-16.004-16.982l-8.982-21.014l21.1-43.983l13.904-29.016l25.992-58.03l20.006-71.963l25.992-150.027l6.996-19.978l-5.01-29.879
		l12.004-62.118l64.018-37.018l-1.008,35.003l-3.914,13.932l-5.096,15.084l-4,14.968l-4.002,12.032l4.002,24.122l10.018,8.98
		l4,10.018l9.988-21.128l10.996-13.875l5.01-8.117l4-42.89l14.998-83.017l16.982-56.994l-6.994-15.083l-25.994-9.902l-2.992,23.892
		l-33.996,41.969l-5.008-11.975l-2.994-37.996l-23.92-18.998l-0.979-21.992l50.977-34.082l-11.082-25.043l-6.016-29.879
		l-7.887-44.099l-9.01-29.937l36.01-5.065h25.992l32.01-5.987l4.002-8.981l4-16.005l-26.021-66.032l-13.99-18.02l6.996-13.99
		l26.021-51.985l6.994-6.908l35.004-72.078l21.99-41.911l16.006-30.109l21.992-2.993l17.99-41.048l7.916-30.052l22.998-22.913
		l43.006-28.094l45.998-16.926l31.002-18.998l8.088-8.98l-55.008,5.987l14.018-24.064l40.99-19.92l23-16.982l3.109-13.012
		l43.982-27.115l29.908-13.874l23,15.946l-23.893,10.938l-19.113,4.03l51.008-13.011l9.988-27.979l15.025-15.025l31.98-23.028
		l32.008,0.979l9.99-2.993l17.012-16.005l36.01-12.09l36.988-6.908l14.998-5.066l16.004-5.009l9.01-3.972l44.99-8.981l59.988-12.032
		l23-6.045l-12.004,21.071l39.004,9.959l51.008,10.018l9.988,15.025l20.006,14.969l16.004,14.968l-1.986-14.968l4.002-14.969
		l15.975,19.978l-34.973,19.861l-219.027,115.025l-47.984,62.981l-22.998,27.979l-85.004,123.143l24.986,26.885l25.014,69.027
		l47.006,88.082l25.994,40.99l-9.988,29.879l-54.002,46.171l-108.002,58.952l66.006,101.093l21.99,25.906l1.986,14.048l-4,49.971
		l-16.006,43.063l30.023,28.036l44.992,28.958l4,50.028l-54,13.99l-44.014-6.103l-23.977,53.079l-16.006,57.053l48.992-12.032
		l113.99-3.973l14.018,54.001l-4.002,40.989l-10.994,54.001l0.979,13.011l11.111,3.973l39.002,12.032l244.99,88.024l9.01,27.059
		l-8.002,124.927l-31.002,54.001l-72.105,73.978l-36.99,37.018l16.006,2.994l51.006-18.02l31.98-8.981l114.996-26.021
		l130.916,73.978l12.98,31.03l45.021,91.019l40.99,65.976l28.008,49.107l-13.904-5.009l-44.012-29.016l19.918,37.996l24.986,54.923
		l16.004,21.991l10.996-22.913l9.01-27.979l24.986,37.018l60.016,137.88l34.082,160.045l-5.986,145.998l90.988,92.977l30.023,15.025
		l29.994,16.926l35.002,3.915l35.004,4.029l-11.025,10.018l-4.98,8.98l189.004,51.986l59.988,28.036l37.996,43.984l25.014,40.068
		l69.977,177.892l7.916,76.108l12.004,66.896l25.992,181l-4,129.993l28.008,125.043l54.893,80.022l67.012,113.989l121.99,169.889
		l-2.992,219.976l-31.002,93.034l-64.998,13.874l-145.996,86.01l-110.018,82.959l-98.992,22.049l-70.004,5.124l-36.99,7.829
		l-33.994,9.039l-80.023,15.083l-15.889-3.973l-41.998,40.99l-12.004,27.059l-14.996,25.906l-9.988,11.168l-10.018-10.018
		l-82.008,35.004l-7.889,0.979l-13.988,2.994l-83.018,25.963l-73.891-51.928l-4,21.992l-21.992,67.932l-51.008,26.943
		l-25.992,20.035v71.963l-17.012,56.994l-33.996,30.109l-35.002,118.881l-40.012,70.121l-56.994,46.979l-67.99,55.035
		l-44.014,16.006l-160.994,13.988l-128.008,50.951l-52.992,39.031l-9.01,23.029l-18.998,43.982l-129.994,75.992l-24.006,29.994
		l-13.99,51.986l-23,17.041l-18.105,7.945l-29.908,12.031l-21.99-2.014l-9.99-2.994l-6.016,26.943l7.916,16.004l33.996,14.969
		l-75.994,10.994l-102.014-5.986l-8.002-13.012l-23.891-25.963l-96,25.963l-85.002,8.004l-85.002-7.023v26.021l-86.988,65.975
		l-23,23.027l-26.021,29.994l-13.875-38.975l-27.115-40.012l-56.994-27.115l-22.998-4.029l-2.994,17.041l-10.018,19.977
		l16.004,19.977l44.014,47.035L5180.825,7544.913L5180.825,7544.913z M5222.823,7308.876l-30.082-49.971l-19.918,39.033
		l6.016,59.986l17.99,20.957l13.012-22.971L5222.823,7308.876L5222.823,7308.876z M5409.839,5115.913l12.982-37.018l-15.977,2.994
		l-19.025,16.983l-17.992,20.034L5409.839,5115.913L5409.839,5115.913z M7342.843,4468.94l-4-10.018l-10.996,10.018l4,9.959
		L7342.843,4468.94L7342.843,4468.94z M6969.933,3817.016l-5.986,5.987l4.979,13.011L6969.933,3817.016L6969.933,3817.016z
		 M6247.831,2779.025l-13.99-10.017l-21.014,10.017l14.02,9.902L6247.831,2779.025L6247.831,2779.025z M5706.843,2613.915
		l-14.996-8.981l11.082,24.064L5706.843,2613.915L5706.843,2613.915z M5687.845,2577.876l-13.01-3.973l-2.016,24.985
		L5687.845,2577.876L5687.845,2577.876z M5732.837,2544.888l-14.998-9.959l-14.996,3.972l14.996,9.96L5732.837,2544.888
		L5732.837,2544.888z M6182.833,1909.025l55.01-32.009l6.994-11.111l-14.998-22.97l-11.109,11.053l-23.893,7.023l-17.99,13.012
		l-4.002,59.987L6182.833,1909.025L6182.833,1909.025z M6117.837,1909.89l-23-10.881l4.002,13.932L6117.837,1909.89
		L6117.837,1909.89z"/>
	<path fill="#DDDDDD" d="M6797.942,2059.859l-35.004-2.993l-2.014-8.981l-2.994-32.987l13.99-31.03l62.002,23.027l24.008,16.926
		l1.008-54.922l66.982,28.9l31.002,42.026l-62.982,16.004l-60.996,5.987L6797.942,2059.859L6797.942,2059.859z"/>
</g>
<g id="northamerica" transform="translate(0,239) scale(0.016963,-0.016963)">
	<path fill="#DDDDDD" d="M9262.837,13217.905l-270.004-13.01l-164.996-12.982l-55.008-4.002l-24.986,3.08l24.986-21.1l7.916-20.984
		l-23.922,10.996l-24.984,5.988l-33.018,9.01l-20.984,4l-30.107-10.018l-31.002-15.889l-16.006-8.98l-104.979-1.008l-13.01,1.008
		l-113.012,11.975l-176.998-11.975l-51.986,0.979l-25.994,24.006l-49.998,12.004l-354.115,12.982l-532.984-27.979l-82.008-5.01
		l-95.998-1.986l-133.016-14.996l-183.996-26.021l20.006-8.982l20.006-14.018l32.988-23.979l12.004-11.023l-33.996-12.982
		l-9.01,0.979l-20.984,17.012l-43.004,24.008l-67.99,20.004l-55.01-10.016l-41.018-9.988l-34.082-10.018l-21.992-10.996
		l-67.904-17.99l-44.012-41.998l29.016-28.008l12.982-9.988l2.102-31.002l152.014-26.021l163.988-29.879l-23.893,4l-105.008,5.988
		l-9.01-25.992l-15.975-14.998l-77-8.002l-59.01-8.002l-45.998-17.99l12.002-3.023l4.002-4.98l-26.021,4.002l-62.982,9.988
		l-51.006,4.002l-31.002,10.996l-28.986,9.01l-106.016-9.01l-20.006-12.982l2.016-6.016l24.984-56.996l-72.998-9.01l-68.998-5.008
		l29.016,26.021l12.002,42.891l-36.01,2.992l-25.014-1.986l-120.984-6.016l-54-30.08l-9.988-9.01l-5.01,14.998l-60.994,33.016
		l-41.998-43.006l4.98-6.994l68.996-33.016l40.012-16.984l73-15.025l86.01,19.027l31,7.973l5.988-11.975l5.008-18.998l5.988-14.018
		l2.102-20.006l14.996,9.01l49.021,2.994l77,22.998l12.982,37.018l-1.008,14.998l12.004,18.998l94.012-2.102l4-17.99l-29.014-13.012
		l-31.002-54l235.002-14.998l191.018,5.01h20.984l175.012,11.082l59.988,48.906l-274.004,14.996l-87.996-8.002l-54.002,8.002
		l-47.984,25.994l28.008,8.002l133.994,8.002l186.988,2.994l79.994,1.006v-10.994l40.012-4.002l37.996-5.008l2.994-19.979l31,19.979
		l28.008,20.004l85.004,37.018l-25.994,8.982l-18.998,4l27.979,10.018l52.016,16.004l79.994,19.979l74.006,25.014l16.982,2.994
		l38.025,5.008l24.986,10.996l40.012,24.006l159.986,41.998l86.988,19.977l46,18.02l255.006,58.002l25.014,1.008l50,4.98
		l165.082,28.008l-12.002-20.006l-73-15.891l-289.98-58.002l41.998-12.002l45.998-9.988l-140.01-41.02l-332.986-51.986l-27-14.018
		l25.992-10.996l44.012-12.004l23.979-8.088l-50-5.988l-59.988-7.023l20.006-8.98l20.006-13.01l127.979-75.016l44.012,6.018
		l24.986,1.986l40.012-3.973l243.09-7.023l72.998-28.986l16.006-33.996l4-20.006v-18.998l-5.008-6.016l-16.984-10.996l23-4.002
		l-7.916-16.982l-24.986-22.021l23,6.018l5.988-14.02l-4.002-28.986l-6.994-9.988l-9.988-24.121l-16.006-27.98l-13.988-42.918
		l50-12.004l41.996-4l-9.01-3.08l-16.004-5.01l21.1-10.908l17.012,18.02l6.994,16.982l6.996-12.004l20.004-12.982l25.016-20.004
		l-22.021-10.018l-128.986,1.008l5.988-14.998l-14.998-1.008l-22.998-2.992l-13.99-34.111l-18.998-24.984l31.98-17.992l86.01-3.021
		l35.002,47.006l-20.004,18.02l17.99-5.01l34.023-12.002l1.986-71.992l-66.004-21.014l-74.008-25.992l-32.986-31.002l-55.008-66.004
		l18.018-14.996l-5.008-9.01l-33.994-54.002l2.992-27.979l13.012-14.998l11.082-8.002l2.994-14.996l-4.002-37.018l2.016-47.006
		l4-14.998l20.006-60.994l5.988-29.994l2.014-29.994l19.979-39.004l26.021-45.021l14.996-25.992l37.996-10.996l112.004-35.002
		l17.99-20.006l39.004-15.977l87.996,29.994l21.992,21.992l18.02,20.006l39.002,51.986l39.982,61.023l32.01,36.99l51.986,35.002
		l45.02,31.002l16.982,18.998l21.014,33.994l16.004,40.012l1.986,17.99l64.998,33.996l41.018,9.01l38.975,12.982l7.025,1.006
		l68.996-13.902l14.998,10.018l14.996,10.996l9.988,4l23,1.986l67.012,27.115l105.008,61.889l77,50l37.996,21.992l18.998,3.021
		l52.994-7.023l336.008,76.021l48.992,19.977l75.992,29.016l68.02,28.008l-58.002,6.994l-125.014,24.986l20.006,24.006
		l25.992,21.992l32.01-17.99l9.01-24.986l125.992-11.023l13.99,50.027l-34.082,60.996l-7.916,10.996l44.99,28.008l5.01,8.98
		l12.004,18.998l66.004,31.002l32.008,43.006l6.996,6.994l33.994,1.008l101.986,47.984l27,8.002l22.021,2.994l-10.018,10.018
		l-9.988,9.988l-23,10.018l-36.01-41.02l-48.992-1.986l13.01,20.006l-7.916,90.99l32.01,24.006l28.986-20.006l4.002-9.01
		l6.016-12.982l17.99,9.988l25.994,30.109l10.996,17.992l-40.99,18.998l-44.992,8.002l13.99,2.994l35.002,3.021l-13.01,17.99
		l-32.988,21.014l-21.014-0.922l-4.979,20.006l63.988,13.99l33.996,11.023l10.996,16.984l-2.994,9.01l54,22.998l50,14.998
		l43.092,17.012l32.008,15.977l29.908,9.01l40.012,8.002l75.992,21.014l-64.018,38.975l-129.994-6.996l-51.006,9.988l-8.982,9.01
		l-13.01-12.002l-16.006-16.006l-14.996,9.01l-16.982,17.014l-12.004-4.002l-40.098-25.992l-38.025-5.01l11.111,25.994l7.916,15.918
		l31.98,9.988l-59.988,20.006l-106.016,19.977L9262.837,13217.905L9262.837,13217.905z M8869.835,13143.899l-23-8.002l1.986,13.988
		l20.006,8.002L8869.835,13143.899L8869.835,13143.899z M9832.839,13138.89l-35.002-8.98l5.008,8.98H9832.839L9832.839,13138.89z
		 M6809.831,13122.886l-19-0.979l5.988,5.988L6809.831,13122.886L6809.831,13122.886z M6859.829,13050.894l-49.998-22.998
		l-20.006,5.008l83.016,25.994L6859.829,13050.894L6859.829,13050.894z M7017.831,13058.897l-10.996-9.988l1.986-14.998l-8.002-4
		l-16.982,25.992L7017.831,13058.897L7017.831,13058.897z M6852.835,12991.913l-6.994-7.023l-18.02,16.006l8.002,8.002
		L6852.835,12991.913L6852.835,12991.913z M6832.944,12974.901l-10.018-11.111l-9.988,4.002l9.988,10.996L6832.944,12974.901
		L6832.944,12974.901z M6642.935,12933.911l-23-14.996l9.01,14.996H6642.935L6642.935,12933.911z M7615.841,12871.909h-25.014
		l12.004,4.98L7615.841,12871.909L7615.841,12871.909z M7465.843,12861.892h-25.016l12.004,5.096L7465.843,12861.892
		L7465.843,12861.892z M5817.839,12797.903l-14.998-4.002l-2.014,14.996L5817.839,12797.903L5817.839,12797.903z
		 M5659.837,12782.905l-18.998-1.008l5.988,5.988L5659.837,12782.905L5659.837,12782.905z M9617.929,12608.899l-4-9.988
		l-10.996,9.988l4.002,9.988L9617.929,12608.899L9617.929,12608.899z M9595.938,12578.905l-2.102-45.02l-9.01-8.002l-21.992,24.006
		l-17.012,28.008l27.115,9.988L9595.938,12578.905L9595.938,12578.905z M9685.833,12581.899h-29.906l12.002,5.008
		L9685.833,12581.899L9685.833,12581.899z M9689.835,12562.901l-18.998-1.008l5.986,6.016L9689.835,12562.901L9689.835,12562.901z
		 M7807.925,11930.896l-17.992,6.996l5.988,5.094L7807.925,11930.896L7807.925,11930.896z"/>
	<path fill="#DDDDDD" d="M5872.847,12989.899l-45.02-17.99l-19.891-27.117l-15.111-20.006l79.014-9.988l83.996-14.996l47.984-10.91
		l52.014,29.908l-16.004,44.012l-56.994,18.998l-44.99,9.988L5872.847,12989.899L5872.847,12989.899z"/>
	<path fill="#DDDDDD" d="M5455.837,12944.907l-52.014-25.992l45.02-7.916l-57.023-6.994l-78.986-14.998l82.01-25.992l85.98,38.975
		h21.014l27,5.008l16.004,12.004l37.996,9.988v20.006L5455.837,12944.907L5455.837,12944.907z"/>
	<path fill="#DDDDDD" d="M5032.927,12869.894l-225.99-51.986l-56.018-9.01l-56.994-10.994l-4.979-31.002l33.994-9.01l28.986,5.008
		l21.014,5.988l31.98-5.988l13.01-8.002l6.996-16.004l52.014,10.018l25.994,4.979l-27.088-15.975l-10.908-19.92l59.986-13.012
		l40.012-14.967l171.992-12.033l210.994,25.014l143.004,32.01l-13.99,44.992l-47.006-2.016l16.006,23.92l-5.096,36.988
		l-2.016-12.002l-4.979-4.002l-49.021-3.973l-51.986-30.109l-6.994-10.016l-5.01-23l-40.988-5.988l-53.023,8.004l-94.99,47.984
		l-33.996,18.998l20.006,15.025l18.998,8.088l29.994,16.006L5032.927,12869.894L5032.927,12869.894z M5011.827,12777.897
		l46.115-8.09l-47.008,2.994l-60.016-5.008l7.023-9.988l8.98-5.01l-35.002,5.01l-5.988,9.988l17.012,12.002l-32.008,4.002
		l-7.916,7.887l44.012,4.029L5011.827,12777.897L5011.827,12777.897z M5047.839,12798.909l-25.994-10.016l-14.018,10.016
		l25.992,9.988L5047.839,12798.909L5047.839,12798.909z M5037.821,12708.899l-26.887-9.01l-8.088,9.01l27.088,9.01
		L5037.821,12708.899L5037.821,12708.899z"/>
	<path fill="#DDDDDD" d="M4429.938,12671.909l-39.004-29.014l-22.999-23.893l-59.01-25.014l-58.002-24.986l-27-13.988
		l-62.981-31.031l-41.998-25.992l16.983-4.002l43.12-39.982l64.882-12.004l83.016,16.006l64.997,19.977l155.986,51.008
		l-28.008-13.99l-50.979-21.014l-0.921-27.979l-12.982-25.014l-16.005-36.012l106.994-9.988l141.019,6.018l23-8.004l-118.998-9.01
		l-198.013-36.01l87.996-48.992l44.012-12.004l-12.003-28.008l87.996-13.988l136.988,13.988l95.02,15.027l44.99,3.973l-40.01-7.889
		l-94.992-70.004l-36.988-5.988l-41.02,20.984l26.023-4.98l16.982,14.998l-41.998,2.994l-216.896-14.998l-12.003-2.102
		l-39.004-9.988l22.999,23.979l33.017,44.99l-79.015,17.012l-105.008,14.998l-60.996,16.896l-25.993,14.998l-137.995-0.979
		l-52.015-9.01l-9.988,25.014l9.988-10.018l11.111-9.988l5.008,8.98l8.981,14.998l14.997,16.004l-69.977-13.99l-76.021-36.01
		l2.015,40.098l-10.995,45.912l-25.015-5.008l-80.886-40.99l-12.004,17.012l-13.011,8.98l-39.004-10.996l-202.992-44.99
		l13.011-5.008l10.996-5.096l-45.02,1.008l-120.984,6.994l-18.998-8.117l-36.01-16.896l-128.986,20.006l-48.014,14.996
		l-108.001,23.92l-71.992,8.004l-137.995,9.988l-149.999,17.99l-82.009,20.006l-52.993,9.988l-60.018,11.111l-19.977,6.994
		l-22.999,9.988l-67.012-6.994l-125.014-24.094l-124.984-18.998l-90.99-16.004l-195.019-63.99l-139.981-36.988l-112.003-25.014
		l-48.014-13.99l1.008-25.014l31.001-58.002l9.01-27l12.982-16.984l-62.003-51.898l-59.988,17.99l28.986,16.004l-85.002-1.008
		l-204.979-43.982l-57.023-36.01l-2.994-33.996l72.999-42.025l82.009-7.975l48.014,4.98l46.978,5.008l-0.979-9.988l-64.018-56.016
		h-59.988l-35.003-2.994l-98.013-25.014l-113.989-37.996l-41.997-17.99l-95.998-40.99l-33.017-13.012l-40.99-67.012l-18.998-17.99
		l-23.892-44.99l25.993-36.012l63.011,9.01l27.979-9.01l-28.986-24.984l-35.003-29.908l-33.017-25.014l-5.987-10.996l32.988,1.008
		l16.004,1.008l33.995,4l76.021-11.023l37.997,2.014l35.98,5.988l-19.977-41.998l-90.011-51.898l-64.997-27.98l-94.99-33.016
		l-130.022-58.98l-18.998,0.979l-166.004-41.998l-116.982-32.988l-110.017-56.016l29.908,1.008l48.992,11.111l58.002,15.889
		l49.999,9.988l39.004,9.01l27.001,10.018l14.018,4.98l61.975-9.988l31.002-8.002l26.021-1.008l25.993,8.002l-5.009,20.984
		l-14.997,16.004l25.014,10.018l50,9.988l33.995,9.01l98.992,41.998l22.999,8.088l9.01,5.01l31.002,5.094l24.985,4.002
		l33.995,16.004l62.118,24.008l117.99,45.883l33.017,13.01l44.99,12.004l56.995,24.986l60.995,25.014l33.017,40.99l5.987,10.018
		h31.002l17.99,13.873l31.002,15.027l25.014,9.988l17.991,9.988l36.988,13.01l55.009,17.99l-25.993-18.998l-18.998-21.99
		l-24.007-20.984l-31.002-20.006l123.114,14.996l66.982,18.998l13.011,5.01l98.992,6.994l63.011,14.998l35.003,40.01l-10.018-10.018
		l-8.98-9.988l-6.017,17.992l24.093,14.996l21.014,6.994l25.014,10.018l0.979-29.994l-23-17.012l30.109-1.008h63.011l6.995-16.982
		l-23-17.012l17.991-1.986l87.996,11.975l104-12.982l59.01-11.111l12.003-2.994l12.004-31l31.001-46l15.976-24.006l-24.093-98.992
		l-5.987-18.998l14.997-17.012l-6.995-17.99l-8.117-10.91l33.995,6.016l21.014,15.977l-25.015-30.973l-6.995-37.996h22.021
		l-22.021-9.01l-18.998-41.998l33.017-35.002l47.985,16.982l31.001,2.016l23.892,8.002l10.018,24.984l-5.009-26.885l5.009-33.016
		l9.988-17.992l-8.981,2.016l-19.026-5.008l-16.983-12.004l-29.994-31.002l-5.009-16.004l12.004-44.992l9.01-20.004l-9.01-21.992
		l16.983-20.006l-6.995-32.01l-9.988-41.996l-2.016-13.904l16.005-36.01l9.01-18.998l-71.991,1.008l-22.999,3.021l22.999,13.875
		l-3.022,3.109l-22.999-28.008l-9.989-27.98l13.012-13.01l25.992-25.016l2.994-20.984l21.013-15.918l14.997-15.975l8.981-14.998
		l10.017-15.025l8.003-8.98l31.979-14.998l-8.98-12.002l-59.096-81.002l-99.021-183.994l-36.989-48.014l-63.989-78.008
		l-91.019-146.977l-54.001-98.014l-28.986-66.982l-6.016-55.008l-6.995-61.916l6.016-43.092l3.973-23.893l4.001-41.996l7.916-45.02
		v-17.992l-1.007-67.99l14.018-93.004l38.976-37.996l37.018-18.02l43.983-14.998l3.022-13.988l6.995-14.998l44.99-80.021
		l10.996-164.996l5.009-54.002l24.007-66.982l40.99-48.992l5.987-60.018l-57.974-25.992l-18.02-6.016l92.112-97.092l77.893-79.994
		l-14.997-41.998l-14.997-44.012l37.996-39.982l91.997-106.994l13.011-18.998l31.002,11.975l12.003,43.004l-6.016,54.002
		l-11.111,17.012l-4.001-12.004l-12.981,10.996l-25.015,5.008l-5.987,8.004l9.01,32.986l-4.001,25.016l-14.019,65.975l8.117,14.996
		l-10.017,4.031l-9.989,17.99l-52.015,114.996l4.002,70.006l4.001,18.998l-16.005-6.994l-9.988,6.994l-9.988,27.979l-10.018,18.02
		l16.005-9.01l9.01,10.91l-24.007,25.992l-28.008,18.998l-6.995,90.99l40.99,64.018l26.021-5.986l44.991-51.008l1.986-67.904
		l-5.987-81.115l6.994-38.977l2.016,23l12.981-13.01l31.002-48.014l13.011-21.992l18.998-14.998l13.011-31l16.983-31.002l21.014-23
		l21.991-23l5.095-31l-16.982-36.99l51.985-49.02l21.014-27.002l37.996-52.992l43.983-59.988l40.098-66.004l26.021-133.994
		l-17.012-70.006l9.01-82.988l56.994-53.021l43.983-40.99l102.015-45.998l47.984-32.01l161.024-85.002l27.087-12.004l91.018-47.984
		l41.998-13.988l116.982,17.99l48.014,16.004l128.985-83.016l147.006-116.004l68.998-17.99l139.003-37.996l32.009-9.01
		l21.992-53.023l89.003-170.982l32.988-65.977l40.011,2.072h9.988l33.995-32.986l36.011-50.029l13.011-35.002l33.995-21.992
		l22.999-3.973l16.005,12.033l33.995-6.045l20.006-43.984l4.979-25.965l9.01,14.969l40.011-21.014l50.979-6.965l20.006,59.066
		l14.997,42.027l30.022,26.941l14.997,18.998l8.981,66.033l-69.977-35.002l-106.016-18.02l-17.99,2.994h-14.019l-9.988,24.064
		l-21.1,23.949l-25.015,26.941l-9.988,14.969l-19.891,27.979l-21.1,48.014v42.027l11.083,45.998l10.017,25.965l9.988,53.021
		l18.998,87.996l14.997,57.109l6.017,27l-17.012,31.002l-43.984,39.004l-156.015,23l-113.011-2.994l-24.985-5.01h-30.108
		l-26.886,4.002l14.997,23l33.995,68.996l16.005,51.986l4.001,12.004l17.99,25.014l25.015,39.004l12.003,43.006l11.975,44.99
		l9.01,23.893l6.995,24.092l14.997,29.908l9.01-4.002l24.093,4.002l2.015,20.006v21.014l5.987,43.982l-67.99,20.006l-129.015-18.998
		l-77.979-41.998l-11.111-35.002l-23.892-62.004l-126.021-93.004l-149.999-33.994l-46.085,13.01l-52.015,29.994l-56.995,91.998
		l-22.999,47.984l-17.99,60.016l-10.996,66.984l-6.995,45.02l84.081,254.979l25.015,91.018l158.98,195.998l222.997,82.008
		l62.004-11.111l51.007-14.996l13.011-14.996l78.986,5.986l33.995,7.916l3.022-25.014l25.993-1.986l-2.994,32.9l-3.022,33.996
		l23,27.979l245.91,4.029l21.992-28.008l62.118-6.016l73.978-7.887l27.001-40.098l2.015-80.914l-10.91-51.986l26.914-109.01
		l8.981-14.996l20.006-32.01l20.005-44.99l16.006-20.984l24.984-8.004l18.02,0.98l11.082,25.014l14.02,29.994l24.984,163.01
		l-4,71.992l-11.084,71.012l151.094,298.99l70.898,58.002l67.012,41.998l31.979,9.988l109.01,60.018l36.988,39.004l28.008,27.979
		l30.109,2.016l-27-20.006l-5.008-5.01l32.008,6.016l20.984,77.98l-9.988,78.006l1.008,40.012l14.996,47.984l19,6.018
		l-13.012-41.998l-12.004-32.01l24.123,9.01l18.998,39.004l4.979,1.986l37.996,20.984l21.014,60.018l4.002,37.996l9.01-9.01
		l54,18.998l54.98,69.027l70.004,44.99l95.998,40.99l28.01,14.996l66.004,7.916l24.984,5.988l25.994,10.996l20.004,44.012
		l-9.988-6.994l-29.014,5.986l5.008,33.018l13.99,25.992l150.027,102.992l106.994,41.998l51.986,14.998l18.998,18.998l58.002,22.02
		l56.016,16.006l32.986,0.979l-60.994-41.998l-70.006-62.004l10.996-41.996l45.02-4.002l19.977,10.018l20.006,8.98l88.918,56.016
		l22.998,1.008l177,58.98l17.99,14.998l29.994,20.006l73,47.006l-14.998,13.01l-2.994,29.994v31.98l-71.99-50l-60.018-51.986
		l-21.992,0.979l-103.107,19.027l55.008-2.014l20.006-8.004l19.977,10.018l28.008,24.094l-28.008,16.004l-73.977,35.004
		l-6.996,12.98l-12.002-16.004l-12.004-5.986v-29.994l-5.01-18.998l-27.086,66.982l37.996,53.021l34.082,33.996l-27.088-6.018
		l12.004,21.1l-33.016,86.902l-252.992-77.893l-21.992,4.002l140.99,70.984l47.006,29.016l54,40.988l237.994,9.01l217.012,8.982
		l28.986,16.004l50,30.023l125.992,45.998h31.002l-44.992-44.012l-120.004-135.002l-14.998-10.996l-20.984-14.998l-14.996-9.01
		l-39.004-31.002h23l-21.014-21.098l83.016-58.982l218.996-26.021l-3.021-39.004l4.002,9.01l5.008,16.006l9.01-1.986l25.992-35.004
		l65.113,101.986l-10.018-9.988l-8.002-10.018l-8.982,14.998l8.09,10.016l18.998,9.988l-4.002,14.998l-32.986-20.006l-27.002-19.977
		l12.982,24.006l9.01,28.988l17.012,4l32.988,14.998l-17.012,10.994l-5.988,31.002l-6.994,36.01l-10.018,8.982l6.016,13.01
		l-21.012-6.994l-12.982-6.994l-15.113,12.002l-14.996-8.002l-28.986-7.916l-23.92,12.004l18.998,13.99l-17.992,24.006
		l-32.986,6.994l33.994,29.016l41.998,18.998l12.982,24.986l4,16.004l16.006,14.998l-21.992,15.025l-13.99-9.01l-17.012-6.994
		l-31.002,2.992l44.992,24.094l61.023,80.914l-18.02,82.988l-31.98,58.002l-48.014,37.996l-25.992,10.018l-70.006,21.992l-6.994,4
		l-9.01,58.002l-6.994,30.08l9.988,60.996l6.994,29.016l-3.973,33.994l-20.006,44.014l-14.996,62.98l-10.018,72.021l-2.994,41.998
		l-28.986-40.012l-8.002-4.002l-72.02-51.006l-70.006-54.98l-53.973-21.014l-59.008-6.994l-55.01,66.982l43.092,96.027l4.002,15.977
		l3.021,7.023l8.002,5.986l-30.021,13.012l-52.994,7.887l-10.996,21.014l-2.016,23.977l-77.979,63.012l-28.008,17.012v-20.006
		l-5.986-10.996l-153.021,12.982l-82.988-10.996l-25.014-45.998l-62.982-71.992l-6.994-17.012l18.998-16.982l-8.117-36.012
		l-6.994-13.01l-51.008-34.975l-51.986-35.002l-37.018-34.023l10.018-5.988l59.988-62.002l-58.002-121.014l-212.002-98.992
		l-59.988-9.988l5.008-44.012l-5.008-43.984l-9.988-24.006l-8.002-29.994l-10.018-37.996l-31.98-56.016l-25.014-32.988l-4.002-9.01
		l-13.99,13.012l-30.107-12.004l-47.008,9.01l-16.982,31.98l-18.998,28.008l-9.01,32.008l21.992,8.982l58.002,9.01l-31.002,24.006
		l-27,16.982l14.018,25.016l8.98,29.879l8.004,24.121l33.016,63.99l-86.902,10.908l-93.004,18.998l-58.002,27.98l-42.891,25.014
		l-62.117,58.002l-55.988,21.014l-70.004,4.979l-43.006-10.996l20.006,93.006l-35.002,47.006l-33.996,5.986l97.984,124.006
		l66.004,44.992l87.018,50l32.988,20.006l40.012,21.1l35.98,14.996l13.012,6.994l9.01,10.91l52.992-4.002l5.988,2.994l21.012,21.014
		l47.986,31.002l30.107,20.006l26.914,10.996l59.988,14.996l197.006,90.99l100,63.01l-55.01-56.994l-59.008-68.02l-44.992-23.979
		l-1.008-33.016l31.002-17.012l68.02-0.979l51.986,20.006l32.008,19.977l56.994-4.98l109.988-14.018l25.014,30.021l-22.998,12.982
		l-18.998,17.99l-90.012,69.92l-11.082,35.002l11.082,32.988l17.012-31.98l39.004-12.004l12.982,18.998l23,33.996l26.021-6.016
		l23.979,17.012l45.02,14.996l39.982,14.998l36.01,25.014l12.004,37.996l54,56.994l40.99,35.004l-6.994,25.014l5.986,28.986
		l64.996-4l57.023-9.01l17.992-21.992l-35.004-33.996l-9.988-21.012l-16.004-27.088l12.004,5.988l18.998,12.002l14.996,33.018
		l9.01,6.994l89.982,62.004l-16.982,2.992l-53.023-5.986l25.014,11.082l35.004,23l8.98,10.018l16.004-13.012l8.117-17.012l4.98-8.98
		l12.004-1.008l28.008-25.016l27-16.982l-28.008-1.008l-21.992,9.01l-31,10.881l-2.994-25.992l2.994-24.986l28.008-5.008
		l35.002-9.01l-41.998-14.998l-120.004-79.992l144.99,35.002l13.988,23.891l12.004-5.986l37.018-21.014l36.988,12.004l-21.99,17.99
		l-25.994,18.02l9.988,1.986h20.984l6.018,1.008l20.984-13.012l16.004-21.99l-4.98-40.012l-18.02-17.99l-31.98-13.012l-66.004-31.98
		l-56.994-47.006l-5.008-27.115l-55.01-8.98h-88.887l-87.996-9.01l-61.918-66.984l104.002-12.002l77,9.988l57.914-2.994
		l16.984-11.111l10.018-9.988l12.98-16.896l18.998-43.121l23-41.996l44.012-16.984l51.9-10.016l50-20.984l74.006-20.006l50-14.998
		l20.984-16.004l41.998,21.014l-32.988,8.98l-12.004-5.988l-9.988,23l-23,41.998l-25.014,31l-20.006,13.99l-20.006,23l20.006-0.979
		l27-12.004l21.014-13.904l30.08-6.994l9.01,1.986l17.012-17.99l28.988-25.994l43.004-9.008l-6.994,20.004l-1.008,8.982
		l12.004,20.006l13.902,14.018l30.109,11.975l1.986,37.996l-4.002,40.127l-32.986,35.98l-35.004,53.021l10.996,16.898l2.994,28.986
		v6.994l25.014,3.023l64.883-54.002l30.107-41.018l23-4.002l59.01,24.094l43.984,18.02l36.01,8.002l41.996,39.982l36.99,18.998
		l22.998,18.02l-27.979,19.977l-43.006,15.025l-6.994,6.996l-7.023,10.994l-36.988,25.994l-47.006,18.998l-28.986,6.016
		l-40.012,24.986l-33.996,22.02l59.096,27.979l18.998,21.992v18.998l-62.98,82.01l-47.006,5.008l-7.916,10.996l-8.982,10.996
		l-14.018,14.018l-48.992,19.979l-58.002-11.975l-1.008,4.979l2.016,17.012l-6.016,9.988l-8.982,9.988l-16.004,15.027
		l-21.992,18.998l-42.918,8.98l7.916,6.016l27.086,13.99l-114.996,50l-97.006-9.988h-17.99l-140.01,1.986l-59.988-3.08l24.984,9.988
		l-24.984,9.988l-341.996-105.986l-25.014-16.006l-40.99-54l58.002-12.982l55.008-11.025l-59.01,2.016l-44.99-43.004l41.998-14.998
		l12.98-5.096l59.01-13.01l24.986-4.98l-42.977-55.008l-18.02-23l-50-28.008l-43.982-16.896l-8.119,9.988l-42.889-47.006
		l-25.992-19.977l-40.012-1.008l23.891,55.986l-22.998,73l-23.893,9.01l-13.988,20.006l-10.018,41.996v27.002l-0.979,36.01
		l-18.02,55.986l25.992,17.99l50.029,28.008l61.973,14.998l199.021,89.004l-54.002,9.01l-79.994,5.986l-118.018-24.006l-12.982-4.98
		l-37.018-14.018l-40.99-27.002l-13.01-24.984l-70.006-71.014l-32.988-18.998l-21.014-8.088l-68.996-47.006l-24.986-25.994
		l-23-33.994l-25.014-24.006l-46.977,13.01l-46.027,2.994l-36.99-25.014l-47.006-19.086l-17.99-35.924l25.994-16.982l-16.984-5.988
		l-43.119-17.012l-135.98-25.992l-118.912,13.99l-24.094,9.01l-22.998,15.975v14.018l-25.994-5.094l-12.002,9.988l-17.012,28.008
		l-8.09-5.008l-23.92-5.01l-30.08,4.002l27.086,14.018l37.996,4.002h21.014l8.98,4l19.027-18.02l66.982-13.988l77-13.012
		l36.01,10.018l35.004,20.984l2.994,29.016l9.988,17.99l18.998-13.012l6.016-13.988l63.988,52.992l-91.996,50l2.016,37.018
		l19.977,24.986l95.998,104l54,31.002l-59.988,20.006l-71.99-27.088l12.002-14.018l-18.998,1.008l-113.01-21.992l-39.004-55.008
		l-17.99-23l2.994,37.996l-9.988,32.988l-64.02,4.029l-66.982,0.979l-75.014,5.01l-20.006,1.006l-5.986,27.98l-32.01,25.014
		l-109.988,40.99l-149.998,6.994L4429.938,12671.909L4429.938,12671.909z M6357.847,12583.915l-49.021-48.014l-17.99-32.01
		l-9.988,25.014l-1.008,27.088l43.006,22.998l50,18.998L6357.847,12583.915L6357.847,12583.915z M6635.825,12567.909l49.02-16.004
		l17.992-5.008l-70.006-12.004l-27.088,17.012l12.004,27l2.994,9.988L6635.825,12567.909L6635.825,12567.909z M6265.821,12511.894
		l-3.08-24.006l-14.998-8.982l16.984,39.004L6265.821,12511.894L6265.821,12511.894z M6857.843,12498.911l-22.998-9.01l2.994,9.01
		H6857.843L6857.843,12498.911z M7002.835,12418.89l-35.004-8.98l5.096,8.98H7002.835L7002.835,12418.89z M7106.835,12376.892
		l10.996-4l25.992-5.988l-58.002-25.014l-27.979,6.016l43.982,18.998l6.996,21.992L7106.835,12376.892L7106.835,12376.892z
		 M6109.835,12372.892l-18.998-1.008l5.986,6.016L6109.835,12372.892L6109.835,12372.892z M7062.821,12364.888l-19.889-8.98
		l-13.99,4.002L7062.821,12364.888L7062.821,12364.888z M3689.931,12352.886l-18.998-0.979l5.987,5.986L3689.931,12352.886
		L3689.931,12352.886z M6292.821,12348.913l-21.992-10.018l-8.088,10.018H6292.821L6292.821,12348.913z M6440.835,12351.907h-35.004
		l17.012,5.008L6440.835,12351.907L6440.835,12351.907z M3612.845,12338.896l-30.023-8.98l5.009,8.98H3612.845L3612.845,12338.896z
		 M5792.825,12338.896l-9.988-9.988l-10.018,9.988l10.018,10.018L5792.825,12338.896L5792.825,12338.896z M5622.819,12316.903
		l-24.984-24.006l-4.002-31.002l13.012-1.986l-127-45.02l-37.018-31.002l-25.994-17.99l1.008,18.998l8.982,25.992l0.92,6.018
		l40.098,20.984l40.99,20.004l39.004,21.014l-17.012,4.002l-5.988,12.002l24.986,16.006l27,6.994L5622.819,12316.903
		L5622.819,12316.903z M3392.84,12303.894l-40.011-0.979l49.999,13.988L3392.84,12303.894L3392.84,12303.894z M7142.845,12310.917
		l-35.002-4.031l-35.004,8.004l35.004,4L7142.845,12310.917L7142.845,12310.917z M5826.935,12276.892l-31.002-33.994l29.994,55.986
		L5826.935,12276.892L5826.935,12276.892z M6607.931,12278.907l-16.004-10.018l-4,10.018l16.004,9.988L6607.931,12278.907
		L6607.931,12278.907z M6302.925,12268.89l-11.082-9.988l-4.002,9.988l10.996,10.018L6302.925,12268.89L6302.925,12268.89z
		 M6669.819,12272.892l-18.998-1.008l6.016,6.016L6669.819,12272.892L6669.819,12272.892z M5977.827,12209.909l-16.984-11.111
		l1.986,14.998L5977.827,12209.909L5977.827,12209.909z M5352.845,12204.901l-15.025-9.988l-14.998,3.973l14.998,10.016
		L5352.845,12204.901L5352.845,12204.901z M6690.833,12201.907h-35.004l17.014,4.98L6690.833,12201.907L6690.833,12201.907z
		 M4712.837,12152.886l-21.014-3.971l-13.988,9.988L4712.837,12152.886L4712.837,12152.886z M5409.839,12142.897l-18.998-1.008
		l5.988,6.018L5409.839,12142.897L5409.839,12142.897z M4017.821,12128.909l-54.001-21.014l-9.988-21.992l74.007-2.102l50,5.988
		l-32.01-19.977l-70.983-18.998l-77-23.029l-38.025-9.988l-43.983-13.99l-40.99-10.016l83.995,31l20.006,6.018l-108.002-24.008
		l-51.007-9.988l-4.002,10.881l16.983,11.111l19.027,9.988l34.974,14.996l33.017,13.012h36.988l-42.89,29.994l-36.01-1.008l33.017-4
		l31.98-13.99l-1.986-8.98l-58.002,13.988l-55.009,12.004l79.994,12.982l145.02,26.021L4017.821,12128.909L4017.821,12128.909z
		 M6802.835,12129.915l25.994-15.025l-32.988-28.986l-35.002,12.004L6802.835,12129.915L6802.835,12129.915z M7316.821,12119.899
		l-13.988-4.002l-5.988,13.012L7316.821,12119.899L7316.821,12119.899z M1659.834,12102.915l-18.998-0.92l5.987,6.016
		L1659.834,12102.915L1659.834,12102.915z M5939.829,12066.905l-4-20.006l-24.986,12.004l-14.996,6.994l-4.002,20.006l17.99,12.982
		L5939.829,12066.905L5939.829,12066.905z M5697.833,12032.911l-4-12.004l-28.986,16.004L5697.833,12032.911L5697.833,12032.911z
		 M1447.947,11968.892l-18.02-9.988l2.994,9.988H1447.947L1447.947,11968.892z M6462.825,11957.896l-14.996-8.98l-9.01,14.969
		L6462.825,11957.896L6462.825,11957.896z M6587.839,11878.909l-16.004-10.016l-9.01,10.016l16.004,9.99L6587.839,11878.909
		L6587.839,11878.909z M3995.83,11759.913l132.095,12.982l-30.081-20.006l-99.913-35.004l-59.987-22.971l-185.002-16.004v10.996
		l32.987-1.008l44.991,16.004l62.118,23.893l37.996,36.988l24.985,20.006L3995.83,11759.913L3995.83,11759.913z M6899.927,11722.896
		l-18.998-0.979l6.018,5.986L6899.927,11722.896L6899.927,11722.896z M1742.821,11682.884l-14.997-3.973l-14.996,9.988l14.996,4.002
		L1742.821,11682.884L1742.821,11682.884z M1659.834,11672.896l-18.998-1.008l5.987,6.016L1659.834,11672.896L1659.834,11672.896z
		 M1617.837,11658.905l-44.991-22.998l47.984,32.008L1617.837,11658.905L1617.837,11658.905z M1295.934,11561.899h-30.109
		l12.003,5.01L1295.934,11561.899L1295.934,11561.899z M1352.928,11564.894l-20.006-9.01l-13.989,4.029L1352.928,11564.894
		L1352.928,11564.894z M2370.826,11483.892l-12.004,12.004l5.009,6.016L2370.826,11483.892L2370.826,11483.892z M2387.924,11458.907
		l-4.001-10.018l-15.976,10.018l3.973,9.988L2387.924,11458.907L2387.924,11458.907z M2337.838,11438.901l4.001-24.006
		l-4.001-13.012l-9.01,8.002l-6.994,15.025l1.985,14.998L2337.838,11438.901L2337.838,11438.901z M1052.844,11428.884l-4.002-9.988
		l-10.995,9.988l4.001,10.018L1052.844,11428.884L1052.844,11428.884z M2422.927,11383.894l-54.001-5.988l13.011,4.002l24.985,5.986
		l18.02,10.996L2422.927,11383.894L2422.927,11383.894z M2408.822,11346.903l-4.001-4l-19.978-9.988l-16.004-5.01l4.001,10.996
		l4.979,9.988l9.01,10.018L2408.822,11346.903L2408.822,11346.903z M2342.847,11314.896l-17.012-16.984l-4.001,3.973
		L2342.847,11314.896L2342.847,11314.896z M2382.829,11273.905l-4.001-14.996l-9.988,14.996l4.001,14.996L2382.829,11273.905
		L2382.829,11273.905z M2449.841,11282.886l-18.998-0.979l5.987,5.988L2449.841,11282.886L2449.841,11282.886z M2330.93,11205.915
		l-13.011-24.008l-1.986,25.994l13.011,24.094L2330.93,11205.915L2330.93,11205.915z M4428.844,11087.896l-27.001-159.008
		l-9.009,8.002l-9.01,21.014l-23.892,2.992l-13.99,1.008l-7.023,35.004l16.005,31l22.999,9.988h-21.992l5.009,36.012
		L4428.844,11087.896L4428.844,11087.896z M6932.829,11094.892l-32.01-14.998l-13.988,4.002L6932.829,11094.892L6932.829,11094.892z
		 M2352.922,11058.909l-4.002-10.018l-10.995,10.018l4.001,9.988L2352.922,11058.909L2352.922,11058.909z M4402.822,10883.896
		l-29.994-35.002l-29.994-16.004l25.993,35.002L4402.822,10883.896L4402.822,10883.896z M2458.821,10762.913l32.01-28.008
		l20.005-23.922v-11.975l12.004-22.02l-9.01-8.98l-20.984,5.986l-8.117,6.016l-20.984,39.982l-16.005,59.01L2458.821,10762.913
		L2458.821,10762.913z M4935.835,10672.901l9.988-28.986l54.002-38.025l6.016-8.98l-6.994-21.1l-1.008-23.92l-14.02-47.984
		l-11.975-14.998l-5.008,14.998l-41.998,8.002l-64.018-14.998l-71.992,17.99l-22.998,13.99l16.004,21.014l-4.002,24.984
		l-18.998-17.99l-4-4l-44.012-9.988l-62.982-25.016l-55.009-14.996l-5.009,9.988l-21.991,13.01l-43.092-1.986l152.993,74.986
		l52.994,21.014l17.012,8.98l-9.01-14.998l-6.996-14.996l63.012,29.016l-13.904,4.979l-22.02,6.996l2.014,6.016l63.99,12.982
		L4935.835,10672.901L4935.835,10672.901z M2487.837,10637.899l-37.996-8.09l-12.004,5.988l28.987,13.99L2487.837,10637.899
		L2487.837,10637.899z M6327.823,10608.913h-24.984l1.986,9.988L6327.823,10608.913L6327.823,10608.913z M6432.946,10472.903
		l-21.012-4.002l-13.99,9.988L6432.946,10472.903L6432.946,10472.903z M5117.843,10453.905l-37.018-4.002l-47.984,6.994
		L5117.843,10453.905L5117.843,10453.905z M4932.841,10442.909l-76.021-72.021l-77-55.986l-57.08-122.998l-44.012-68.998
		l-77.001-21.014l125.993,235.002l15.025,40.012l9.988,14.996l41.998,24.094l35.002,7.916L4932.841,10442.909L4932.841,10442.909z
		 M5102.933,10412.886l51.9,5.01l67.012-9.99l-56.018-49.02l-35.002,4.029l-25.992-54l-36.99-53.023l-59.123-56.994l-2.994,43.006
		l-17.99,39.004l-36.012-17.992l-23.891-14.018l39.004,44.99l40.99,55.01l5.008,14.996l-14.996,37.018l-25.016,25.994l48.014,6.994
		L5102.933,10412.886L5102.933,10412.886z M5126.825,10426.905l-14.998-7.916l-8.98,7.916l14.996,9.01L5126.825,10426.905
		L5126.825,10426.905z M5452.845,10271.897l-125.014-47.986l-87.996-3.021l1.008,25.014l104.979,17.99l67.012,8.004l20.006,6.994
		L5452.845,10271.897L5452.845,10271.897z M5222.823,10173.913l-150-72.021l-159.986-32.986v29.992l20.004-12.002l8.09-1.008
		l67.012,42.025l104.979,24.986l31.002,4l20.006,14.998l47.006,5.008L5222.823,10173.913L5222.823,10173.913z M4967.845,10118.903
		l-26.021-9.988l-18.998,9.988l26.021,9.988L4967.845,10118.903L4967.845,10118.903z M5247.837,9757.911l-14.998-4.002l-2.1,14.998
		L5247.837,9757.911L5247.837,9757.911z M5247.837,9588.884l-9.01-3.973l-6.994,13.99L5247.837,9588.884L5247.837,9588.884z
		 M4067.937,9088.888l-10.018-9.988l-9.988,9.988l9.988,10.018L4067.937,9088.888L4067.937,9088.888z M4180.831,7464.892
		l-24.007-23.029l-17.99,14.047l1.008,19l-17.013,24.984l23,4.029L4180.831,7464.892L4180.831,7464.892z"/>
	<path fill="#DDDDDD" d="M5737.931,12646.896l-90.01-10.996l-78.986-16.004l-23-23l-23.891-37.996l-29.016,9.988h-60.996
		l32.01-57.973l32.986-40.012l124.008-1.008l106.994,55.988l44.99,63.01l15.025,20.006l6.996,29.994L5737.931,12646.896
		L5737.931,12646.896z M5752.843,12577.897l-2.016-5.986l-20.984-6.016l-10.018,6.016L5752.843,12577.897L5752.843,12577.897z"/>
	<path fill="#DDDDDD" d="M1305.835,11474.911l-59.009-29.016l-28.986-6.994l-35.003-14.996l-20.006-9.99l-79.993-34.023l35.98-35.98
		l44.013,10.996l35.003,12.98l58.002,25.016l39.004,55.986l33.995,2.102l33.995,21.992l-1.986,25.014L1305.835,11474.911
		L1305.835,11474.911z"/>
	<path fill="#DDDDDD" d="M4492.919,8477.896l-71.991-20.006l-63.989-29.879l-33.017-19.027l-0.979-9.988l-7.023-16.004l1.008-25.992
		l47.006,13.01l40.011,18.998l38.976,19.977l64.018,19.027l24.093-6.016l-17.99-13.012l89.982-30.08l65.111-25.014l73-17.99
		l21.99-20.006l14.998-36.99l14.996-25.014l15.027-24.984l10.994-25.994l248.992,4.98l29.016,12.004l-29.016,24.092l-56.102,25.016
		l-24.986,16.004l-41.998,28.986l-102.014,86.902l-5.988,5.096l-21.012,7.916l-36.99,2.992l-10.016-5.008l-31.98,6.994
		l-11.025,12.004L4492.919,8477.896L4492.919,8477.896z M4857.942,8248.911l-24.006-10.018l-31.002,10.018l24.006,9.988
		L4857.942,8248.911L4857.942,8248.911z"/>
	<path fill="#DDDDDD" d="M5154.833,8198.911v-30.109l18.105-28.008l12.002-39.982l-79.014-15.025l-62.982-7.975l21.992-33.016
		l43.982-8.002l55.01,6.994l81-27.979l20.006-28.008l24.986,35.002l45.02,25.992l31.002,5.01l94.99-5.01l20.006-9.988l8.98,6.994
		l10.91,19l-20.006,48.992l-56.994,34.916l-20.984,13.988l-136.01,31.002l-62.004,8.002L5154.833,8198.911L5154.833,8198.911z"/>
</g>
</svg>
