<?xml version="1.0" encoding="utf-8"?>
<!-- Generator: Adobe Illustrator 26.1.0, SVG Export Plug-In . SVG Version: 6.00 Build 0)  -->
<svg version="1.1" xmlns="http://www.w3.org/2000/svg" xmlns:xlink="http://www.w3.org/1999/xlink" x="0px" y="0px" width="800px"
	 height="600px" viewBox="0 0 800 600" enable-background="new 0 0 800 600" xml:space="preserve">
<g id="背景">
	<polyline id="base" fill="#DCDDDD" points="32.9,128.6 752.9,128.6 752.9,448.6 32.9,448.6 	"/>
</g>
<g id="廊下">
	<polyline fill="#B5B5B6" stroke="#273331" stroke-miterlimit="10" points="191.53,330 165.45,330 165.45,262.28 131.27,262.28 
		131.27,307.21 112.95,307.21 112.95,166.74 695.19,166.79 695.19,202.45 621.75,202.45 621.75,422.67 598.11,422.67 597.68,202.45 
		497.65,202.45 234.38,202.45 234.38,233.06 224.18,233.06 224.18,262.65 191.53,262.65 191.53,330 	"/>
	<rect x="191.53" y="233.08" fill="#B5B5B6" stroke="#273331" stroke-miterlimit="10" width="32.61" height="29.57"/>
	<g id="矢印_00000086681061681913868580000000592518892064945824_">
		<path fill="#040000" d="M685.01,186.85l3.84,4l0.06-2.94l14.71,0.29l0.04-1.96l-14.71-0.29l0.06-2.94L685.01,186.85z"/>
		<path fill="#040000" d="M705.38,187.25l-3.84-4l-0.06,2.94l-14.71-0.29l-0.04,1.96l14.71,0.29l-0.06,2.94L705.38,187.25z"/>
	</g>
	<g id="矢印_00000175317095293083467700000012217041302143367826_">
		<path fill="#040000" d="M389.41,154.53l-4,3.84l2.94,0.06l-0.29,14.71l1.96,0.04l0.29-14.71l2.94,0.06L389.41,154.53z"/>
		<path fill="#040000" d="M389.01,174.9l4-3.84l-2.94-0.06l0.29-14.71l-1.96-0.04l-0.29,14.71l-2.94-0.06L389.01,174.9z"/>
	</g>
	<g id="矢印_00000011028193846127070540000010956222726947453340_">
		<path fill="#040000" d="M182.34,155.39l-4,3.84l2.94,0.06L180.99,174l1.96,0.04l0.29-14.71l2.94,0.06L182.34,155.39z"/>
		<path fill="#040000" d="M181.94,175.77l4-3.84l-2.94-0.06l0.29-14.71l-1.96-0.04l-0.29,14.71l-2.94-0.06L181.94,175.77z"/>
	</g>
</g>
<g id="車椅子用トイレ">
	<polyline fill="#7CC05A" stroke="#283331" stroke-miterlimit="10" points="131.27,285.01 165.45,285.01 165.45,262.28 
		131.27,262.28 131.27,285.01 	"/>
	<rect x="579.46" y="259.71" fill="#7CC05A" stroke="#283331" stroke-miterlimit="10" width="18.31" height="17.8"/>
	<g>
		<path fill="#FFFFFF" d="M590.26,263.49c0.84-0.22,1.35-1.08,1.14-1.92c-0.22-0.84-1.07-1.35-1.92-1.14
			c-0.84,0.22-1.35,1.08-1.14,1.92C588.56,263.19,589.42,263.7,590.26,263.49z"/>
		<path fill="#FFFFFF" d="M591.72,267.55l-0.13,1.36c0.21,0.14,0.41,0.3,0.59,0.48c0.66,0.66,1.06,1.56,1.06,2.57
			c0,1.01-0.41,1.91-1.06,2.57c-0.66,0.66-1.56,1.06-2.57,1.06c-1.01,0-1.91-0.41-2.57-1.06c-0.47-0.47-0.8-1.06-0.96-1.73
			l-0.71,1.57c0.84,1.48,2.43,2.47,4.25,2.47c2.7,0,4.89-2.19,4.89-4.89C594.5,270.01,593.37,268.34,591.72,267.55z"/>
		<path fill="#FFFFFF" d="M588.54,271.66c1.38-0.02,2.03-0.6,2.18-1.93l0.4-4.2c0.06-0.71-0.36-1.33-1.07-1.39
			c-0.45-0.04-0.94,0.19-1.23,0.49l-1.97,1.94l-2.06,0.17c-0.33,0.03-0.59,0.3-0.59,0.64v0.04c0,0.35,0.29,0.64,0.64,0.64h2.43
			l1.11-0.82l-0.18,2.05l-2.69,0.2c-0.78,0.03-1.13,0.34-1.42,1.05l-1.27,3.49c-0.19,0.43,0,0.93,0.43,1.12
			c0.43,0.19,0.93,0,1.12-0.43l1.43-3.06L588.54,271.66L588.54,271.66z"/>
	</g>
	<g>
		<path fill="#FFFFFF" d="M150.24,269.1c0.84-0.22,1.35-1.08,1.14-1.92c-0.22-0.84-1.07-1.35-1.92-1.14
			c-0.84,0.22-1.35,1.08-1.14,1.92C148.54,268.81,149.4,269.32,150.24,269.1z"/>
		<path fill="#FFFFFF" d="M151.7,273.16l-0.13,1.36c0.21,0.14,0.41,0.3,0.59,0.48c0.66,0.66,1.06,1.56,1.06,2.57
			c0,1.01-0.41,1.91-1.06,2.57c-0.66,0.66-1.56,1.06-2.57,1.06c-1.01,0-1.91-0.41-2.57-1.06c-0.47-0.47-0.8-1.06-0.96-1.73
			l-0.71,1.57c0.84,1.48,2.43,2.47,4.25,2.47c2.7,0,4.89-2.19,4.89-4.89C154.48,275.63,153.35,273.95,151.7,273.16z"/>
		<path fill="#FFFFFF" d="M148.52,277.27c1.38-0.02,2.03-0.6,2.18-1.93l0.4-4.2c0.06-0.71-0.36-1.33-1.07-1.39
			c-0.45-0.04-0.94,0.19-1.23,0.49l-1.97,1.94l-2.06,0.17c-0.33,0.03-0.59,0.3-0.59,0.64v0.04c0,0.35,0.29,0.64,0.64,0.64h2.43
			l1.11-0.82l-0.18,2.05l-2.69,0.2c-0.78,0.03-1.13,0.34-1.42,1.05l-1.27,3.49c-0.19,0.43,0,0.93,0.43,1.12
			c0.43,0.19,0.93,0,1.12-0.43l1.43-3.06L148.52,277.27L148.52,277.27z"/>
	</g>
</g>
<g id="女子トイレ">
	<rect x="131.27" y="285.01" fill="#F19899" stroke="#283331" stroke-miterlimit="10" width="34.18" height="22.2"/>
	<rect x="536.36" y="277.51" fill="#F19899" stroke="#283331" stroke-miterlimit="10" width="61.42" height="52.49"/>
</g>
<g id="男子トイレ">
	<rect x="112.95" y="307.21" fill="#54C3F1" stroke="#283331" stroke-miterlimit="10" width="52.5" height="22.79"/>
	<polygon fill="#54C3F1" stroke="#283331" stroke-miterlimit="10" points="597.68,202.45 536.36,202.45 536.36,277.51 
		579.46,277.51 579.46,259.71 597.78,259.71 	"/>
</g>
<g id="トイレマーク">
	<g id="男女_00000129917576306041546350000003065103542904674722_">
		<path fill="#FFFFFF" d="M154.39,299.21c1.77,0,3.21-1.44,3.21-3.21c0-1.77-1.44-3.21-3.21-3.21s-3.21,1.44-3.21,3.21
			C151.18,297.77,152.62,299.21,154.39,299.21z"/>
		<path fill="#FFFFFF" d="M142.44,299.21c1.77,0,3.21-1.44,3.21-3.21c0-1.77-1.44-3.21-3.21-3.21c-1.77,0-3.21,1.44-3.21,3.21
			C139.23,297.77,140.66,299.21,142.44,299.21z"/>
		<path fill="#FFFFFF" d="M159.26,311.67l-4.4-10.36c-0.08-0.19-0.26-0.31-0.47-0.31c-0.2,0-0.39,0.12-0.47,0.31l-4.4,10.36
			c-0.27,0.62-0.2,1.34,0.17,1.91c0.37,0.57,1.01,0.91,1.69,0.91h3.01h3.01c0.68,0,1.31-0.34,1.69-0.91
			C159.46,313.01,159.53,312.29,159.26,311.67z"/>
		<path fill="#FFFFFF" d="M145.44,300.99h-3.01h-3.01c-0.68,0-1.31,0.34-1.69,0.91c-0.37,0.57-0.44,1.28-0.17,1.91l4.4,10.36
			c0.08,0.19,0.26,0.31,0.47,0.31s0.39-0.12,0.47-0.31l4.4-10.36c0.27-0.62,0.2-1.34-0.17-1.91
			C146.76,301.34,146.12,300.99,145.44,300.99z"/>
	</g>
	<g id="男女_00000021824612292392064230000011100852920479247242_">
		<path fill="#FFFFFF" d="M567.5,235.56c1.77,0,3.21-1.44,3.21-3.21s-1.44-3.21-3.21-3.21c-1.77,0-3.21,1.44-3.21,3.21
			S565.72,235.56,567.5,235.56z"/>
		<path fill="#FFFFFF" d="M570.51,237.34h-3.01h-3.01c-0.68,0-1.31,0.34-1.69,0.91c-0.37,0.57-0.44,1.28-0.17,1.91l4.4,10.36
			c0.08,0.19,0.26,0.31,0.47,0.31s0.39-0.12,0.47-0.31l4.4-10.36c0.27-0.62,0.2-1.34-0.17-1.91
			C571.82,237.68,571.18,237.34,570.51,237.34z"/>
	</g>
	<g id="男女_00000159452396959376629120000007968037085657814429_">
		<path fill="#FFFFFF" d="M567.5,299.33c1.77,0,3.21-1.44,3.21-3.21c0-1.77-1.44-3.21-3.21-3.21s-3.21,1.44-3.21,3.21
			S565.72,299.33,567.5,299.33z"/>
		<path fill="#FFFFFF" d="M572.37,311.79l-4.4-10.36c-0.08-0.19-0.26-0.31-0.47-0.31c-0.2,0-0.39,0.12-0.47,0.31l-4.4,10.36
			c-0.27,0.62-0.2,1.34,0.17,1.91c0.37,0.57,1.01,0.91,1.69,0.91h3.01h3.01c0.68,0,1.31-0.34,1.69-0.91
			C572.57,313.13,572.63,312.41,572.37,311.79z"/>
	</g>
</g>
<g id="使用不可能部屋">
	<polygon fill="#929292" stroke="#273331" stroke-miterlimit="10" points="191.53,262.65 224.18,262.65 224.18,233.06 
		234.38,233.06 234.38,202.45 497.65,202.45 497.65,330 191.53,330 	"/>
	<rect x="44.08" y="166.74" fill="#929292" stroke="#273331" stroke-miterlimit="10" width="68.88" height="163.27"/>
	<rect x="497.65" y="382.82" fill="#929292" stroke="#273331" stroke-miterlimit="10" width="34.31" height="39.85"/>
	<rect x="679.02" y="350.82" fill="#929292" stroke="#273331" stroke-miterlimit="10" width="62.7" height="71.85"/>
</g>
<g id="階段">
	<g>
		
			<line fill="none" stroke="#283331" stroke-width="0.25" stroke-miterlimit="10" x1="536.36" y1="250.83" x2="516.92" y2="250.83"/>
		
			<line fill="none" stroke="#283331" stroke-width="0.25" stroke-miterlimit="10" x1="536.36" y1="254.99" x2="516.92" y2="254.99"/>
		
			<line fill="none" stroke="#283331" stroke-width="0.25" stroke-miterlimit="10" x1="536.36" y1="258.51" x2="516.92" y2="258.51"/>
		
			<line fill="none" stroke="#283331" stroke-width="0.25" stroke-miterlimit="10" x1="536.36" y1="262.28" x2="516.92" y2="262.28"/>
		<line fill="none" stroke="#283331" stroke-width="0.25" stroke-miterlimit="10" x1="536.36" y1="266" x2="516.92" y2="266"/>
		
			<line fill="none" stroke="#283331" stroke-width="0.25" stroke-miterlimit="10" x1="536.36" y1="269.67" x2="516.92" y2="269.67"/>
		
			<line fill="none" stroke="#283331" stroke-width="0.25" stroke-miterlimit="10" x1="536.36" y1="273.65" x2="516.92" y2="273.65"/>
		
			<line fill="none" stroke="#283331" stroke-width="0.25" stroke-miterlimit="10" x1="536.36" y1="277.81" x2="516.92" y2="277.81"/>
		
			<line fill="none" stroke="#283331" stroke-width="0.25" stroke-miterlimit="10" x1="536.36" y1="282.46" x2="516.92" y2="282.46"/>
		
			<line fill="none" stroke="#283331" stroke-width="0.25" stroke-miterlimit="10" x1="536.36" y1="286.39" x2="516.92" y2="286.39"/>
		<polygon fill="#5C5A5A" points="536.36,285.01 516.92,297.9 516.92,330 536.36,330 		"/>
		<polyline fill="none" stroke="#283331" stroke-miterlimit="10" points="516.92,249.02 516.92,330 536.36,330 536.36,247.87 		"/>
	</g>
	<g>
		
			<line fill="none" stroke="#283331" stroke-width="0.25" stroke-miterlimit="10" x1="191.53" y1="275.29" x2="178.09" y2="275.29"/>
		
			<line fill="none" stroke="#283331" stroke-width="0.25" stroke-miterlimit="10" x1="191.53" y1="278.17" x2="178.09" y2="278.17"/>
		<line fill="none" stroke="#283331" stroke-width="0.25" stroke-miterlimit="10" x1="191.53" y1="280.6" x2="178.09" y2="280.6"/>
		<line fill="none" stroke="#283331" stroke-width="0.25" stroke-miterlimit="10" x1="191.53" y1="283.2" x2="178.09" y2="283.2"/>
		
			<line fill="none" stroke="#283331" stroke-width="0.25" stroke-miterlimit="10" x1="191.53" y1="285.77" x2="178.09" y2="285.77"/>
		
			<line fill="none" stroke="#283331" stroke-width="0.25" stroke-miterlimit="10" x1="191.53" y1="288.31" x2="178.09" y2="288.31"/>
		
			<line fill="none" stroke="#283331" stroke-width="0.25" stroke-miterlimit="10" x1="191.53" y1="291.06" x2="178.09" y2="291.06"/>
		
			<line fill="none" stroke="#283331" stroke-width="0.25" stroke-miterlimit="10" x1="191.53" y1="293.94" x2="178.09" y2="293.94"/>
		
			<line fill="none" stroke="#283331" stroke-width="0.25" stroke-miterlimit="10" x1="191.53" y1="297.15" x2="178.09" y2="297.15"/>
		
			<line fill="none" stroke="#283331" stroke-width="0.25" stroke-miterlimit="10" x1="191.53" y1="299.87" x2="178.09" y2="299.87"/>
		<polygon fill="#5C5A5A" points="191.53,298.91 178.09,307.82 178.09,330 191.53,330 		"/>
		<polyline fill="none" stroke="#283331" stroke-miterlimit="10" points="178.09,274.04 178.09,330 191.53,330 191.53,273.24 		"/>
	</g>
</g>
<g id="MLOC-available">
	
		<rect id="studio101s" x="621.75" y="202.45" fill="#A8D7EF" stroke="#273331" stroke-miterlimit="10" width="119.97" height="148.37"/>
	<rect id="music106s" x="497.65" y="330" fill="#A8D7EF" stroke="#273331" stroke-miterlimit="10" width="100.13" height="52.82"/>
	
		<rect id="music104s" x="531.96" y="382.82" fill="#A8D7EF" stroke="#273331" stroke-miterlimit="10" width="65.82" height="39.85"/>
	
		<rect id="music103s" x="621.75" y="350.82" fill="#A8D7EF" stroke="#273331" stroke-miterlimit="10" width="57.26" height="71.85"/>
</g>
<g id="MNOINT-word">
	<text transform="matrix(1 0 0 1 48.4631 256.9677)" font-family="'KozGoPr6N-Regular-83pv-RKSJ-H'" font-size="20px">医務室</text>
	<text transform="matrix(1 0 0 1 279.1095 273.2443)" font-family="'KozGoPr6N-Regular-83pv-RKSJ-H'" font-size="20px">キャリア支援課</text>
	<text transform="matrix(1 0 0 1 624.2114 213.9198)" font-family="'KozGoPr6N-Regular-83pv-RKSJ-H'" font-size="12px">101</text>
	<text transform="matrix(1 0 0 1 622.7546 362.2823)" font-family="'KozGoPr6N-Regular-83pv-RKSJ-H'" font-size="12px">103</text>
	<text transform="matrix(1 0 0 1 498.6485 341.6588)" font-family="'KozGoPr6N-Regular-83pv-RKSJ-H'" font-size="12px">106</text>
	<text transform="matrix(1 0 0 1 531.956 394.4582)" font-family="'KozGoPr6N-Regular-83pv-RKSJ-H'" font-size="12px">104</text>
	<text transform="matrix(1 0 0 1 197.5869 256.3645)" font-family="'KozGoPr6N-Regular-83pv-RKSJ-H'" font-size="20px">EV</text>
	<text transform="matrix(1 0 0 1 651.7383 276.6336)" font-family="'HiraginoSans-W5-83pv-RKSJ-H'" font-size="10px">古典ギター部</text>
	<text transform="matrix(1 0 0 1 527.7128 362.4265)" font-family="'HiraginoSans-W5-83pv-RKSJ-H'" font-size="10px">管弦楽団</text>
	<text transform="matrix(1 0 0 1 544.8665 409.4204)" font-family="'HiraginoSans-W5-83pv-RKSJ-H'" font-size="10px">管弦楽団</text>
	<text transform="matrix(1 0 0 1 632.3378 389.8979)" font-family="'HiraginoSans-W5-83pv-RKSJ-H'" font-size="10px">管弦楽団</text>
</g>
</svg>
