<svg xmlns="http://www.w3.org/2000/svg" viewBox="0 0 720 320"><g id="背景"><polyline id="base" points="0 0 720 0 720 320 0 320" fill="#dcdddd"/></g><g id="廊下"><polyline points="158.63 201.4 132.55 201.4 132.55 133.68 98.37 133.68 98.37 178.61 80.06 178.61 80.06 38.14 662.29 38.19 662.29 73.85 588.86 73.85 588.86 294.07 565.21 294.07 564.78 73.85 464.75 73.85 201.48 73.85 201.48 104.46 191.28 104.46 191.28 134.06 158.63 134.06 158.63 201.4" fill="#b5b5b6" stroke="#273331" stroke-miterlimit="10"/><rect x="158.63" y="104.49" width="32.61" height="29.57" fill="#b5b5b6" stroke="#273331" stroke-miterlimit="10"/><g id="矢印"><path d="M652.11,58.25l3.84,4,.06-3,14.71.3,0-2-14.71-.3.06-2.94Z" fill="#040000"/><path d="M672.48,58.65l-3.84-4-.06,2.94-14.71-.29,0,2,14.71.29-.06,3Z" fill="#040000"/></g><g id="矢印-2" data-name="矢印"><path d="M356.51,25.93l-4,3.84,2.95.06-.3,14.71,2,0,.3-14.71,2.94.06Z" fill="#040000"/><path d="M356.11,46.31l4-3.85-2.94-.06.29-14.71-2,0-.29,14.7-2.95-.06Z" fill="#040000"/></g><g id="矢印-3" data-name="矢印"><path d="M149.44,26.79l-4,3.85,2.94.06-.29,14.7,2,0,.29-14.71,2.95.06Z" fill="#040000"/><path d="M149,47.17l4-3.85-2.95,0,.3-14.71-2,0-.3,14.71-2.94-.06Z" fill="#040000"/></g></g><g id="車椅子用トイレ"><polyline points="98.37 156.42 132.55 156.42 132.55 133.68 98.37 133.68 98.37 156.42" fill="#7cc05a" stroke="#283331" stroke-miterlimit="10"/><rect x="546.56" y="131.11" width="18.31" height="17.8" fill="#7cc05a" stroke="#283331" stroke-miterlimit="10"/><path d="M557.36,134.89a1.58,1.58,0,1,0-1.92-1.14A1.58,1.58,0,0,0,557.36,134.89Z" fill="#fff"/><path d="M558.82,139l-.13,1.36a3.93,3.93,0,0,1,.59.47,3.64,3.64,0,1,1-6.1,3.42l-.71,1.57a4.88,4.88,0,1,0,6.35-6.82Z" fill="#fff"/><path d="M555.64,143.06a1.9,1.9,0,0,0,2.18-1.94l.4-4.19a1.2,1.2,0,0,0-1.07-1.39,1.55,1.55,0,0,0-1.22.48L554,138l-2.06.18a.63.63,0,0,0-.58.63v0a.63.63,0,0,0,.64.64h2.43l1.1-.81-.18,2-2.7.2a1.41,1.41,0,0,0-1.42,1.05l-1.27,3.49a.85.85,0,0,0,1.55.7l1.44-3.06Z" fill="#fff"/><path d="M117.34,140.5a1.57,1.57,0,1,0-1.92-1.14A1.57,1.57,0,0,0,117.34,140.5Z" fill="#fff"/><path d="M118.8,144.57l-.13,1.35a3.44,3.44,0,0,1,.59.48,3.63,3.63,0,1,1-6.1,3.41l-.71,1.58a4.88,4.88,0,1,0,6.35-6.82Z" fill="#fff"/><path d="M115.62,148.67a1.89,1.89,0,0,0,2.18-1.93l.4-4.2a1.21,1.21,0,0,0-1.07-1.39,1.59,1.59,0,0,0-1.22.49l-2,1.94-2.06.17a.64.64,0,0,0-.58.64v0a.64.64,0,0,0,.64.64h2.43l1.1-.82-.18,2.05-2.7.19a1.43,1.43,0,0,0-1.42,1L109.89,151a.86.86,0,0,0,.43,1.13.85.85,0,0,0,1.12-.43l1.44-3.06Z" fill="#fff"/></g><g id="女子トイレ"><rect x="98.37" y="156.42" width="34.18" height="22.2" fill="#f19899" stroke="#283331" stroke-miterlimit="10"/><rect x="503.46" y="148.91" width="61.42" height="52.49" fill="#f19899" stroke="#283331" stroke-miterlimit="10"/></g><g id="男子トイレ"><rect x="80.05" y="178.61" width="52.5" height="22.79" fill="#54c3f1" stroke="#283331" stroke-miterlimit="10"/><polygon points="564.78 73.85 503.46 73.85 503.46 148.91 546.56 148.91 546.56 131.11 564.88 131.11 564.78 73.85" fill="#54c3f1" stroke="#283331" stroke-miterlimit="10"/></g><g id="トイレマーク"><g id="男女"><path d="M121.49,170.61a3.21,3.21,0,1,0-3.21-3.21A3.21,3.21,0,0,0,121.49,170.61Z" fill="#fff"/><path d="M109.54,170.61a3.21,3.21,0,1,0-3.21-3.21A3.21,3.21,0,0,0,109.54,170.61Z" fill="#fff"/><path d="M126.36,183.07,122,172.7a.52.52,0,0,0-.47-.3.49.49,0,0,0-.46.3l-4.41,10.37a2,2,0,0,0,1.86,2.81h6a2,2,0,0,0,1.86-2.81Z" fill="#fff"/><path d="M112.55,172.4h-6a2,2,0,0,0-1.86,2.81l4.4,10.36a.5.5,0,0,0,.93,0l4.41-10.36a2,2,0,0,0-1.86-2.81Z" fill="#fff"/></g><g id="男女-2" data-name="男女"><path d="M534.6,107a3.21,3.21,0,1,0-3.21-3.21A3.21,3.21,0,0,0,534.6,107Z" fill="#fff"/><path d="M537.61,108.74h-6a2,2,0,0,0-1.86,2.82l4.4,10.36a.51.51,0,0,0,.47.31.5.5,0,0,0,.46-.31l4.41-10.36a2,2,0,0,0-.18-1.91A2,2,0,0,0,537.61,108.74Z" fill="#fff"/></g><g id="男女-3" data-name="男女"><path d="M534.6,170.73a3.21,3.21,0,1,0-3.21-3.21A3.21,3.21,0,0,0,534.6,170.73Z" fill="#fff"/><path d="M539.47,183.19l-4.41-10.36a.5.5,0,0,0-.46-.31.51.51,0,0,0-.47.31l-4.4,10.36a2,2,0,0,0,1.86,2.81h6a2,2,0,0,0,1.86-2.81Z" fill="#fff"/></g></g><g id="使用不可能部屋"><polygon points="158.63 134.06 191.28 134.06 191.28 104.46 201.48 104.46 201.48 73.85 464.75 73.85 464.75 201.4 158.63 201.4 158.63 134.06" fill="#929292" stroke="#273331" stroke-miterlimit="10"/><rect x="11.18" y="38.14" width="68.88" height="163.27" fill="#929292" stroke="#273331" stroke-miterlimit="10"/><rect x="464.75" y="254.22" width="34.31" height="39.85" fill="#929292" stroke="#273331" stroke-miterlimit="10"/><rect x="646.12" y="222.22" width="62.7" height="71.85" fill="#929292" stroke="#273331" stroke-miterlimit="10"/></g><g id="階段"><line x1="503.46" y1="122.23" x2="484.02" y2="122.23" fill="none" stroke="#283331" stroke-miterlimit="10" stroke-width="0.25"/><line x1="503.46" y1="126.4" x2="484.02" y2="126.4" fill="none" stroke="#283331" stroke-miterlimit="10" stroke-width="0.25"/><line x1="503.46" y1="129.91" x2="484.02" y2="129.91" fill="none" stroke="#283331" stroke-miterlimit="10" stroke-width="0.25"/><line x1="503.46" y1="133.68" x2="484.02" y2="133.68" fill="none" stroke="#283331" stroke-miterlimit="10" stroke-width="0.25"/><line x1="503.46" y1="137.4" x2="484.02" y2="137.4" fill="none" stroke="#283331" stroke-miterlimit="10" stroke-width="0.25"/><line x1="503.46" y1="141.07" x2="484.02" y2="141.07" fill="none" stroke="#283331" stroke-miterlimit="10" stroke-width="0.25"/><line x1="503.46" y1="145.05" x2="484.02" y2="145.05" fill="none" stroke="#283331" stroke-miterlimit="10" stroke-width="0.25"/><line x1="503.46" y1="149.21" x2="484.02" y2="149.21" fill="none" stroke="#283331" stroke-miterlimit="10" stroke-width="0.25"/><line x1="503.46" y1="153.86" x2="484.02" y2="153.86" fill="none" stroke="#283331" stroke-miterlimit="10" stroke-width="0.25"/><line x1="503.46" y1="157.79" x2="484.02" y2="157.79" fill="none" stroke="#283331" stroke-miterlimit="10" stroke-width="0.25"/><polygon points="503.46 156.42 484.02 169.3 484.02 201.4 503.46 201.4 503.46 156.42" fill="#5c5a5a"/><polyline points="484.02 120.42 484.02 201.4 503.46 201.4 503.46 119.27" fill="none" stroke="#283331" stroke-miterlimit="10"/><line x1="158.63" y1="146.69" x2="145.19" y2="146.69" fill="none" stroke="#283331" stroke-miterlimit="10" stroke-width="0.25"/><line x1="158.63" y1="149.57" x2="145.19" y2="149.57" fill="none" stroke="#283331" stroke-miterlimit="10" stroke-width="0.25"/><line x1="158.63" y1="152" x2="145.19" y2="152" fill="none" stroke="#283331" stroke-miterlimit="10" stroke-width="0.25"/><line x1="158.63" y1="154.61" x2="145.19" y2="154.61" fill="none" stroke="#283331" stroke-miterlimit="10" stroke-width="0.25"/><line x1="158.63" y1="157.17" x2="145.19" y2="157.17" fill="none" stroke="#283331" stroke-miterlimit="10" stroke-width="0.25"/><line x1="158.63" y1="159.71" x2="145.19" y2="159.71" fill="none" stroke="#283331" stroke-miterlimit="10" stroke-width="0.25"/><line x1="158.63" y1="162.46" x2="145.19" y2="162.46" fill="none" stroke="#283331" stroke-miterlimit="10" stroke-width="0.25"/><line x1="158.63" y1="165.34" x2="145.19" y2="165.34" fill="none" stroke="#283331" stroke-miterlimit="10" stroke-width="0.25"/><line x1="158.63" y1="168.55" x2="145.19" y2="168.55" fill="none" stroke="#283331" stroke-miterlimit="10" stroke-width="0.25"/><line x1="158.63" y1="171.27" x2="145.19" y2="171.27" fill="none" stroke="#283331" stroke-miterlimit="10" stroke-width="0.25"/><polygon points="158.63 170.31 145.19 179.22 145.19 201.4 158.63 201.4 158.63 170.31" fill="#5c5a5a"/><polyline points="145.19 145.44 145.19 201.4 158.63 201.4 158.63 144.65" fill="none" stroke="#283331" stroke-miterlimit="10"/></g><g id="MLOC-available"><rect id="studio101s" x="588.85" y="73.85" width="119.97" height="148.37" fill="#a8d7ef" stroke="#273331" stroke-miterlimit="10"/><rect id="music106s" x="464.75" y="201.4" width="100.13" height="52.82" fill="#a8d7ef" stroke="#273331" stroke-miterlimit="10"/><rect id="music104s" x="499.06" y="254.22" width="65.82" height="39.85" fill="#a8d7ef" stroke="#273331" stroke-miterlimit="10"/><rect id="music103s" x="588.85" y="222.22" width="57.26" height="71.85" fill="#a8d7ef" stroke="#273331" stroke-miterlimit="10"/></g><g id="MNOINT-word"><text transform="translate(15.56 128.37)" font-size="20" fill="#231815" font-family="KozGoPr6N-Regular-83pv-RKSJ-H, Kozuka Gothic Pr6N">医務室</text><text transform="translate(246.21 144.65)" font-size="20" fill="#231815" font-family="KozGoPr6N-Regular-83pv-RKSJ-H, Kozuka Gothic Pr6N">キャリア支援課</text><text transform="translate(591.31 85.32)" font-size="12" fill="#231815" font-family="KozGoPr6N-Regular-83pv-RKSJ-H, Kozuka Gothic Pr6N">101</text><text transform="translate(589.85 233.68)" font-size="12" fill="#231815" font-family="KozGoPr6N-Regular-83pv-RKSJ-H, Kozuka Gothic Pr6N">103</text><text transform="translate(465.75 213.06)" font-size="12" fill="#231815" font-family="KozGoPr6N-Regular-83pv-RKSJ-H, Kozuka Gothic Pr6N">106</text><text transform="translate(499.06 265.86)" font-size="12" fill="#231815" font-family="KozGoPr6N-Regular-83pv-RKSJ-H, Kozuka Gothic Pr6N">104</text><text transform="translate(164.69 127.77)" font-size="20" fill="#231815" font-family="KozGoPr6N-Regular-83pv-RKSJ-H, Kozuka Gothic Pr6N">EV</text><text transform="translate(618.84 148.03)" font-size="10" fill="#231815" font-family="HiraginoSans-W5-83pv-RKSJ-H, Hiragino Sans">古典ギター部</text><text transform="translate(494.81 233.83)" font-size="10" fill="#231815" font-family="HiraginoSans-W5-83pv-RKSJ-H, Hiragino Sans">管弦楽団</text><text transform="translate(511.97 280.82)" font-size="10" fill="#231815" font-family="HiraginoSans-W5-83pv-RKSJ-H, Hiragino Sans">管弦楽団</text><text transform="translate(599.44 261.3)" font-size="10" fill="#231815" font-family="HiraginoSans-W5-83pv-RKSJ-H, Hiragino Sans">管弦楽団</text></g></svg>