<svg xmlns="http://www.w3.org/2000/svg" viewBox="0 0 720 320">
    <g id="背景">
        <polyline id="base" points="0 320 720 320 720 0 0 0" fill="#dcdddd"/>
    </g>
    <g id="使用不可能部屋">
        <rect x="47.2" y="83.32" width="103.06" height="171.7" fill="#929292" stroke="#273331" stroke-miterlimit="10"/>
    </g>
    <g id="廊下">
        <polygon points="150.26 83.31 150.26 178.93 189.97 178.93 189.97 255.01 221.2 255.01 221.2 178.93 605.93 178.93 605.93 255.01 672.8 255.01 672.8 128.53 605.93 128.53 605.93 140.89 200.69 140.89 200.69 83.31 150.26 83.31" fill="#b5b5b6" stroke="#273331" stroke-miterlimit="10"/>
    </g>
    <g id="男子トイレ">
        <rect x="150.26" y="178.93" width="39.71" height="76.08" fill="#54c3f1" stroke="#283331" stroke-miterlimit="10"/>
        <g id="男">
            <path d="M170.12,215.19a3.21,3.21,0,1,0-3.21-3.21A3.21,3.21,0,0,0,170.12,215.19Z" fill="#fff"/>
            <path d="M173.13,217h-6a2,2,0,0,0-1.86,2.82l4.4,10.36a.5.5,0,0,0,.93,0L175,219.79a2,2,0,0,0-1.86-2.82Z" fill="#fff"/>
        </g>
    </g>
    <g id="階段">
        <polyline points="189.97 200.3 221.2 200.3 221.2 216.07 189.97 216.07" fill="none" stroke="#283331" stroke-miterlimit="10" stroke-width="0.25"/>
        <line x1="221.2" y1="203.18" x2="189.97" y2="203.18" fill="none" stroke="#283331" stroke-miterlimit="10" stroke-width="0.25"/>
        <line x1="221.2" y1="205.61" x2="189.97" y2="205.61" fill="none" stroke="#283331" stroke-miterlimit="10" stroke-width="0.25"/>
        <line x1="221.2" y1="208.22" x2="189.97" y2="208.22" fill="none" stroke="#283331" stroke-miterlimit="10" stroke-width="0.25"/>
        <line x1="221.2" y1="210.78" x2="189.97" y2="210.78" fill="none" stroke="#283331" stroke-miterlimit="10" stroke-width="0.25"/>
        <line x1="221.2" y1="213.32" x2="189.97" y2="213.32" fill="none" stroke="#283331" stroke-miterlimit="10" stroke-width="0.25"/>
        <line x1="221.2" y1="218.95" x2="189.97" y2="218.95" fill="none" stroke="#283331" stroke-miterlimit="10" stroke-width="0.25"/>
        <line x1="221.2" y1="222.16" x2="189.97" y2="222.16" fill="none" stroke="#283331" stroke-miterlimit="10" stroke-width="0.25"/>
        <line x1="221.2" y1="224.88" x2="189.97" y2="224.88" fill="none" stroke="#283331" stroke-miterlimit="10" stroke-width="0.25"/>
        <line x1="221.2" y1="255.01" x2="189.97" y2="255.01" fill="none" stroke="#273331" stroke-miterlimit="10"/>
        <line x1="221.2" y1="227.66" x2="189.97" y2="227.66" fill="none" stroke="#283331" stroke-miterlimit="10" stroke-width="0.25"/>
        <line x1="221.2" y1="230.94" x2="189.97" y2="230.94" fill="none" stroke="#283331" stroke-miterlimit="10" stroke-width="0.25"/>
        <polygon points="205.59 221.48 221.2 215.36 221.2 200.1 205.59 200.1 205.59 221.48" fill="#5c5a5a"/>
        <line x1="189.97" y1="200.3" x2="189.97" y2="255.01" fill="none" stroke="#273331" stroke-miterlimit="10"/>
        <polyline points="205.59 222.16 205.59 200.13 205.59 233.81" fill="none" stroke="#273331" stroke-miterlimit="10"/>
        <polyline points="605.93 186.97 644.87 186.97 644.87 206.63 605.93 206.63" fill="none" stroke="#283331" stroke-miterlimit="10" stroke-width="0.25"/>
        <line x1="644.87" y1="190.56" x2="605.93" y2="190.56" fill="none" stroke="#283331" stroke-miterlimit="10" stroke-width="0.25"/>
        <line x1="644.87" y1="193.59" x2="605.93" y2="193.59" fill="none" stroke="#283331" stroke-miterlimit="10" stroke-width="0.25"/>
        <line x1="644.87" y1="196.84" x2="605.93" y2="196.84" fill="none" stroke="#283331" stroke-miterlimit="10" stroke-width="0.25"/>
        <line x1="644.87" y1="200.04" x2="605.93" y2="200.04" fill="none" stroke="#283331" stroke-miterlimit="10" stroke-width="0.25"/>
        <line x1="644.87" y1="203.21" x2="605.93" y2="203.21" fill="none" stroke="#283331" stroke-miterlimit="10" stroke-width="0.25"/>
        <line x1="644.87" y1="210.22" x2="605.93" y2="210.22" fill="none" stroke="#283331" stroke-miterlimit="10" stroke-width="0.25"/>
        <line x1="644.87" y1="214.23" x2="605.93" y2="214.23" fill="none" stroke="#283331" stroke-miterlimit="10" stroke-width="0.25"/>
        <line x1="644.87" y1="217.62" x2="605.93" y2="217.62" fill="none" stroke="#283331" stroke-miterlimit="10" stroke-width="0.25"/>
        <line x1="644.87" y1="255.19" x2="605.93" y2="255.19" fill="none" stroke="#273331" stroke-miterlimit="10"/>
        <line x1="644.87" y1="221.08" x2="605.93" y2="221.08" fill="none" stroke="#283331" stroke-miterlimit="10" stroke-width="0.25"/>
        <line x1="644.87" y1="225.17" x2="605.93" y2="225.17" fill="none" stroke="#283331" stroke-miterlimit="10" stroke-width="0.25"/>
        <polygon points="625.4 213.38 644.87 205.75 644.87 186.73 625.4 186.73 625.4 213.38" fill="#5c5a5a"/>
        <line x1="605.93" y1="255.19" x2="605.93" y2="186.97" fill="#b5b5b6" stroke="#273331" stroke-miterlimit="10"/>
        <polyline points="625.4 214.22 625.4 186.77 625.4 228.75" fill="none" stroke="#273331" stroke-miterlimit="10"/>
        <line x1="644.87" y1="186.97" x2="644.87" y2="255.19" fill="#b5b5b6" stroke="#273331" stroke-miterlimit="10"/>
    </g>
    <g id="EV">
        <rect x="221.2" y="178.93" width="32.61" height="29.57" fill="#b5b5b6" stroke="#273331" stroke-miterlimit="10"/>
    </g>
    <g id="女子トイレ">
        <polyline points="253.81 178.93 268.12 178.93 268.12 255.01 221.2 255.01 221.2 208.5 253.81 208.5 253.81 178.93" fill="#e79395" stroke="#273331" stroke-miterlimit="10"/>
        <g id="女">
            <path d="M244.66,220.74a3.21,3.21,0,1,0-3.21-3.21A3.21,3.21,0,0,0,244.66,220.74Z" fill="#fff"/>
            <path d="M249.53,233.2l-4.4-10.36a.51.51,0,0,0-.94,0l-4.4,10.36a2,2,0,0,0,1.86,2.81h6a2,2,0,0,0,1.86-2.81Z" fill="#fff"/>
        </g>
    </g>
    <g id="MLOC-available">
        <rect id="room229f" x="268.12" y="64.81" width="37.54" height="76.08" fill="#a8d7ef" stroke="#273331" stroke-miterlimit="10"/>
        <rect id="room228f" x="305.65" y="64.81" width="37.54" height="76.08" fill="#a8d7ef" stroke="#273331" stroke-miterlimit="10"/>
        <rect id="room227f" x="343.19" y="64.81" width="37.54" height="76.08" fill="#a8d7ef" stroke="#273331" stroke-miterlimit="10"/>
        <rect id="room226f" x="380.72" y="64.81" width="37.54" height="76.08" fill="#a8d7ef" stroke="#273331" stroke-miterlimit="10"/>
        <rect id="room225f" x="418.26" y="64.81" width="37.54" height="76.08" fill="#a8d7ef" stroke="#273331" stroke-miterlimit="10"/>
        <rect id="room224f" x="455.79" y="64.81" width="37.54" height="76.08" fill="#a8d7ef" stroke="#273331" stroke-miterlimit="10"/>
        <rect id="room223f" x="493.33" y="64.81" width="37.54" height="76.08" fill="#a8d7ef" stroke="#273331" stroke-miterlimit="10"/>
        <rect id="room222f" x="530.86" y="64.81" width="37.54" height="76.08" fill="#a8d7ef" stroke="#273331" stroke-miterlimit="10"/>
        <rect id="room221f" x="568.4" y="64.81" width="37.54" height="76.08" fill="#a8d7ef" stroke="#273331" stroke-miterlimit="10"/>
        <rect id="room7-230f" x="200.69" y="64.81" width="67.43" height="76.08" fill="#a8d7ef" stroke="#273331" stroke-miterlimit="10"/>
        <rect id="room218f" x="268.12" y="178.93" width="75.07" height="76.08" fill="#a8d7ef" stroke="#273331" stroke-miterlimit="10"/>
        <rect id="room216f" x="343.19" y="178.93" width="75.07" height="76.08" fill="#a8d7ef" stroke="#273331" stroke-miterlimit="10"/>
        <rect id="wa212f" x="530.86" y="178.93" width="37.54" height="76.08" fill="#a8d7ef" stroke="#273331" stroke-miterlimit="10"/>
        <rect id="wa211f" x="568.4" y="178.93" width="37.54" height="76.08" fill="#a8d7ef" stroke="#273331" stroke-miterlimit="10"/>
        <rect id="wa213f" x="474.56" y="178.93" width="56.3" height="76.08" fill="#a8d7ef" stroke="#273331" stroke-miterlimit="10"/>
        <rect id="wa215f" x="418.26" y="178.93" width="56.3" height="76.08" fill="#a8d7ef" stroke="#273331" stroke-miterlimit="10"/>
    </g>
    <g id="MNOINT-word">
        <text transform="translate(572.49 220.74)" font-size="10" fill="#231815" font-family="HiraginoSans-W5-83pv-RKSJ-H, Hiragino Sans">茶道部</text>
        <text transform="translate(226.26 202.3)" font-size="20" fill="#231815" font-family="KozGoPr6N-Regular-83pv-RKSJ-H, Kozuka Gothic Pr6N">EV</text>
        <text transform="translate(48.88 171.88)" font-size="20" fill="#231815" font-family="KozGoPr6N-Regular-83pv-RKSJ-H, Kozuka Gothic Pr6N">学生相談室</text>
        <text transform="translate(201.69 77.02)" font-size="12" fill="#231815" font-family="KozGoPr6N-Regular-83pv-RKSJ-H, Kozuka Gothic Pr6N">230</text>
        <text transform="translate(270.33 77.02)" font-size="12" fill="#231815" font-family="KozGoPr6N-Regular-83pv-RKSJ-H, Kozuka Gothic Pr6N">229</text>
        <text transform="translate(307.58 77.24)" font-size="12" fill="#231815" font-family="KozGoPr6N-Regular-83pv-RKSJ-H, Kozuka Gothic Pr6N">228</text>
        <text transform="translate(345.06 77.02)" font-size="12" fill="#231815" font-family="KozGoPr6N-Regular-83pv-RKSJ-H, Kozuka Gothic Pr6N">227</text>
        <text transform="translate(383.48 77.02)" font-size="12" fill="#231815" font-family="KozGoPr6N-Regular-83pv-RKSJ-H, Kozuka Gothic Pr6N">226</text>
        <text transform="translate(421.34 77.02)" font-size="12" fill="#231815" font-family="KozGoPr6N-Regular-83pv-RKSJ-H, Kozuka Gothic Pr6N">225</text>
        <text transform="translate(457.82 77.13)" font-size="12" fill="#231815" font-family="KozGoPr6N-Regular-83pv-RKSJ-H, Kozuka Gothic Pr6N">224</text>
        <text transform="translate(495.29 76.91)" font-size="12" fill="#231815" font-family="KozGoPr6N-Regular-83pv-RKSJ-H, Kozuka Gothic Pr6N">223</text>
        <text transform="translate(533.71 76.91)" font-size="12" fill="#231815" font-family="KozGoPr6N-Regular-83pv-RKSJ-H, Kozuka Gothic Pr6N">222</text>
        <text transform="translate(571.57 76.91)" font-size="12" fill="#231815" font-family="KozGoPr6N-Regular-83pv-RKSJ-H, Kozuka Gothic Pr6N">221</text>
        <text transform="translate(270.92 190.56)" font-size="12" fill="#231815" font-family="KozGoPr6N-Regular-83pv-RKSJ-H, Kozuka Gothic Pr6N">218</text>
        <text transform="translate(345.65 191)" font-size="12" fill="#231815" font-family="KozGoPr6N-Regular-83pv-RKSJ-H, Kozuka Gothic Pr6N">216</text>
        <text transform="translate(420.13 190.71)" font-size="12" fill="#231815" font-family="KozGoPr6N-Regular-83pv-RKSJ-H, Kozuka Gothic Pr6N">215</text>
        <text transform="translate(475.56 190.15)" font-size="12" fill="#231815" font-family="KozGoPr6N-Regular-83pv-RKSJ-H, Kozuka Gothic Pr6N">213</text>
        <text transform="translate(531.86 190.15)" font-size="12" fill="#231815" font-family="KozGoPr6N-Regular-83pv-RKSJ-H, Kozuka Gothic Pr6N">212</text>
        <text transform="translate(570.17 190.15)" font-size="12" fill="#231815" font-family="KozGoPr6N-Regular-83pv-RKSJ-H, Kozuka Gothic Pr6N">211</text>
        <text transform="translate(534.99 220.74)" font-size="10" fill="#231815" font-family="HiraginoSans-W5-83pv-RKSJ-H, Hiragino Sans">茶道部</text>
        <text transform="translate(487.71 221.08)" font-size="10" fill="#231815" font-family="HiraginoSans-W5-83pv-RKSJ-H, Hiragino Sans">将棋部</text>
        <text transform="translate(431.71 220.74)" font-size="10" fill="#231815" font-family="HiraginoSans-W5-83pv-RKSJ-H, Hiragino Sans">将棋部</text>
        <text transform="translate(365.72 221.08)" font-size="10" fill="#231815" font-family="HiraginoSans-W5-83pv-RKSJ-H, Hiragino Sans">写真部</text>
        <text transform="translate(269.65 216.08)" font-size="9" fill="#231815" font-family="HiraginoSans-W5-83pv-RKSJ-H, Hiragino Sans">人力飛行機研究会            <tspan x="19.85" y="12">MaPPL</tspan>
        </text>
        <text transform="translate(204.51 104.6)" font-size="10" fill="#231815" font-family="HiraginoSans-W5-83pv-RKSJ-H, Hiragino Sans">環境サークル            <tspan x="12.94" y="12">nature</tspan>
        </text>
        <text transform="translate(381.99 100.64)" font-size="7" fill="#231815" font-family="HiraginoSans-W5-83pv-RKSJ-H, Hiragino Sans">いきもの！            <tspan x="3.5" y="9">サークル</tspan>
            <tspan x="10.5" y="18">東京</tspan>
        </text>
        <text transform="translate(570.67 100.57)" font-size="8" fill="#231815" font-family="HiraginoSans-W5-83pv-RKSJ-H, Hiragino Sans">Closeup<tspan x="4.35" y="10">Magic</tspan>
            <tspan x="4.9" y="20">Circle</tspan>
        </text>
        <text transform="translate(534.63 111.42)" font-size="10" fill="#231815" font-family="HiraginoSans-W5-83pv-RKSJ-H, Hiragino Sans">美術部</text>
        <text transform="translate(422.03 111.8)" font-size="10" fill="#231815" font-family="HiraginoSans-W5-83pv-RKSJ-H, Hiragino Sans">応援団</text>
        <text transform="translate(456.59 105.84)" font-size="9" fill="#231815" font-family="HiraginoSans-W5-83pv-RKSJ-H, Hiragino Sans">キャプス            <tspan x="14.9" y="12">5</tspan>
        </text>
        <text transform="translate(498.6 101.42)" font-size="9" fill="#231815" font-family="HiraginoSans-W5-83pv-RKSJ-H, Hiragino Sans">ボード            <tspan x="0" y="10">ゲーム</tspan>
            <tspan x="0" y="20">研究会</tspan>
        </text>
        <text transform="translate(345.96 105.84)" font-size="8" fill="#231815" font-family="HiraginoSans-W5-83pv-RKSJ-H, Hiragino Sans">推理小説            <tspan x="4" y="9">研究会</tspan>
        </text>
        <text transform="translate(312.42 105.85)" font-size="6" fill="#231815" font-family="HiraginoSans-W5-83pv-RKSJ-H, Hiragino Sans">ワンダー            <tspan x="-6" y="9">フォーゲル部</tspan>
        </text>
        <text transform="translate(269.39 110.57)" font-size="7" fill="#231815" font-family="HiraginoSans-W5-83pv-RKSJ-H, Hiragino Sans">鉄道研究会</text>
    </g>
</svg>