<svg xmlns="http://www.w3.org/2000/svg" viewBox="0 0 718.18 566.49"><g id="base"><polyline id="base-2" data-name="base" points="1.63 0 718.15 0 718.15 566.49 1.63 566.49" fill="#dcdddd"/></g><g id="library"><polyline points="1.63 376.63 17.89 360.37 17.89 52.91 1.63 52.91" fill="#929292" stroke="#231815" stroke-miterlimit="10"/></g><g id="base_map"><polyline points="1.01 387.75 24.39 370.77 24.39 135.47 62.93 135.47 62.93 53.54 573.95 53.54 573.95 117.64 717.65 117.64 717.65 194.25 569.61 194.25 569.61 317.55 694.84 317.55 694.84 357.1 646.95 356.98 646.95 375.65 691.8 375.65 692 416.57 419.28 416.57 419.35 486.32 137.71 486.32 137.85 470.45 104.95 470.45 104.95 489.68 13.21 543.39 1.01 543.39" fill="#b5b5b6" stroke="#273331" stroke-miterlimit="10"/><polyline points="718.18 118.15 716.18 118.15 716.18 193.74 718.18 193.74" fill="#b5b5b6"/></g><g id="MLOC-avilable"><polyline id="seikyo_space" points="513.04 103.33 120.87 103.33 120.87 425.46 353.37 425.46 353.37 376.22 430.4 376.22 430.35 349.52 418.5 349.52 418.5 319.66 513.04 319.45 513.04 155.31 434.67 155.14" fill="#d6d2e8" stroke="#231815" stroke-miterlimit="10" stroke-width="2"/><polygon id="danwa" points="512.68 319.14 512.68 228.46 399.37 228.46 399.37 319.14 422.63 319.14 512.68 319.14" fill="#aedef8" stroke="#231815" stroke-miterlimit="10"/><polygon id="shisaku" points="151.53 541.47 215.07 541.47 215.07 486.35 151.53 486.35 151.53 497.67 151.53 541.47" fill="#aedef8" stroke="#273331" stroke-miterlimit="10"/><text transform="translate(159.3 519.45)" font-size="12" fill="#231815" font-family="HiraginoSans-W5-83pv-RKSJ-H, Hiragino Sans">世界民謡<tspan x="6" y="14">研究会</tspan></text></g><g id="unavailable"><rect x="256.92" y="486.31" width="41.84" height="55.13" fill="#929292" stroke="#283331" stroke-miterlimit="10"/><rect x="298.76" y="486.31" width="41.84" height="55.13" fill="#929292" stroke="#283331" stroke-miterlimit="10"/><rect x="215.08" y="486.39" width="41.84" height="55.13" fill="#929292" stroke="#283331" stroke-miterlimit="10"/><rect x="340.6" y="486.31" width="41.84" height="55.13" fill="#929292" stroke="#283331" stroke-miterlimit="10"/><rect x="656.81" y="415.99" width="35.07" height="55.13" fill="#929292" stroke="#283331" stroke-miterlimit="10"/><rect x="623.61" y="415.99" width="33.2" height="55.13" fill="#929292" stroke="#283331" stroke-miterlimit="10"/><rect x="600.94" y="415.99" width="22.67" height="55.13" fill="#929292" stroke="#283331" stroke-miterlimit="10"/><rect x="577.69" y="415.99" width="23.25" height="55.13" fill="#929292" stroke="#283331" stroke-miterlimit="10"/><rect x="554.58" y="415.99" width="23.16" height="55.13" fill="#929292" stroke="#283331" stroke-miterlimit="10"/><rect x="531.91" y="415.99" width="22.67" height="55.13" fill="#929292" stroke="#283331" stroke-miterlimit="10"/><rect x="509.24" y="415.99" width="22.67" height="55.13" fill="#929292" stroke="#283331" stroke-miterlimit="10"/><rect x="486.85" y="415.99" width="22.67" height="55.13" fill="#929292" stroke="#283331" stroke-miterlimit="10"/><rect x="453.07" y="415.99" width="33.78" height="55.13" fill="#929292" stroke="#283331" stroke-miterlimit="10"/><rect x="419.28" y="415.99" width="33.78" height="55.13" fill="#929292" stroke="#283331" stroke-miterlimit="10"/><rect x="659.49" y="242.5" width="35.32" height="75.38" fill="#929292" stroke="#283331" stroke-miterlimit="10"/><rect x="609.31" y="242.5" width="50.18" height="75.38" fill="#929292" stroke="#283331" stroke-miterlimit="10"/><rect x="569.62" y="242.5" width="39.69" height="75.38" fill="#929292" stroke="#283331" stroke-miterlimit="10"/></g><g id="stairs"><path d="M0,405.71l9.22,5.36v-4H43.81v-2.68H9.22v-4Z" fill="#040000"/><g id="stair_to_park"><polygon points="455.01 103.83 436.81 155.14 511.04 155.14 511.04 103.83 455.01 103.83" fill="#ebebec" stroke="#231815" stroke-miterlimit="10"/><line x1="444.64" y1="133.27" x2="444.64" y2="155.14" fill="none" stroke="#231815" stroke-miterlimit="10"/><line x1="440.77" y1="155.14" x2="440.77" y2="144.2" fill="none" stroke="#231815" stroke-miterlimit="10"/><line x1="448.51" y1="155.14" x2="448.51" y2="123.38" fill="none" stroke="#231815" stroke-miterlimit="10"/><line x1="456.39" y1="103.83" x2="456.39" y2="155.14" fill="none" stroke="#231815" stroke-miterlimit="10"/><line x1="452.59" y1="155.14" x2="452.59" y2="110.66" fill="none" stroke="#231815" stroke-miterlimit="10"/><line x1="460.33" y1="155.14" x2="460.33" y2="103.83" fill="none" stroke="#231815" stroke-miterlimit="10"/><line x1="464.5" y1="103.83" x2="464.5" y2="155.14" fill="none" stroke="#231815" stroke-miterlimit="10"/><line x1="468.44" y1="155.14" x2="468.44" y2="103.83" fill="none" stroke="#231815" stroke-miterlimit="10"/><line x1="495.46" y1="103.83" x2="495.46" y2="155.14" fill="none" stroke="#231815" stroke-miterlimit="10"/><line x1="499.37" y1="155.14" x2="499.37" y2="103.83" fill="none" stroke="#231815" stroke-miterlimit="10"/><line x1="503.28" y1="103.83" x2="503.28" y2="155.14" fill="none" stroke="#231815" stroke-miterlimit="10"/><line x1="507.19" y1="155.14" x2="507.19" y2="103.83" fill="none" stroke="#231815" stroke-miterlimit="10"/><line x1="479.82" y1="103.83" x2="479.82" y2="155.14" fill="none" stroke="#231815" stroke-miterlimit="10"/><line x1="483.73" y1="155.14" x2="483.73" y2="103.83" fill="none" stroke="#231815" stroke-miterlimit="10"/><line x1="487.64" y1="103.83" x2="487.64" y2="155.14" fill="none" stroke="#231815" stroke-miterlimit="10"/><line x1="491.55" y1="155.14" x2="491.55" y2="103.83" fill="none" stroke="#231815" stroke-miterlimit="10"/></g><g id="spiral_stair_cir"><path d="M508,375.43h25.7a10.16,10.16,0,0,0,10.16-10.17V363a12.6,12.6,0,0,0-12.6-12.6H519l3.16,12.1H508" fill="#fff" stroke="#231815" stroke-miterlimit="10"/><line x1="521.87" y1="350.13" x2="521.87" y2="361.22" fill="#fff" stroke="#231815" stroke-miterlimit="10"/><line x1="524.5" y1="350.35" x2="524.5" y2="362.69" fill="#fff" stroke="#231815" stroke-miterlimit="10"/><line x1="527.01" y1="350.35" x2="527.01" y2="362.45" fill="#fff" stroke="#231815" stroke-miterlimit="10"/><line x1="524.5" y1="350.35" x2="524.5" y2="362.69" fill="#fff" stroke="#231815" stroke-miterlimit="10"/><line x1="527.01" y1="350.35" x2="527.01" y2="362.45" fill="#fff" stroke="#231815" stroke-miterlimit="10"/><line x1="529.54" y1="350.35" x2="529.54" y2="362.69" fill="#fff" stroke="#231815" stroke-miterlimit="10"/><line x1="532.05" y1="350.35" x2="532.05" y2="362.45" fill="#fff" stroke="#231815" stroke-miterlimit="10"/><line x1="525.88" y1="362.89" x2="525.88" y2="375.23" fill="#fff" stroke="#231815" stroke-miterlimit="10"/><line x1="528.27" y1="362.89" x2="528.27" y2="374.99" fill="#fff" stroke="#231815" stroke-miterlimit="10"/><line x1="530.66" y1="362.89" x2="530.66" y2="375.23" fill="#fff" stroke="#231815" stroke-miterlimit="10"/><line x1="533.05" y1="362.89" x2="533.05" y2="374.99" fill="#fff" stroke="#231815" stroke-miterlimit="10"/><line x1="516.32" y1="362.89" x2="516.32" y2="375.23" fill="#fff" stroke="#231815" stroke-miterlimit="10"/><line x1="518.71" y1="362.89" x2="518.71" y2="374.99" fill="#fff" stroke="#231815" stroke-miterlimit="10"/><line x1="521.1" y1="362.89" x2="521.1" y2="375.23" fill="#fff" stroke="#231815" stroke-miterlimit="10"/><line x1="523.49" y1="362.89" x2="523.49" y2="374.99" fill="#fff" stroke="#231815" stroke-miterlimit="10"/><line x1="509.14" y1="362.89" x2="509.14" y2="374.99" fill="#fff" stroke="#231815" stroke-miterlimit="10"/><line x1="511.53" y1="362.89" x2="511.53" y2="375.23" fill="#fff" stroke="#231815" stroke-miterlimit="10"/><line x1="513.92" y1="362.89" x2="513.92" y2="374.99" fill="#fff" stroke="#231815" stroke-miterlimit="10"/></g><polyline points="645.14 362.95 645.14 381.89 708.16 381.89 708.16 362.95 645.14 362.95" fill="#f19899" stroke="#283331" stroke-miterlimit="10"/><polyline id="toilet" points="645.04 343.88 645.04 362.25 708.16 362.25 708.16 343.88 645.04 343.88" fill="#54c3f1" stroke="#283331" stroke-miterlimit="10"/><g id="toilet_mark"><path d="M697.36,357.18A4.19,4.19,0,1,0,693.1,353,4.22,4.22,0,0,0,697.36,357.18Z" fill="#fff"/><path d="M681.49,357.18a4.19,4.19,0,1,0-4.26-4.18A4.22,4.22,0,0,0,681.49,357.18Z" fill="#fff"/><path d="M703.83,373.42,698,359.91a.68.68,0,0,0-1.24,0l-5.84,13.51a2.58,2.58,0,0,0,.23,2.49,2.71,2.71,0,0,0,2.24,1.18h8a2.7,2.7,0,0,0,2.24-1.18A2.61,2.61,0,0,0,703.83,373.42Z" fill="#fff"/><path d="M685.49,359.51h-8a2.7,2.7,0,0,0-2.24,1.18,2.58,2.58,0,0,0-.23,2.49l5.84,13.51a.68.68,0,0,0,1.24,0L688,363.18a2.63,2.63,0,0,0-.23-2.49A2.7,2.7,0,0,0,685.49,359.51Z" fill="#fff"/></g><g id="spiral_stair_sq"><rect x="645.14" y="353.38" width="24.56" height="19.14" fill="#fff" stroke="#231815" stroke-miterlimit="10"/><polygon points="653.99 360.42 653.99 365.48 660.85 365.48 660.85 360.42 657.76 360.42 653.99 360.42" fill="#fff" stroke="#231815" stroke-miterlimit="10"/><line x1="653.99" y1="360.42" x2="645.14" y2="365.48" fill="none" stroke="#231815" stroke-miterlimit="10"/><line x1="653.6" y1="362.95" x2="649.56" y2="362.95" fill="none" stroke="#231815" stroke-miterlimit="10"/><line x1="653.99" y1="365.48" x2="645.14" y2="365.48" fill="none" stroke="#231815" stroke-miterlimit="10"/><line x1="654.8" y1="372.52" x2="654.8" y2="365.48" fill="none" stroke="#231815" stroke-miterlimit="10"/><line x1="657.42" y1="372.52" x2="657.42" y2="365.48" fill="none" stroke="#231815" stroke-miterlimit="10"/><line x1="659.86" y1="372.52" x2="659.86" y2="365.85" fill="none" stroke="#231815" stroke-miterlimit="10"/><line x1="669.7" y1="365.07" x2="660.85" y2="365.07" fill="none" stroke="#231815" stroke-miterlimit="10"/><line x1="669.7" y1="362.95" x2="661.4" y2="362.95" fill="none" stroke="#231815" stroke-miterlimit="10"/><line x1="669.7" y1="360.79" x2="660.85" y2="360.79" fill="none" stroke="#231815" stroke-miterlimit="10"/><line x1="659.86" y1="353.07" x2="659.86" y2="360.42" fill="none" stroke="#231815" stroke-miterlimit="10"/><line x1="657.42" y1="353.07" x2="657.42" y2="360.42" fill="none" stroke="#231815" stroke-miterlimit="10"/><line x1="654.37" y1="353.38" x2="654.37" y2="360.42" fill="none" stroke="#231815" stroke-miterlimit="10"/></g><g id="stair_to_back_lib"><polygon points="62.64 78.89 45.17 60.68 45.17 134.91 62.64 134.91 62.64 78.89" fill="#fff" stroke="#231815" stroke-miterlimit="10"/><line x1="52.62" y1="68.51" x2="45.17" y2="68.51" fill="none" stroke="#231815" stroke-miterlimit="10" stroke-width="0.75"/><line x1="45.17" y1="64.64" x2="48.89" y2="64.64" fill="none" stroke="#231815" stroke-miterlimit="10" stroke-width="0.75"/><line x1="45.17" y1="72.38" x2="55.98" y2="72.38" fill="none" stroke="#231815" stroke-miterlimit="10" stroke-width="0.75"/><line x1="62.64" y1="80.26" x2="45.17" y2="80.26" fill="none" stroke="#231815" stroke-miterlimit="10" stroke-width="0.75"/><line x1="45.17" y1="76.46" x2="60.31" y2="76.46" fill="none" stroke="#231815" stroke-miterlimit="10" stroke-width="0.75"/><line x1="45.17" y1="84.2" x2="62.64" y2="84.2" fill="none" stroke="#231815" stroke-miterlimit="10" stroke-width="0.75"/><line x1="62.64" y1="88.38" x2="45.17" y2="88.38" fill="none" stroke="#231815" stroke-miterlimit="10" stroke-width="0.75"/><line x1="45.17" y1="92.31" x2="62.64" y2="92.31" fill="none" stroke="#231815" stroke-miterlimit="10" stroke-width="0.75"/><line x1="62.64" y1="119.33" x2="45.17" y2="119.33" fill="none" stroke="#231815" stroke-miterlimit="10" stroke-width="0.75"/><line x1="45.17" y1="123.24" x2="62.64" y2="123.24" fill="none" stroke="#231815" stroke-miterlimit="10" stroke-width="0.75"/><line x1="62.64" y1="127.15" x2="45.17" y2="127.15" fill="none" stroke="#231815" stroke-miterlimit="10" stroke-width="0.75"/><line x1="45.17" y1="131.06" x2="62.64" y2="131.06" fill="none" stroke="#231815" stroke-miterlimit="10" stroke-width="0.75"/><line x1="62.64" y1="103.69" x2="45.17" y2="103.69" fill="none" stroke="#231815" stroke-miterlimit="10" stroke-width="0.75"/><line x1="45.17" y1="107.6" x2="62.64" y2="107.6" fill="none" stroke="#231815" stroke-miterlimit="10" stroke-width="0.75"/><line x1="62.64" y1="111.51" x2="45.17" y2="111.51" fill="none" stroke="#231815" stroke-miterlimit="10" stroke-width="0.75"/><line x1="45.17" y1="115.42" x2="62.64" y2="115.42" fill="none" stroke="#231815" stroke-miterlimit="10" stroke-width="0.75"/></g><g id="stair_tocafe"><rect x="103.71" y="470.45" width="34.13" height="66.53" fill="#fff" stroke="#231815" stroke-miterlimit="10"/><polygon points="116.45 485.49 116.45 513.91 125.43 513.91 125.43 485.49 121.39 485.49 116.45 485.49" fill="#fff" stroke="#231815" stroke-miterlimit="10"/><line x1="116.63" y1="487.2" x2="103.71" y2="505.68" fill="none" stroke="#231815" stroke-miterlimit="10"/><line x1="116.45" y1="495.25" x2="111.17" y2="495.25" fill="none" stroke="#231815" stroke-miterlimit="10"/><line x1="116.45" y1="512.58" x2="103.71" y2="512.58" fill="none" stroke="#231815" stroke-miterlimit="10"/><line x1="117.51" y1="536.98" x2="117.51" y2="513.91" fill="none" stroke="#231815" stroke-miterlimit="10"/><line x1="120.94" y1="536.98" x2="120.94" y2="513.91" fill="none" stroke="#231815" stroke-miterlimit="10"/><line x1="124.14" y1="536.98" x2="124.14" y2="513.91" fill="none" stroke="#231815" stroke-miterlimit="10"/><line x1="138.03" y1="512.58" x2="125.43" y2="512.58" fill="none" stroke="#231815" stroke-miterlimit="10"/><line x1="137.85" y1="505.62" x2="125.42" y2="505.62" fill="none" stroke="#231815" stroke-miterlimit="10"/><line x1="137.85" y1="498.53" x2="125.43" y2="498.53" fill="none" stroke="#231815" stroke-miterlimit="10"/><line x1="137.84" y1="491.71" x2="125.43" y2="491.71" fill="none" stroke="#231815" stroke-miterlimit="10"/><line x1="116.45" y1="507.38" x2="103.71" y2="507.38" fill="none" stroke="#231815" stroke-miterlimit="10"/><line x1="116.45" y1="502.02" x2="106.35" y2="502.02" fill="none" stroke="#231815" stroke-miterlimit="10"/><line x1="116.63" y1="485.49" x2="103.71" y2="485.49" fill="none" stroke="#231815" stroke-miterlimit="10"/></g><rect x="405.51" y="349.52" width="24.85" height="26.52" fill="#f7f8f8" stroke="#231815" stroke-miterlimit="10" stroke-width="2"/><path d="M700.66,171.81l-9.22-5.36v4H656.85v2.68h34.59v4Z" fill="#040000"/></g><g id="MNOINT-word"><text transform="translate(403.51 243.96)" font-size="14" fill="#231815" font-family="HiraginoSans-W5-83pv-RKSJ-H, Hiragino Sans">談話室</text><text transform="translate(152.63 498.43)" font-size="12" fill="#231815" font-family="HiraginoSans-W5-83pv-RKSJ-H, Hiragino Sans">資料作成室</text><text transform="translate(131.41 144.2)" font-size="32" fill="#231815" font-family="HiraginoSans-W5-83pv-RKSJ-H, Hiragino Sans">生協前広場</text><text transform="translate(21.9 418.92)" writing-mode="tb" glyph-orientation-vertical="0deg" font-size="32" fill="#231815" font-family="KozGoPr6N-Regular-83pv-RKSJ-H, Kozuka Gothic Pr6N" style="text-orientation:upright">図書館</text><text transform="translate(553.64 146.89)" font-size="18" fill="#231815" font-family="KozGoPr6N-Regular-83pv-RKSJ-H, Kozuka Gothic Pr6N">インフォメーション<tspan x="0" y="31.5">ギャラリー</tspan></text><text transform="translate(409.08 365.85)" font-size="12" fill="#231815" font-family="HiraginoSans-W5-83pv-RKSJ-H, Hiragino Sans">EV</text><text transform="translate(158.95 182.33)" font-size="13" fill="#231815" font-family="HiraginoSans-W5-83pv-RKSJ-H, Hiragino Sans">応援団　<tspan x="0" y="22.75">吹奏楽団</tspan><tspan x="0" y="45.5">WILD BOARS</tspan><tspan font-size="12"><tspan x="0" y="67.37">軽音楽部</tspan><tspan x="48" y="67.37" letter-spacing="-0.25em">・</tspan><tspan x="0" y="88.37" xml:space="preserve"> フォークソング研究会</tspan></tspan></text><text transform="translate(289.12 182.33)" font-size="13" fill="#231815" font-family="HiraginoSans-W5-83pv-RKSJ-H, Hiragino Sans">10:30 - 11:10<tspan x="0" y="22.75">11:10 - 13:00</tspan><tspan x="0" y="45.5">13:00 - 15:30</tspan><tspan x="0" y="77.5">15:30 - 16:30</tspan></text></g></svg>