<svg xmlns="http://www.w3.org/2000/svg" viewBox="0 0 714.99 520.42"><g id="base"><rect id="base-2" data-name="base" y="0.51" width="714.46" height="519.91" fill="#dcdddd"/></g><g id="MLOC-unavailable"><rect id="building1" x="36.56" y="0.51" width="419.22" height="158.87" fill="#929292" stroke="#283331" stroke-miterlimit="10"/><rect id="building7" x="36.56" y="388.59" width="443.59" height="116.23" fill="#929292" stroke="#283331" stroke-miterlimit="10"/><rect id="Hall" x="643.99" y="0.51" width="70.47" height="92.6" fill="#929292" stroke="#283331" stroke-miterlimit="10" stroke-width="1.02"/></g><g id="MLOC-available"><rect id="no8" x="97.16" y="287.95" width="74.18" height="86.27" transform="translate(465.34 196.83) rotate(90)" fill="#aaddf7" stroke="#283331" stroke-miterlimit="10"/><rect id="no7" x="220.35" y="287.95" width="74.18" height="86.27" transform="translate(588.52 73.64) rotate(90)" fill="#aaddf7" stroke="#283331" stroke-miterlimit="10"/><rect id="no6" x="343.53" y="287.95" width="74.18" height="86.27" transform="translate(711.7 -49.54) rotate(90)" fill="#aaddf7" stroke="#283331" stroke-miterlimit="10"/><rect id="no5" x="601.48" y="276.42" width="74.18" height="86.27" fill="#aaddf7" stroke="#283331" stroke-miterlimit="10"/><rect id="no4" x="97.16" y="175.94" width="74.18" height="86.27" transform="translate(353.32 84.82) rotate(90)" fill="#aaddf7" stroke="#283331" stroke-miterlimit="10"/><rect id="no3" x="220.35" y="175.94" width="74.18" height="86.27" transform="translate(476.51 -38.37) rotate(90)" fill="#aaddf7" stroke="#283331" stroke-miterlimit="10"/><rect id="no2" x="343.53" y="175.94" width="74.18" height="86.27" transform="translate(599.69 -161.55) rotate(90)" fill="#aaddf7" stroke="#283331" stroke-miterlimit="10"/><rect id="no1" x="601.48" y="178.98" width="74.18" height="86.27" fill="#aaddf7" stroke="#283331" stroke-miterlimit="10"/></g><g id="MNOINT-word"><text transform="translate(227.27 96.42)" font-size="20" fill="#231815" font-family="HiraginoSans-W5-83pv-RKSJ-H, Hiragino Sans"><tspan letter-spacing="0.25em">1</tspan><tspan x="18.8" y="0">号館</tspan></text><text transform="translate(230.41 446.7)" font-size="20" fill="#231815" font-family="HiraginoSans-W5-83pv-RKSJ-H, Hiragino Sans"><tspan letter-spacing="0.25em">7</tspan><tspan x="18.8" y="0">号館</tspan></text><text transform="translate(620.07 224.64)" font-size="12" fill="#231815" font-family="HiraginoSans-W5-83pv-RKSJ-H, Hiragino Sans">柔道部</text><text transform="translate(620.58 323.65)" font-size="12" fill="#231815" font-family="HiraginoSans-W5-83pv-RKSJ-H, Hiragino Sans">剣道部</text><text transform="translate(661.37 64.85)" font-size="20" fill="#231815" font-family="KozGoPr6N-Regular-83pv-RKSJ-H, Kozuka Gothic Pr6N">講堂</text><text transform="translate(559.67 110.01)" font-size="20" fill="#231815" font-family="KozGoPr6N-Regular-83pv-RKSJ-H, Kozuka Gothic Pr6N">↑<tspan x="-10" y="20">南門</tspan></text><text transform="translate(543.1 468.58)" font-size="20" fill="#231815" font-family="KozGoPr6N-Regular-83pv-RKSJ-H, Kozuka Gothic Pr6N"><tspan letter-spacing="0.25em">6</tspan><tspan x="16.02" y="0">号館</tspan><tspan x="18.01" y="20">↓</tspan></text><text transform="translate(29.35 212.37)" writing-mode="tb" glyph-orientation-vertical="0deg" font-size="24" fill="#231815" font-family="KozGoPr6N-Regular-83pv-RKSJ-H, Kozuka Gothic Pr6N" style="text-orientation:upright">学生ホール</text><path d="M7.44,198.5l9.22,5.36v-4H51.25v-2.68H16.66v-4Z" fill="#040000"/><polyline points="714.99 187.89 681.38 187.89 681.38 352.09 714.99 352.09" fill="#929292" stroke="#283331" stroke-miterlimit="10"/><text transform="translate(695.98 217.3)" writing-mode="tb" glyph-orientation-vertical="0deg" font-size="24" fill="#231815" font-family="KozGoPr6N-Regular-83pv-RKSJ-H, Kozuka Gothic Pr6N" style="text-orientation:upright">空の目門</text><text transform="translate(110.25 222.11)" font-size="12" fill="#231815" font-family="HiraginoSans-W5-83pv-RKSJ-H, Hiragino Sans">自動車部</text><text transform="translate(239.44 222.11)" font-size="12" fill="#231815" font-family="HiraginoSans-W5-83pv-RKSJ-H, Hiragino Sans">漕艇部</text><text transform="translate(362.62 220.11)" font-size="12" fill="#231815" font-family="HiraginoSans-W5-83pv-RKSJ-H, Hiragino Sans">卓球部</text><text transform="translate(118.71 331.72)" font-size="12" fill="#231815" font-family="HiraginoSans-W5-83pv-RKSJ-H, Hiragino Sans">cap5</text><text transform="translate(221.44 331.72)" font-size="12" fill="#231815" font-family="HiraginoSans-W5-83pv-RKSJ-H, Hiragino Sans">準硬式卓球部</text><text transform="translate(356.62 329.72)" font-size="12" fill="#231815" font-family="HiraginoSans-W5-83pv-RKSJ-H, Hiragino Sans">ヨット部</text></g></svg>